Goteka.ttf.ufo
<glyph name="quotedbl" format="2">
  <advance width="799"/>
  <unicode hex="0022"/>
  <outline>
    <contour>
      <point x="135" y="997" type="line"/>
      <point x="280" y="997" type="line"/>
      <point x="280" y="1385" type="line"/>
      <point x="135" y="1385" type="line"/>
    </contour>
    <contour>
      <point x="425" y="997" type="line"/>
      <point x="570" y="997" type="line"/>
      <point x="570" y="1385" type="line"/>
      <point x="425" y="1385" type="line"/>
    </contour>
  </outline>
</glyph>
<glyph name="ampersand" format="2">
  <advance width="1427"/>
  <unicode hex="0026"/>
  <outline>
    <contour>
      <point x="1191" y="-12" type="line"/>
      <point x="1335" y="55" type="line"/>
      <point x="1091" y="301" type="line"/>
      <point x="1195" y="449"/>
      <point x="1296" y="670" type="qcurve"/>
      <point x="1168" y="728" type="line"/>
      <point x="1107" y="558"/>
      <point x="996" y="396" type="qcurve"/>
      <point x="785" y="617"/>
      <point x="650" y="777" type="qcurve"/>
      <point x="836" y="851"/>
      <point x="927" y="935" type="qcurve"/>
      <point x="1013" y="1015"/>
      <point x="1013" y="1144" type="qcurve"/>
      <point x="1013" y="1238"/>
      <point x="968" y="1314" type="qcurve"/>
      <point x="922" y="1392"/>
      <point x="845" y="1435" type="qcurve"/>
      <point x="767" y="1478"/>
      <point x="674" y="1478" type="qcurve"/>
      <point x="572" y="1480"/>
      <point x="486" y="1433" type="qcurve"/>
      <point x="400" y="1390"/>
      <point x="353" y="1312" type="qcurve"/>
      <point x="308" y="1236"/>
      <point x="308" y="1142" type="qcurve"/>
      <point x="303" y="1058"/>
      <point x="334" y="984" type="qcurve"/>
      <point x="365" y="910"/>
      <point x="433" y="816" type="qcurve"/>
      <point x="258" y="738"/>
      <point x="174" y="631" type="qcurve"/>
      <point x="92" y="527"/>
      <point x="94" y="385" type="qcurve"/>
      <point x="96" y="262"/>
      <point x="154" y="168" type="qcurve"/>
      <point x="215" y="76"/>
      <point x="318" y="25" type="qcurve"/>
      <point x="422" y="-27"/>
      <point x="549" y="-23" type="qcurve"/>
      <point x="800" y="-27"/>
      <point x="998" y="187" type="qcurve"/>
    </contour>
    <contour>
      <point x="674" y="1351" type="qcurve"/>
      <point x="765" y="1349"/>
      <point x="814" y="1287" type="qcurve"/>
      <point x="869" y="1228"/>
      <point x="869" y="1142" type="qcurve"/>
      <point x="867" y="1050"/>
      <point x="797" y="988" type="qcurve"/>
      <point x="736" y="931"/>
      <point x="574" y="871" type="qcurve"/>
      <point x="451" y="1025"/>
      <point x="451" y="1142" type="qcurve"/>
      <point x="453" y="1240"/>
      <point x="517" y="1294" type="qcurve"/>
      <point x="578" y="1351"/>
    </contour>
    <contour>
      <point x="556" y="107" type="qcurve"/>
      <point x="424" y="107"/>
      <point x="330" y="182" type="qcurve"/>
      <point x="240" y="260"/>
      <point x="242" y="390" type="qcurve"/>
      <point x="242" y="496"/>
      <point x="312" y="578" type="qcurve"/>
      <point x="383" y="664"/>
      <point x="510" y="722" type="qcurve"/>
      <point x="656" y="541"/>
      <point x="906" y="281" type="qcurve"/>
      <point x="742" y="109"/>
    </contour>
  </outline>
</glyph>
<glyph name="parenleft" format="2">
  <advance width="760"/>
  <unicode hex="0028"/>
  <outline>
    <contour>
      <point x="648" y="1406" type="qcurve"/>
      <point x="572" y="1488" type="line"/>
      <point x="361" y="1308"/>
      <point x="248" y="1072" type="qcurve"/>
      <point x="133" y="838"/>
      <point x="135" y="568" type="qcurve"/>
      <point x="133" y="293"/>
      <point x="248" y="57" type="qcurve"/>
      <point x="361" y="-178"/>
      <point x="572" y="-355" type="qcurve"/>
      <point x="650" y="-273" type="line"/>
      <point x="472" y="-86"/>
      <point x="383" y="113" type="qcurve"/>
      <point x="291" y="312"/>
      <point x="291" y="568" type="qcurve"/>
      <point x="291" y="822"/>
      <point x="383" y="1025" type="qcurve"/>
      <point x="430" y="1123"/>
      <point x="560" y="1314"/>
    </contour>
  </outline>
</glyph>
<glyph name="parenright" format="2">
  <advance width="760"/>
  <unicode hex="0029"/>
  <outline>
    <contour>
      <point x="111" y="-273" type="qcurve"/>
      <point x="187" y="-355" type="line"/>
      <point x="398" y="-174"/>
      <point x="510" y="62" type="qcurve"/>
      <point x="625" y="295"/>
      <point x="623" y="566" type="qcurve"/>
      <point x="625" y="840"/>
      <point x="510" y="1076" type="qcurve"/>
      <point x="398" y="1312"/>
      <point x="187" y="1488" type="qcurve"/>
      <point x="109" y="1406" type="line"/>
      <point x="287" y="1220"/>
      <point x="375" y="1021" type="qcurve"/>
      <point x="467" y="822"/>
      <point x="467" y="566" type="qcurve"/>
      <point x="467" y="312"/>
      <point x="375" y="109" type="qcurve"/>
      <point x="328" y="10"/>
      <point x="199" y="-180"/>
    </contour>
  </outline>
</glyph>
<glyph name="zero" format="2">
  <advance width="1526"/>
  <unicode hex="0030"/>
  <outline>
    <contour>
      <point x="720" y="1478" type="qcurve"/>
      <point x="545" y="1480"/>
      <point x="404" y="1382" type="qcurve"/>
      <point x="271" y="1285"/>
      <point x="189" y="1117" type="qcurve"/>
      <point x="111" y="947"/>
      <point x="113" y="730" type="qcurve"/>
      <point x="113" y="510"/>
      <point x="191" y="338" type="qcurve"/>
      <point x="271" y="172"/>
      <point x="404" y="72" type="qcurve"/>
      <point x="545" y="-23"/>
      <point x="720" y="-23" type="qcurve"/>
      <point x="894" y="-20"/>
      <point x="1031" y="74" type="qcurve"/>
      <point x="1168" y="172"/>
      <point x="1244" y="338" type="qcurve"/>
      <point x="1324" y="510"/>
      <point x="1322" y="730" type="qcurve"/>
      <point x="1322" y="949"/>
      <point x="1242" y="1119" type="qcurve"/>
      <point x="1168" y="1287"/>
      <point x="1029" y="1384" type="qcurve"/>
      <point x="890" y="1480"/>
    </contour>
    <contour>
      <point x="720" y="1341" type="qcurve"/>
      <point x="849" y="1341"/>
      <point x="951" y="1263" type="qcurve"/>
      <point x="1056" y="1185"/>
      <point x="1111" y="1046" type="qcurve"/>
      <point x="1171" y="906"/>
      <point x="1168" y="730" type="qcurve"/>
      <point x="1171" y="558"/>
      <point x="1111" y="410" type="qcurve"/>
      <point x="1056" y="273"/>
      <point x="951" y="193" type="qcurve"/>
      <point x="849" y="115"/>
      <point x="720" y="115" type="qcurve"/>
      <point x="588" y="115"/>
      <point x="484" y="195" type="qcurve"/>
      <point x="381" y="275"/>
      <point x="322" y="414" type="qcurve"/>
      <point x="266" y="558"/>
      <point x="266" y="730" type="qcurve"/>
      <point x="266" y="906"/>
      <point x="324" y="1048" type="qcurve"/>
      <point x="385" y="1187"/>
      <point x="484" y="1263" type="qcurve"/>
      <point x="588" y="1341"/>
    </contour>
  </outline>
</glyph>
<glyph name="two" format="2">
  <advance width="1223"/>
  <unicode hex="0032"/>
  <outline>
    <contour>
      <point x="96" y="125" type="line"/>
      <point x="96" y="0" type="line"/>
      <point x="1097" y="0" type="line"/>
      <point x="1097" y="141" type="line"/>
      <point x="334" y="141" type="line"/>
      <point x="732" y="492" type="line"/>
      <point x="875" y="619"/>
      <point x="1082" y="871"/>
      <point x="1082" y="1050" type="qcurve"/>
      <point x="1082" y="1086"/>
      <point x="1046" y="1228"/>
      <point x="947" y="1371"/>
      <point x="767" y="1478"/>
      <point x="619" y="1478" type="qcurve"/>
      <point x="303" y="1478"/>
      <point x="105" y="1199" type="qcurve"/>
      <point x="213" y="1113" type="line"/>
      <point x="281" y="1199"/>
      <point x="496" y="1345"/>
      <point x="619" y="1345" type="qcurve"/>
      <point x="707" y="1345"/>
      <point x="826" y="1277"/>
      <point x="900" y="1181"/>
      <point x="931" y="1080"/>
      <point x="931" y="1048" type="qcurve"/>
      <point x="931" y="972"/>
      <point x="865" y="832"/>
      <point x="771" y="713"/>
      <point x="666" y="617"/>
      <point x="629" y="584" type="qcurve"/>
    </contour>
  </outline>
</glyph>
<glyph name="three" format="2">
  <advance width="1247"/>
  <unicode hex="0033"/>
  <outline>
    <contour>
      <point x="615" y="-16" type="qcurve"/>
      <point x="767" y="-18"/>
      <point x="875" y="35" type="qcurve"/>
      <point x="988" y="92"/>
      <point x="1052" y="184" type="qcurve"/>
      <point x="1115" y="277"/>
      <point x="1115" y="396" type="qcurve"/>
      <point x="1115" y="535"/>
      <point x="1025" y="623" type="qcurve"/>
      <point x="976" y="670"/>
      <point x="828" y="740"/>
      <point x="793" y="748" type="qcurve"/>
      <point x="824" y="756"/>
      <point x="961" y="830"/>
      <point x="1004" y="877" type="qcurve"/>
      <point x="1048" y="920"/>
      <point x="1082" y="1025"/>
      <point x="1082" y="1091" type="qcurve"/>
      <point x="1082" y="1201"/>
      <point x="1019" y="1292" type="qcurve"/>
      <point x="955" y="1382"/>
      <point x="853" y="1431" type="qcurve"/>
      <point x="748" y="1480"/>
      <point x="609" y="1478" type="qcurve"/>
      <point x="308" y="1480"/>
      <point x="117" y="1228" type="qcurve"/>
      <point x="219" y="1140" type="line"/>
      <point x="303" y="1238"/>
      <point x="390" y="1287" type="qcurve"/>
      <point x="486" y="1343"/>
      <point x="601" y="1343" type="qcurve"/>
      <point x="742" y="1345"/>
      <point x="836" y="1267" type="qcurve"/>
      <point x="933" y="1189"/>
      <point x="931" y="1070" type="qcurve"/>
      <point x="931" y="947"/>
      <point x="832" y="875" type="qcurve"/>
      <point x="738" y="808"/>
      <point x="580" y="808" type="qcurve"/>
      <point x="430" y="808" type="line"/>
      <point x="430" y="670" type="line"/>
      <point x="578" y="670" type="line"/>
      <point x="758" y="670"/>
      <point x="859" y="603" type="qcurve"/>
      <point x="964" y="537"/>
      <point x="964" y="406" type="qcurve"/>
      <point x="964" y="275"/>
      <point x="865" y="197" type="qcurve"/>
      <point x="773" y="119"/>
      <point x="615" y="117" type="qcurve"/>
      <point x="484" y="119"/>
      <point x="375" y="176" type="qcurve"/>
      <point x="271" y="232"/>
      <point x="197" y="322" type="qcurve"/>
      <point x="96" y="226" type="line"/>
      <point x="182" y="119"/>
      <point x="314" y="49" type="qcurve"/>
      <point x="451" y="-18"/>
    </contour>
  </outline>
</glyph>
<glyph name="four" format="2">
  <advance width="1327"/>
  <unicode hex="0034"/>
  <outline>
    <contour>
      <point x="840" y="361" type="line"/>
      <point x="843" y="0" type="line"/>
      <point x="992" y="0" type="line"/>
      <point x="992" y="361" type="line"/>
      <point x="1210" y="361" type="line"/>
      <point x="1212" y="496" type="line"/>
      <point x="992" y="498" type="line"/>
      <point x="992" y="1456" type="line"/>
      <point x="812" y="1456" type="line"/>
      <point x="92" y="492" type="line"/>
      <point x="115" y="361" type="line"/>
    </contour>
    <contour>
      <point x="840" y="496" type="line"/>
      <point x="260" y="496" type="line"/>
      <point x="260" y="496" type="line"/>
      <point x="836" y="1275" type="line"/>
      <point x="840" y="1273" type="line"/>
    </contour>
  </outline>
</glyph>
<glyph name="five" format="2">
  <advance width="1274"/>
  <unicode hex="0035"/>
  <outline>
    <contour>
      <point x="625" y="-23" type="qcurve"/>
      <point x="775" y="-25"/>
      <point x="890" y="33" type="qcurve"/>
      <point x="1009" y="94"/>
      <point x="1072" y="201" type="qcurve"/>
      <point x="1140" y="308"/>
      <point x="1138" y="447" type="qcurve"/>
      <point x="1140" y="588"/>
      <point x="1072" y="689" type="qcurve"/>
      <point x="1009" y="791"/>
      <point x="900" y="843" type="qcurve"/>
      <point x="795" y="898"/>
      <point x="662" y="896" type="qcurve"/>
      <point x="578" y="896"/>
      <point x="410" y="834"/>
      <point x="344" y="791" type="qcurve"/>
      <point x="367" y="1312" type="line"/>
      <point x="1066" y="1312" type="line"/>
      <point x="1066" y="1456" type="line"/>
      <point x="219" y="1456" type="line"/>
      <point x="189" y="705" type="line"/>
      <point x="305" y="652" type="line"/>
      <point x="459" y="763"/>
      <point x="627" y="761" type="qcurve"/>
      <point x="787" y="763"/>
      <point x="882" y="674" type="qcurve"/>
      <point x="984" y="584"/>
      <point x="982" y="443" type="qcurve"/>
      <point x="984" y="351"/>
      <point x="939" y="273" type="qcurve"/>
      <point x="896" y="195"/>
      <point x="814" y="152" type="qcurve"/>
      <point x="734" y="111"/>
      <point x="631" y="109" type="qcurve"/>
      <point x="406" y="107"/>
      <point x="221" y="308" type="qcurve"/>
      <point x="121" y="199" type="line"/>
      <point x="213" y="96"/>
      <point x="338" y="37" type="qcurve"/>
      <point x="465" y="-25"/>
    </contour>
  </outline>
</glyph>
<glyph name="six" format="2">
  <advance width="1292"/>
  <unicode hex="0036"/>
  <outline>
    <contour>
      <point x="695" y="910" type="qcurve"/>
      <point x="519" y="908"/>
      <point x="305" y="752"/>
      <point x="269" y="691" type="qcurve"/>
      <point x="269" y="795"/>
      <point x="320" y="1025"/>
      <point x="428" y="1218"/>
      <point x="588" y="1343"/>
      <point x="695" y="1343" type="qcurve"/>
      <point x="814" y="1343"/>
      <point x="992" y="1222"/>
      <point x="1031" y="1185" type="qcurve"/>
      <point x="1117" y="1306" type="line"/>
      <point x="1072" y="1349"/>
      <point x="859" y="1478"/>
      <point x="703" y="1478" type="qcurve"/>
      <point x="586" y="1478"/>
      <point x="373" y="1363"/>
      <point x="211" y="1158"/>
      <point x="115" y="875"/>
      <point x="115" y="707" type="qcurve"/>
      <point x="115" y="480"/>
      <point x="219" y="195"/>
      <point x="379" y="35"/>
      <point x="576" y="-23"/>
      <point x="668" y="-23" type="qcurve"/>
      <point x="822" y="-23"/>
      <point x="1019" y="82"/>
      <point x="1132" y="232"/>
      <point x="1177" y="398"/>
      <point x="1177" y="455" type="qcurve"/>
      <point x="1177" y="578"/>
      <point x="1089" y="748"/>
      <point x="953" y="859"/>
      <point x="781" y="910"/>
    </contour>
    <contour>
      <point x="662" y="105" type="qcurve"/>
      <point x="625" y="105"/>
      <point x="517" y="133"/>
      <point x="406" y="219"/>
      <point x="314" y="375"/>
      <point x="289" y="500" type="qcurve"/>
      <point x="320" y="631"/>
      <point x="533" y="779"/>
      <point x="662" y="779" type="qcurve"/>
      <point x="711" y="779"/>
      <point x="836" y="744"/>
      <point x="947" y="670"/>
      <point x="1025" y="547"/>
      <point x="1025" y="455" type="qcurve"/>
      <point x="1025" y="418"/>
      <point x="984" y="297"/>
      <point x="898" y="184"/>
      <point x="761" y="105"/>
    </contour>
  </outline>
</glyph>
<glyph name="eight" format="2">
  <advance width="1290"/>
  <unicode hex="0038"/>
  <outline>
    <contour>
      <point x="648" y="-23" type="qcurve"/>
      <point x="800" y="-25"/>
      <point x="922" y="25" type="qcurve"/>
      <point x="1041" y="78"/>
      <point x="1109" y="168" type="qcurve"/>
      <point x="1177" y="260"/>
      <point x="1177" y="379" type="qcurve"/>
      <point x="1179" y="508"/>
      <point x="1089" y="603" type="qcurve"/>
      <point x="1039" y="652"/>
      <point x="896" y="734"/>
      <point x="849" y="748" type="qcurve"/>
      <point x="892" y="763"/>
      <point x="1021" y="843"/>
      <point x="1064" y="888" type="qcurve"/>
      <point x="1144" y="972"/>
      <point x="1144" y="1093" type="qcurve"/>
      <point x="1144" y="1210"/>
      <point x="1072" y="1298" type="qcurve"/>
      <point x="1004" y="1386"/>
      <point x="892" y="1431" type="qcurve"/>
      <point x="832" y="1456"/>
      <point x="715" y="1478"/>
      <point x="648" y="1478" type="qcurve"/>
      <point x="521" y="1480"/>
      <point x="404" y="1431" type="qcurve"/>
      <point x="291" y="1388"/>
      <point x="226" y="1298" type="qcurve"/>
      <point x="156" y="1210"/>
      <point x="156" y="1095" type="qcurve"/>
      <point x="156" y="980"/>
      <point x="234" y="892" type="qcurve"/>
      <point x="275" y="845"/>
      <point x="408" y="767"/>
      <point x="451" y="750" type="qcurve"/>
      <point x="402" y="736"/>
      <point x="256" y="654"/>
      <point x="207" y="605" type="qcurve"/>
      <point x="115" y="512"/>
      <point x="115" y="379" type="qcurve"/>
      <point x="117" y="258"/>
      <point x="189" y="166" type="qcurve"/>
      <point x="258" y="76"/>
      <point x="375" y="25" type="qcurve"/>
      <point x="496" y="-25"/>
    </contour>
    <contour>
      <point x="648" y="812" type="qcurve"/>
      <point x="574" y="816"/>
      <point x="494" y="849" type="qcurve"/>
      <point x="414" y="879"/>
      <point x="363" y="939" type="qcurve"/>
      <point x="312" y="996"/>
      <point x="316" y="1080" type="qcurve"/>
      <point x="314" y="1193"/>
      <point x="410" y="1267" type="qcurve"/>
      <point x="506" y="1341"/>
      <point x="648" y="1343" type="qcurve"/>
      <point x="740" y="1341"/>
      <point x="818" y="1306" type="qcurve"/>
      <point x="900" y="1275"/>
      <point x="943" y="1214" type="qcurve"/>
      <point x="984" y="1156"/>
      <point x="984" y="1080" type="qcurve"/>
      <point x="986" y="1000"/>
      <point x="935" y="941" type="qcurve"/>
      <point x="884" y="882"/>
      <point x="804" y="849" type="qcurve"/>
      <point x="726" y="816"/>
    </contour>
    <contour>
      <point x="648" y="113" type="qcurve"/>
      <point x="549" y="115"/>
      <point x="459" y="148" type="qcurve"/>
      <point x="373" y="182"/>
      <point x="322" y="246" type="qcurve"/>
      <point x="271" y="312"/>
      <point x="275" y="390" type="qcurve"/>
      <point x="275" y="433"/>
      <point x="299" y="502"/>
      <point x="330" y="537" type="qcurve"/>
      <point x="390" y="607"/>
      <point x="480" y="642" type="qcurve"/>
      <point x="568" y="681"/>
      <point x="648" y="681" type="qcurve"/>
      <point x="732" y="679"/>
      <point x="816" y="640" type="qcurve"/>
      <point x="908" y="605"/>
      <point x="966" y="537" type="qcurve"/>
      <point x="996" y="502"/>
      <point x="1021" y="433"/>
      <point x="1021" y="390" type="qcurve"/>
      <point x="1025" y="310"/>
      <point x="974" y="244" type="qcurve"/>
      <point x="922" y="180"/>
      <point x="834" y="148" type="qcurve"/>
      <point x="750" y="115"/>
    </contour>
  </outline>
</glyph>
<glyph name="nine" format="2">
  <advance width="1292"/>
  <unicode hex="0039"/>
  <outline>
    <contour>
      <point x="597" y="545" type="qcurve"/>
      <point x="773" y="547"/>
      <point x="986" y="703"/>
      <point x="1023" y="765" type="qcurve"/>
      <point x="1023" y="660"/>
      <point x="972" y="430"/>
      <point x="863" y="238"/>
      <point x="703" y="113"/>
      <point x="597" y="113" type="qcurve"/>
      <point x="478" y="113"/>
      <point x="299" y="234"/>
      <point x="260" y="271" type="qcurve"/>
      <point x="174" y="150" type="line"/>
      <point x="219" y="107"/>
      <point x="433" y="-23"/>
      <point x="588" y="-23" type="qcurve"/>
      <point x="705" y="-23"/>
      <point x="918" y="92"/>
      <point x="1080" y="297"/>
      <point x="1177" y="580"/>
      <point x="1177" y="748" type="qcurve"/>
      <point x="1177" y="976"/>
      <point x="1072" y="1261"/>
      <point x="912" y="1421"/>
      <point x="715" y="1478"/>
      <point x="623" y="1478" type="qcurve"/>
      <point x="469" y="1478"/>
      <point x="273" y="1374"/>
      <point x="160" y="1224"/>
      <point x="115" y="1058"/>
      <point x="115" y="1000" type="qcurve"/>
      <point x="115" y="877"/>
      <point x="203" y="707"/>
      <point x="338" y="597"/>
      <point x="510" y="545"/>
    </contour>
    <contour>
      <point x="629" y="1351" type="qcurve"/>
      <point x="666" y="1351"/>
      <point x="775" y="1322"/>
      <point x="886" y="1236"/>
      <point x="978" y="1080"/>
      <point x="1002" y="955" type="qcurve"/>
      <point x="972" y="824"/>
      <point x="758" y="676"/>
      <point x="629" y="676" type="qcurve"/>
      <point x="580" y="676"/>
      <point x="455" y="711"/>
      <point x="344" y="785"/>
      <point x="266" y="908"/>
      <point x="266" y="1000" type="qcurve"/>
      <point x="266" y="1037"/>
      <point x="308" y="1158"/>
      <point x="394" y="1271"/>
      <point x="531" y="1351"/>
    </contour>
  </outline>
</glyph>
<glyph name="colon" format="2">
  <advance width="487"/>
  <unicode hex="003A"/>
  <outline>
    <contour>
      <point x="248" y="777" type="qcurve"/>
      <point x="291" y="777"/>
      <point x="320" y="808" type="qcurve"/>
      <point x="348" y="838"/>
      <point x="348" y="882" type="qcurve"/>
      <point x="348" y="922"/>
      <point x="318" y="955" type="qcurve"/>
      <point x="289" y="986"/>
      <point x="248" y="986" type="qcurve"/>
      <point x="205" y="986"/>
      <point x="172" y="955" type="qcurve"/>
      <point x="139" y="922"/>
      <point x="139" y="882" type="qcurve"/>
      <point x="139" y="838"/>
      <point x="172" y="808" type="qcurve"/>
      <point x="205" y="777"/>
    </contour>
    <contour>
      <point x="248" y="-23" type="qcurve"/>
      <point x="291" y="-23"/>
      <point x="320" y="8" type="qcurve"/>
      <point x="348" y="41"/>
      <point x="348" y="84" type="qcurve"/>
      <point x="348" y="123"/>
      <point x="318" y="154" type="qcurve"/>
      <point x="289" y="184"/>
      <point x="248" y="184" type="qcurve"/>
      <point x="205" y="184"/>
      <point x="172" y="154" type="qcurve"/>
      <point x="139" y="123"/>
      <point x="139" y="84" type="qcurve"/>
      <point x="139" y="41"/>
      <point x="172" y="8" type="qcurve"/>
      <point x="205" y="-23"/>
    </contour>
  </outline>
</glyph>
<glyph name="semicolon" format="2">
  <advance width="508"/>
  <unicode hex="003B"/>
  <outline>
    <contour>
      <point x="151" y="-203" type="qcurve"/>
      <point x="222" y="-256" type="line"/>
      <point x="309" y="-148"/>
      <point x="339" y="-88" type="qcurve"/>
      <point x="370" y="-25"/>
      <point x="370" y="31" type="qcurve"/>
      <point x="370" y="98"/>
      <point x="337" y="141" type="qcurve"/>
      <point x="307" y="184"/>
      <point x="253" y="184" type="qcurve"/>
      <point x="208" y="184"/>
      <point x="177" y="154" type="qcurve"/>
      <point x="147" y="125"/>
      <point x="147" y="84" type="qcurve"/>
      <point x="147" y="41"/>
      <point x="177" y="8" type="qcurve"/>
      <point x="210" y="-23"/>
      <point x="253" y="-23" type="qcurve"/>
      <point x="229" y="-113"/>
    </contour>
    <contour>
      <point x="253" y="777" type="qcurve"/>
      <point x="296" y="777"/>
      <point x="327" y="808" type="qcurve"/>
      <point x="356" y="838"/>
      <point x="356" y="882" type="qcurve"/>
      <point x="356" y="922"/>
      <point x="325" y="955" type="qcurve"/>
      <point x="294" y="986"/>
      <point x="253" y="986" type="qcurve"/>
      <point x="208" y="986"/>
      <point x="177" y="955" type="qcurve"/>
      <point x="147" y="922"/>
      <point x="147" y="882" type="qcurve"/>
      <point x="147" y="838"/>
      <point x="177" y="808" type="qcurve"/>
      <point x="208" y="777"/>
    </contour>
  </outline>
</glyph>
<glyph name="less" format="2">
  <advance width="1128"/>
  <unicode hex="003C"/>
  <outline>
    <contour>
      <point x="104" y="605" type="line"/>
      <point x="983" y="170" type="line"/>
      <point x="983" y="305" type="line"/>
      <point x="249" y="664" type="line"/>
      <point x="983" y="1021" type="line"/>
      <point x="983" y="1154" type="line"/>
      <point x="104" y="720" type="line"/>
    </contour>
  </outline>
</glyph>
<glyph name="greater" format="2">
  <advance width="1128"/>
  <unicode hex="003E"/>
  <outline>
    <contour>
      <point x="145" y="305" type="line"/>
      <point x="145" y="170" type="line"/>
      <point x="1024" y="605" type="line"/>
      <point x="1024" y="720" type="line"/>
      <point x="145" y="1154" type="line"/>
      <point x="145" y="1021" type="line"/>
      <point x="878" y="664" type="line"/>
    </contour>
  </outline>
</glyph>
<glyph name="question" format="2">
  <advance width="1083"/>
  <unicode hex="003F"/>
  <outline>
    <contour>
      <point x="416" y="781" type="qcurve"/>
      <point x="416" y="390" type="line"/>
      <point x="566" y="390" type="line"/>
      <point x="566" y="668" type="line"/>
      <point x="695" y="695"/>
      <point x="791" y="758" type="qcurve"/>
      <point x="894" y="824"/>
      <point x="947" y="910" type="qcurve"/>
      <point x="1000" y="1000"/>
      <point x="998" y="1091" type="qcurve"/>
      <point x="1000" y="1201"/>
      <point x="943" y="1294" type="qcurve"/>
      <point x="886" y="1386"/>
      <point x="783" y="1437" type="qcurve"/>
      <point x="681" y="1488"/>
      <point x="545" y="1488" type="qcurve"/>
      <point x="254" y="1488"/>
      <point x="55" y="1238" type="qcurve"/>
      <point x="150" y="1144" type="line"/>
      <point x="168" y="1166"/>
      <point x="242" y="1236"/>
      <point x="340" y="1300"/>
      <point x="461" y="1349"/>
      <point x="535" y="1349" type="qcurve"/>
      <point x="676" y="1349"/>
      <point x="847" y="1210"/>
      <point x="847" y="1091" type="qcurve"/>
      <point x="847" y="970"/>
      <point x="597" y="781"/>
    </contour>
    <contour>
      <point x="492" y="0" type="qcurve"/>
      <point x="533" y="0"/>
      <point x="564" y="31" type="qcurve"/>
      <point x="594" y="62"/>
      <point x="592" y="105" type="qcurve"/>
      <point x="592" y="144"/>
      <point x="562" y="174" type="qcurve"/>
      <point x="533" y="205"/>
      <point x="492" y="205" type="qcurve"/>
      <point x="447" y="205"/>
      <point x="418" y="174" type="qcurve"/>
      <point x="387" y="144"/>
      <point x="387" y="105" type="qcurve"/>
      <point x="387" y="62"/>
      <point x="418" y="31" type="qcurve"/>
      <point x="447" y="0"/>
    </contour>
  </outline>
</glyph>
<glyph name="at" format="2">
  <advance width="1696"/>
  <unicode hex="0040"/>
  <outline>
    <contour>
      <point x="1107" y="193" type="qcurve"/>
      <point x="1175" y="127"/>
      <point x="1267" y="125" type="qcurve"/>
      <point x="1365" y="125"/>
      <point x="1449" y="182" type="qcurve"/>
      <point x="1536" y="240"/>
      <point x="1587" y="350" type="qcurve"/>
      <point x="1641" y="461"/>
      <point x="1641" y="615" type="qcurve"/>
      <point x="1641" y="808"/>
      <point x="1537" y="969" type="qcurve"/>
      <point x="1435" y="1133"/>
      <point x="1262" y="1232" type="qcurve"/>
      <point x="1088" y="1329"/>
      <point x="890" y="1327" type="qcurve"/>
      <point x="667" y="1328"/>
      <point x="475" y="1213" type="qcurve"/>
      <point x="285" y="1101"/>
      <point x="173" y="911" type="qcurve"/>
      <point x="61" y="720"/>
      <point x="61" y="498" type="qcurve"/>
      <point x="60" y="298"/>
      <point x="162" y="123" type="qcurve"/>
      <point x="269" y="-47"/>
      <point x="442" y="-147" type="qcurve"/>
      <point x="616" y="-249"/>
      <point x="822" y="-249" type="qcurve"/>
      <point x="957" y="-248"/>
      <point x="1068" y="-217" type="qcurve"/>
      <point x="1175" y="-186"/>
      <point x="1311" y="-100" type="qcurve"/>
      <point x="1251" y="-4" type="line"/>
      <point x="1128" y="-77"/>
      <point x="1031" y="-105" type="qcurve"/>
      <point x="943" y="-131"/>
      <point x="826" y="-131" type="qcurve"/>
      <point x="655" y="-130"/>
      <point x="506" y="-44" type="qcurve"/>
      <point x="358" y="49"/>
      <point x="272" y="189" type="qcurve"/>
      <point x="185" y="335"/>
      <point x="183" y="500" type="qcurve"/>
      <point x="186" y="692"/>
      <point x="280" y="853" type="qcurve"/>
      <point x="380" y="1017"/>
      <point x="538" y="1112" type="qcurve"/>
      <point x="701" y="1209"/>
      <point x="886" y="1207" type="qcurve"/>
      <point x="1060" y="1208"/>
      <point x="1204" y="1126" type="qcurve"/>
      <point x="1347" y="1046"/>
      <point x="1434" y="906" type="qcurve"/>
      <point x="1521" y="771"/>
      <point x="1519" y="615" type="qcurve"/>
      <point x="1519" y="493"/>
      <point x="1483" y="412" type="qcurve"/>
      <point x="1456" y="337"/>
      <point x="1405" y="302" type="qcurve"/>
      <point x="1353" y="267"/>
      <point x="1297" y="257" type="qcurve"/>
      <point x="1254" y="249"/>
      <point x="1215" y="279" type="qcurve"/>
      <point x="1179" y="310"/>
      <point x="1179" y="369" type="qcurve"/>
      <point x="1179" y="414"/>
      <point x="1248" y="763" type="qcurve"/>
      <point x="1248" y="765"/>
      <point x="1279" y="927" type="qcurve"/>
      <point x="1150" y="937" type="line"/>
      <point x="1125" y="810" type="line"/>
      <point x="1095" y="879"/>
      <point x="1025" y="922" type="qcurve"/>
      <point x="959" y="968"/>
      <point x="863" y="966" type="qcurve"/>
      <point x="750" y="968"/>
      <point x="646" y="900" type="qcurve"/>
      <point x="543" y="836"/>
      <point x="478" y="724" type="qcurve"/>
      <point x="412" y="615"/>
      <point x="412" y="484" type="qcurve"/>
      <point x="412" y="336"/>
      <point x="502" y="244" type="qcurve"/>
      <point x="592" y="152"/>
      <point x="732" y="150" type="qcurve"/>
      <point x="826" y="152"/>
      <point x="908" y="197" type="qcurve"/>
      <point x="988" y="240"/>
      <point x="1046" y="316" type="qcurve"/>
      <point x="1063" y="233"/>
    </contour>
    <contour>
      <point x="767" y="264" type="qcurve"/>
      <point x="668" y="262"/>
      <point x="609" y="328" type="qcurve"/>
      <point x="551" y="390"/>
      <point x="551" y="490" type="qcurve"/>
      <point x="554" y="586"/>
      <point x="599" y="670" type="qcurve"/>
      <point x="642" y="754"/>
      <point x="718" y="802" type="qcurve"/>
      <point x="793" y="853"/>
      <point x="877" y="853" type="qcurve"/>
      <point x="980" y="853"/>
      <point x="1033" y="797" type="qcurve"/>
      <point x="1086" y="742"/>
      <point x="1084" y="644" type="qcurve"/>
      <point x="1086" y="615"/>
      <point x="1082" y="601" type="qcurve"/>
      <point x="1068" y="453"/>
      <point x="984" y="359" type="qcurve"/>
      <point x="900" y="266"/>
    </contour>
  </outline>
</glyph>
<glyph name="B" format="2">
  <advance width="1313"/>
  <unicode hex="0042"/>
  <outline>
    <contour>
      <point x="180" y="1456" type="line"/>
      <point x="180" y="0" type="line"/>
      <point x="812" y="0" type="line"/>
      <point x="927" y="0"/>
      <point x="1017" y="51" type="qcurve"/>
      <point x="1107" y="102"/>
      <point x="1154" y="193" type="qcurve"/>
      <point x="1205" y="283"/>
      <point x="1205" y="400" type="qcurve"/>
      <point x="1205" y="521"/>
      <point x="1142" y="615" type="qcurve"/>
      <point x="1078" y="709"/>
      <point x="964" y="773" type="qcurve"/>
      <point x="1060" y="836"/>
      <point x="1107" y="908" type="qcurve"/>
      <point x="1154" y="988"/>
      <point x="1152" y="1093" type="qcurve"/>
      <point x="1152" y="1195"/>
      <point x="1107" y="1279" type="qcurve"/>
      <point x="1062" y="1363"/>
      <point x="978" y="1410" type="qcurve"/>
      <point x="896" y="1456"/>
      <point x="789" y="1456" type="qcurve"/>
    </contour>
    <contour>
      <point x="332" y="1318" type="line"/>
      <point x="750" y="1318" type="line"/>
      <point x="861" y="1320"/>
      <point x="931" y="1250" type="qcurve"/>
      <point x="1002" y="1183"/>
      <point x="1000" y="1074" type="qcurve"/>
      <point x="1000" y="970"/>
      <point x="929" y="902" type="qcurve"/>
      <point x="861" y="834"/>
      <point x="750" y="834" type="qcurve"/>
      <point x="332" y="834" type="line"/>
    </contour>
    <contour>
      <point x="332" y="695" type="line"/>
      <point x="773" y="695" type="line"/>
      <point x="898" y="697"/>
      <point x="976" y="615" type="qcurve"/>
      <point x="1056" y="537"/>
      <point x="1054" y="412" type="qcurve"/>
      <point x="1054" y="291"/>
      <point x="974" y="209" type="qcurve"/>
      <point x="898" y="131"/>
      <point x="773" y="131" type="qcurve"/>
      <point x="332" y="131" type="line"/>
    </contour>
  </outline>
</glyph>
<glyph name="F" format="2">
  <advance width="1174"/>
  <unicode hex="0046"/>
  <outline>
    <contour>
      <point x="303" y="1312" type="line"/>
      <point x="1103" y="1312" type="line"/>
      <point x="1103" y="1456" type="line"/>
      <point x="152" y="1456" type="line"/>
      <point x="152" y="0" type="line"/>
      <point x="303" y="0" type="line"/>
      <point x="303" y="734" type="line"/>
      <point x="1025" y="734" type="line"/>
      <point x="1025" y="877" type="line"/>
      <point x="303" y="877" type="line"/>
    </contour>
  </outline>
</glyph>
<glyph name="H" format="2">
  <advance width="1460"/>
  <unicode hex="0048"/>
  <outline>
    <contour>
      <point x="1310" y="1456" type="line"/>
      <point x="1160" y="1456" type="line"/>
      <point x="1160" y="820" type="line"/>
      <point x="301" y="820" type="line"/>
      <point x="301" y="1456" type="line"/>
      <point x="152" y="1456" type="line"/>
      <point x="152" y="0" type="line"/>
      <point x="301" y="0" type="line"/>
      <point x="301" y="676" type="line"/>
      <point x="1160" y="676" type="line"/>
      <point x="1160" y="0" type="line"/>
      <point x="1310" y="0" type="line"/>
    </contour>
  </outline>
</glyph>
<glyph name="J" format="2">
  <advance width="1040"/>
  <unicode hex="004A"/>
  <outline>
    <contour>
      <point x="457" y="-23" type="qcurve"/>
      <point x="580" y="-23"/>
      <point x="674" y="35" type="qcurve"/>
      <point x="771" y="92"/>
      <point x="824" y="197" type="qcurve"/>
      <point x="877" y="301"/>
      <point x="875" y="433" type="qcurve"/>
      <point x="875" y="1456" type="line"/>
      <point x="724" y="1456" type="line"/>
      <point x="724" y="433" type="line"/>
      <point x="726" y="291"/>
      <point x="650" y="203" type="qcurve"/>
      <point x="574" y="115"/>
      <point x="457" y="113" type="qcurve"/>
      <point x="369" y="115"/>
      <point x="283" y="168" type="qcurve"/>
      <point x="199" y="221"/>
      <point x="160" y="303" type="qcurve"/>
      <point x="51" y="197" type="line"/>
      <point x="111" y="102"/>
      <point x="226" y="39" type="qcurve"/>
      <point x="340" y="-23"/>
    </contour>
  </outline>
</glyph>
<glyph name="M" format="2">
  <advance width="1722"/>
  <unicode hex="004D"/>
  <outline>
    <contour>
      <point x="180" y="1456" type="line"/>
      <point x="180" y="0" type="line"/>
      <point x="332" y="0" type="line"/>
      <point x="332" y="1144" type="line"/>
      <point x="863" y="219" type="line"/>
      <point x="1392" y="1144" type="line"/>
      <point x="1392" y="0" type="line"/>
      <point x="1542" y="0" type="line"/>
      <point x="1542" y="1456" type="line"/>
      <point x="1382" y="1456" type="line"/>
      <point x="863" y="531" type="line"/>
      <point x="340" y="1456" type="line"/>
    </contour>
  </outline>
</glyph>
<glyph name="Q" format="2">
  <advance width="1683"/>
  <unicode hex="0051"/>
  <outline>
    <contour>
      <point x="845" y="1478" type="qcurve"/>
      <point x="648" y="1480"/>
      <point x="476" y="1376" type="qcurve"/>
      <point x="308" y="1273"/>
      <point x="203" y="1101" type="qcurve"/>
      <point x="98" y="931"/>
      <point x="98" y="728" type="qcurve"/>
      <point x="98" y="527"/>
      <point x="203" y="355" type="qcurve"/>
      <point x="308" y="184"/>
      <point x="478" y="80" type="qcurve"/>
      <point x="648" y="-23"/>
      <point x="845" y="-23" type="qcurve"/>
      <point x="1046" y="-20"/>
      <point x="1214" y="82" type="qcurve"/>
      <point x="1257" y="107"/>
      <point x="1294" y="135" type="qcurve"/>
      <point x="1453" y="-2" type="line"/>
      <point x="1550" y="109" type="line"/>
      <point x="1402" y="240" type="line"/>
      <point x="1447" y="295"/>
      <point x="1484" y="355" type="qcurve"/>
      <point x="1587" y="527"/>
      <point x="1585" y="728" type="qcurve"/>
      <point x="1587" y="933"/>
      <point x="1484" y="1103" type="qcurve"/>
      <point x="1382" y="1275"/>
      <point x="1212" y="1378" type="qcurve"/>
      <point x="1046" y="1480"/>
    </contour>
    <contour>
      <point x="845" y="1326" type="qcurve"/>
      <point x="1000" y="1328"/>
      <point x="1138" y="1244" type="qcurve"/>
      <point x="1275" y="1164"/>
      <point x="1353" y="1025" type="qcurve"/>
      <point x="1435" y="884"/>
      <point x="1433" y="728" type="qcurve"/>
      <point x="1435" y="574"/>
      <point x="1353" y="433" type="qcurve"/>
      <point x="1320" y="379"/>
      <point x="1287" y="338" type="qcurve"/>
      <point x="1078" y="519" type="line"/>
      <point x="984" y="408" type="line"/>
      <point x="1177" y="240" type="line"/>
      <point x="1160" y="226"/>
      <point x="1136" y="213" type="qcurve"/>
      <point x="998" y="127"/>
      <point x="845" y="129" type="qcurve"/>
      <point x="689" y="127"/>
      <point x="549" y="213" type="qcurve"/>
      <point x="414" y="295"/>
      <point x="332" y="433" type="qcurve"/>
      <point x="250" y="574"/>
      <point x="254" y="728" type="qcurve"/>
      <point x="254" y="886"/>
      <point x="334" y="1029" type="qcurve"/>
      <point x="377" y="1099"/>
      <point x="482" y="1203"/>
      <point x="551" y="1246" type="qcurve"/>
      <point x="691" y="1328"/>
    </contour>
  </outline>
</glyph>
<glyph name="W" format="2">
  <advance width="1888"/>
  <unicode hex="0057"/>
  <outline>
    <contour>
      <point x="0" y="1456" type="line"/>
      <point x="390" y="0" type="line"/>
      <point x="539" y="0" type="line"/>
      <point x="922" y="1220" type="line"/>
      <point x="1308" y="0" type="line"/>
      <point x="1460" y="0" type="line"/>
      <point x="1849" y="1456" type="line"/>
      <point x="1697" y="1456" type="line"/>
      <point x="1378" y="258" type="line"/>
      <point x="998" y="1456" type="line"/>
      <point x="851" y="1456" type="line"/>
      <point x="474" y="258" type="line"/>
      <point x="150" y="1456" type="line"/>
    </contour>
  </outline>
</glyph>
<glyph name="X" format="2">
  <advance width="1444"/>
  <unicode hex="0058"/>
  <outline>
    <contour>
      <point x="832" y="728" type="line"/>
      <point x="1371" y="1456" type="line"/>
      <point x="1189" y="1456" type="line"/>
      <point x="732" y="861" type="line"/>
      <point x="256" y="1456" type="line"/>
      <point x="74" y="1456" type="line"/>
      <point x="631" y="726" type="line"/>
      <point x="74" y="0" type="line"/>
      <point x="258" y="0" type="line"/>
      <point x="730" y="597" type="line"/>
      <point x="1187" y="0" type="line"/>
      <point x="1367" y="0" type="line"/>
    </contour>
  </outline>
</glyph>
<glyph name="Y" format="2">
  <advance width="1395"/>
  <unicode hex="0059"/>
  <outline>
    <contour>
      <point x="621" y="594" type="line"/>
      <point x="621" y="0" type="line"/>
      <point x="779" y="0" type="line"/>
      <point x="779" y="594" type="line"/>
      <point x="1361" y="1456" type="line"/>
      <point x="1181" y="1456" type="line"/>
      <point x="705" y="750" type="line"/>
      <point x="221" y="1456" type="line"/>
      <point x="35" y="1456" type="line"/>
    </contour>
  </outline>
</glyph>
<glyph name="bracketleft" format="2">
  <advance width="705"/>
  <unicode hex="005B"/>
  <outline>
    <contour>
      <point x="156" y="1570" type="line"/>
      <point x="156" y="-221" type="line"/>
      <point x="626" y="-221" type="line"/>
      <point x="626" y="-111" type="line"/>
      <point x="285" y="-111" type="line"/>
      <point x="285" y="1457" type="line"/>
      <point x="626" y="1457" type="line"/>
      <point x="626" y="1570" type="line"/>
    </contour>
  </outline>
</glyph>
<glyph name="backslash" format="2">
  <advance width="799"/>
  <unicode hex="005C"/>
  <outline>
    <contour>
      <point x="-10" y="1433" type="line"/>
      <point x="668" y="-141" type="line"/>
      <point x="832" y="-141" type="line"/>
      <point x="154" y="1433" type="line"/>
    </contour>
  </outline>
</glyph>
<glyph name="bracketright" format="2">
  <advance width="705"/>
  <unicode hex="005D"/>
  <outline>
    <contour>
      <point x="96" y="-111" type="line"/>
      <point x="96" y="-221" type="line"/>
      <point x="564" y="-221" type="line"/>
      <point x="564" y="1570" type="line"/>
      <point x="96" y="1570" type="line"/>
      <point x="96" y="1457" type="line"/>
      <point x="437" y="1457" type="line"/>
      <point x="437" y="-111" type="line"/>
    </contour>
  </outline>
</glyph>
<glyph name="underscore" format="2">
  <advance width="1141"/>
  <unicode hex="005F"/>
  <outline>
    <contour>
      <point x="-4" y="-144" type="line"/>
      <point x="-4" y="-275" type="line"/>
      <point x="1146" y="-275" type="line"/>
      <point x="1146" y="-144" type="line"/>
    </contour>
  </outline>
</glyph>
<glyph name="grave" format="2">
  <advance width="629"/>
  <unicode hex="0060"/>
  <unicode hex="0300"/>
  <outline>
    <contour>
      <point x="121" y="1353" type="line"/>
      <point x="396" y="1111" type="line"/>
      <point x="506" y="1111" type="line"/>
      <point x="275" y="1388" type="line"/>
    </contour>
  </outline>
</glyph>
<glyph name="f" format="2">
  <advance width="676"/>
  <unicode hex="0066"/>
  <outline>
    <contour>
      <point x="228" y="996" type="line"/>
      <point x="72" y="996" type="line"/>
      <point x="72" y="869" type="line"/>
      <point x="228" y="869" type="line"/>
      <point x="228" y="0" type="line"/>
      <point x="371" y="0" type="line"/>
      <point x="371" y="869" type="line"/>
      <point x="617" y="869" type="line"/>
      <point x="617" y="996" type="line"/>
      <point x="371" y="996" type="line"/>
      <point x="371" y="1226" type="line"/>
      <point x="373" y="1281"/>
      <point x="406" y="1314" type="qcurve"/>
      <point x="437" y="1349"/>
      <point x="545" y="1343"/>
      <point x="578" y="1324" type="qcurve"/>
      <point x="617" y="1451" type="line"/>
      <point x="549" y="1476"/>
      <point x="367" y="1482"/>
      <point x="293" y="1408" type="qcurve"/>
      <point x="226" y="1341"/>
      <point x="228" y="1226" type="qcurve"/>
    </contour>
  </outline>
</glyph>
<glyph name="j" format="2">
  <advance width="434"/>
  <unicode hex="006A"/>
  <outline>
    <contour>
      <point x="223" y="1179" type="qcurve"/>
      <point x="264" y="1177"/>
      <point x="293" y="1207" type="qcurve"/>
      <point x="322" y="1238"/>
      <point x="318" y="1273" type="qcurve"/>
      <point x="320" y="1312"/>
      <point x="291" y="1343" type="qcurve"/>
      <point x="262" y="1371"/>
      <point x="223" y="1369" type="qcurve"/>
      <point x="182" y="1369"/>
      <point x="154" y="1341" type="qcurve"/>
      <point x="125" y="1312"/>
      <point x="127" y="1273" type="qcurve"/>
      <point x="125" y="1238"/>
      <point x="156" y="1207" type="qcurve"/>
      <point x="184" y="1177"/>
    </contour>
    <contour>
      <point x="53" y="-402" type="qcurve"/>
      <point x="158" y="-402"/>
      <point x="228" y="-332" type="qcurve"/>
      <point x="297" y="-260"/>
      <point x="295" y="-150" type="qcurve"/>
      <point x="295" y="996" type="line"/>
      <point x="150" y="996" type="line"/>
      <point x="150" y="-150" type="line"/>
      <point x="150" y="-205"/>
      <point x="119" y="-238" type="qcurve"/>
      <point x="90" y="-273"/>
      <point x="43" y="-273" type="qcurve"/>
      <point x="14" y="-273"/>
      <point x="-23" y="-269" type="qcurve"/>
      <point x="-55" y="-260"/>
      <point x="-82" y="-252" type="qcurve"/>
      <point x="-102" y="-371" type="line"/>
      <point x="-72" y="-383"/>
      <point x="-31" y="-394" type="qcurve"/>
      <point x="14" y="-402"/>
    </contour>
  </outline>
</glyph>
<glyph name="k" format="2">
  <advance width="1026"/>
  <unicode hex="006B"/>
  <outline>
    <contour>
      <point x="141" y="1456" type="line"/>
      <point x="141" y="0" type="line"/>
      <point x="289" y="0" type="line"/>
      <point x="289" y="492" type="line"/>
      <point x="783" y="0" type="line"/>
      <point x="986" y="0" type="line"/>
      <point x="472" y="512" type="line"/>
      <point x="955" y="996" type="line"/>
      <point x="752" y="996" type="line"/>
      <point x="289" y="531" type="line"/>
      <point x="289" y="1456" type="line"/>
    </contour>
  </outline>
</glyph>
<glyph name="l" format="2">
  <advance width="438"/>
  <unicode hex="006C"/>
  <outline>
    <contour>
      <point x="145" y="1456" type="line"/>
      <point x="145" y="0" type="line"/>
      <point x="290" y="0" type="line"/>
      <point x="290" y="1456" type="line"/>
    </contour>
  </outline>
</glyph>
<glyph name="m" format="2">
  <advance width="1724"/>
  <unicode hex="006D"/>
  <outline>
    <contour>
      <point x="1225" y="1021" type="qcurve"/>
      <point x="1110" y="1021"/>
      <point x="1022" y="961" type="qcurve"/>
      <point x="934" y="906"/>
      <point x="901" y="808" type="qcurve"/>
      <point x="860" y="906"/>
      <point x="776" y="964" type="qcurve"/>
      <point x="692" y="1021"/>
      <point x="579" y="1021" type="qcurve"/>
      <point x="483" y="1021"/>
      <point x="405" y="974" type="qcurve"/>
      <point x="329" y="931"/>
      <point x="290" y="851" type="qcurve"/>
      <point x="290" y="996" type="line"/>
      <point x="145" y="996" type="line"/>
      <point x="145" y="0" type="line"/>
      <point x="290" y="0" type="line"/>
      <point x="290" y="636" type="line"/>
      <point x="290" y="748"/>
      <point x="366" y="820" type="qcurve"/>
      <point x="442" y="894"/>
      <point x="561" y="890" type="qcurve"/>
      <point x="661" y="892"/>
      <point x="725" y="814" type="qcurve"/>
      <point x="790" y="738"/>
      <point x="790" y="615" type="qcurve"/>
      <point x="790" y="0" type="line"/>
      <point x="934" y="0" type="line"/>
      <point x="934" y="636" type="line"/>
      <point x="934" y="748"/>
      <point x="1010" y="820" type="qcurve"/>
      <point x="1085" y="894"/>
      <point x="1204" y="890" type="qcurve"/>
      <point x="1307" y="892"/>
      <point x="1370" y="814" type="qcurve"/>
      <point x="1436" y="738"/>
      <point x="1434" y="615" type="qcurve"/>
      <point x="1434" y="0" type="line"/>
      <point x="1577" y="0" type="line"/>
      <point x="1577" y="636" type="line"/>
      <point x="1577" y="750"/>
      <point x="1532" y="836" type="qcurve"/>
      <point x="1487" y="925"/>
      <point x="1407" y="972" type="qcurve"/>
      <point x="1327" y="1023"/>
    </contour>
  </outline>
</glyph>
<glyph name="p" format="2">
  <advance width="1229"/>
  <unicode hex="0070"/>
  <outline>
    <contour>
      <point x="624" y="892" type="qcurve"/>
      <point x="719" y="890"/>
      <point x="799" y="840" type="qcurve"/>
      <point x="874" y="789"/>
      <point x="917" y="701" type="qcurve"/>
      <point x="958" y="611"/>
      <point x="958" y="498" type="qcurve"/>
      <point x="958" y="381"/>
      <point x="917" y="295" type="qcurve"/>
      <point x="874" y="205"/>
      <point x="796" y="156" type="qcurve"/>
      <point x="719" y="105"/>
      <point x="624" y="107" type="qcurve"/>
      <point x="528" y="105"/>
      <point x="452" y="156" type="qcurve"/>
      <point x="374" y="205"/>
      <point x="333" y="295" type="qcurve"/>
      <point x="290" y="381"/>
      <point x="290" y="498" type="qcurve"/>
      <point x="290" y="611"/>
      <point x="333" y="703" type="qcurve"/>
      <point x="374" y="791"/>
      <point x="452" y="840" type="qcurve"/>
      <point x="528" y="890"/>
    </contour>
    <contour>
      <point x="145" y="-379" type="line"/>
      <point x="290" y="-379" type="line"/>
      <point x="290" y="187" type="line"/>
      <point x="347" y="86"/>
      <point x="534" y="-25"/>
      <point x="651" y="-25" type="qcurve"/>
      <point x="780" y="-25"/>
      <point x="887" y="43" type="qcurve"/>
      <point x="989" y="109"/>
      <point x="1051" y="230" type="qcurve"/>
      <point x="1110" y="348"/>
      <point x="1112" y="498" type="qcurve"/>
      <point x="1110" y="644"/>
      <point x="1051" y="767" type="qcurve"/>
      <point x="989" y="886"/>
      <point x="885" y="953" type="qcurve"/>
      <point x="780" y="1021"/>
      <point x="651" y="1019" type="qcurve"/>
      <point x="532" y="1019"/>
      <point x="345" y="906"/>
      <point x="290" y="810" type="qcurve"/>
      <point x="290" y="996" type="line"/>
      <point x="145" y="996" type="line"/>
    </contour>
  </outline>
</glyph>
<glyph name="q" format="2">
  <advance width="1229"/>
  <unicode hex="0071"/>
  <outline>
    <contour>
      <point x="603" y="105" type="qcurve"/>
      <point x="508" y="107"/>
      <point x="428" y="156" type="qcurve"/>
      <point x="353" y="207"/>
      <point x="310" y="295" type="qcurve"/>
      <point x="269" y="385"/>
      <point x="269" y="498" type="qcurve"/>
      <point x="269" y="615"/>
      <point x="310" y="701" type="qcurve"/>
      <point x="353" y="791"/>
      <point x="430" y="840" type="qcurve"/>
      <point x="508" y="892"/>
      <point x="603" y="890" type="qcurve"/>
      <point x="699" y="892"/>
      <point x="775" y="840" type="qcurve"/>
      <point x="853" y="791"/>
      <point x="894" y="701" type="qcurve"/>
      <point x="937" y="615"/>
      <point x="937" y="498" type="qcurve"/>
      <point x="937" y="385"/>
      <point x="894" y="293" type="qcurve"/>
      <point x="853" y="205"/>
      <point x="775" y="156" type="qcurve"/>
      <point x="699" y="107"/>
    </contour>
    <contour>
      <point x="1082" y="996" type="line"/>
      <point x="937" y="996" type="line"/>
      <point x="937" y="810" type="line"/>
      <point x="879" y="910"/>
      <point x="693" y="1021"/>
      <point x="576" y="1021" type="qcurve"/>
      <point x="447" y="1021"/>
      <point x="340" y="953" type="qcurve"/>
      <point x="238" y="888"/>
      <point x="176" y="767" type="qcurve"/>
      <point x="117" y="648"/>
      <point x="115" y="498" type="qcurve"/>
      <point x="117" y="353"/>
      <point x="176" y="230" type="qcurve"/>
      <point x="238" y="111"/>
      <point x="342" y="43" type="qcurve"/>
      <point x="447" y="-25"/>
      <point x="576" y="-23" type="qcurve"/>
      <point x="695" y="-23"/>
      <point x="882" y="90"/>
      <point x="937" y="187" type="qcurve"/>
      <point x="937" y="-379" type="line"/>
      <point x="1082" y="-379" type="line"/>
    </contour>
  </outline>
</glyph>
<glyph name="r" format="2">
  <advance width="743"/>
  <unicode hex="0072"/>
  <outline>
    <contour>
      <point x="303" y="802" type="qcurve"/>
      <point x="303" y="996" type="line"/>
      <point x="160" y="996" type="line"/>
      <point x="160" y="0" type="line"/>
      <point x="303" y="0" type="line"/>
      <point x="303" y="558" type="line"/>
      <point x="303" y="654"/>
      <point x="355" y="730" type="qcurve"/>
      <point x="406" y="808"/>
      <point x="490" y="849" type="qcurve"/>
      <point x="578" y="890"/>
      <point x="689" y="890" type="qcurve"/>
      <point x="689" y="1021" type="line"/>
      <point x="554" y="1021"/>
      <point x="451" y="959" type="qcurve"/>
      <point x="348" y="902"/>
    </contour>
  </outline>
</glyph>
<glyph name="s" format="2">
  <advance width="983"/>
  <unicode hex="0073"/>
  <outline>
    <contour>
      <point x="850" y="869" type="line"/>
      <point x="774" y="943"/>
      <point x="618" y="1013"/>
      <point x="497" y="1021" type="qcurve"/>
      <point x="350" y="1021"/>
      <point x="140" y="857"/>
      <point x="140" y="746" type="qcurve"/>
      <point x="140" y="615"/>
      <point x="296" y="480"/>
      <point x="489" y="435" type="qcurve"/>
      <point x="735" y="390"/>
      <point x="735" y="275" type="qcurve"/>
      <point x="714" y="100"/>
      <point x="536" y="107" type="qcurve"/>
      <point x="331" y="105"/>
      <point x="208" y="252" type="qcurve"/>
      <point x="104" y="146" type="line"/>
      <point x="255" y="-23"/>
      <point x="536" y="-23" type="qcurve"/>
      <point x="858" y="-8"/>
      <point x="881" y="275" type="qcurve"/>
      <point x="881" y="402"/>
      <point x="719" y="519"/>
      <point x="528" y="566" type="qcurve"/>
      <point x="413" y="603"/>
      <point x="286" y="662"/>
      <point x="286" y="746" type="qcurve"/>
      <point x="302" y="884"/>
      <point x="481" y="890" type="qcurve"/>
      <point x="635" y="884"/>
      <point x="747" y="765" type="qcurve"/>
    </contour>
  </outline>
</glyph>
<glyph name="u" format="2">
  <advance width="1141"/>
  <unicode hex="0075"/>
  <outline>
    <contour>
      <point x="515" y="-25" type="qcurve"/>
      <point x="619" y="-25"/>
      <point x="709" y="29" type="qcurve"/>
      <point x="800" y="80"/>
      <point x="843" y="160" type="qcurve"/>
      <point x="843" y="0" type="line"/>
      <point x="988" y="0" type="line"/>
      <point x="988" y="996" type="line"/>
      <point x="843" y="996" type="line"/>
      <point x="843" y="361" type="line"/>
      <point x="843" y="291"/>
      <point x="802" y="236" type="qcurve"/>
      <point x="758" y="172"/>
      <point x="687" y="139" type="qcurve"/>
      <point x="615" y="107"/>
      <point x="533" y="107" type="qcurve"/>
      <point x="422" y="105"/>
      <point x="355" y="182" type="qcurve"/>
      <point x="285" y="258"/>
      <point x="285" y="381" type="qcurve"/>
      <point x="285" y="996" type="line"/>
      <point x="141" y="996" type="line"/>
      <point x="141" y="361" type="line"/>
      <point x="139" y="246"/>
      <point x="189" y="160" type="qcurve"/>
      <point x="234" y="72"/>
      <point x="322" y="25" type="qcurve"/>
      <point x="406" y="-27"/>
    </contour>
  </outline>
</glyph>
<glyph name="w" format="2">
  <advance width="1606"/>
  <unicode hex="0077"/>
  <outline>
    <contour>
      <point x="68" y="996" type="line"/>
      <point x="402" y="0" type="line"/>
      <point x="537" y="0" type="line"/>
      <point x="806" y="797" type="line"/>
      <point x="1070" y="0" type="line"/>
      <point x="1207" y="0" type="line"/>
      <point x="1542" y="996" type="line"/>
      <point x="1388" y="996" type="line"/>
      <point x="1140" y="193" type="line"/>
      <point x="869" y="996" type="line"/>
      <point x="742" y="996" type="line"/>
      <point x="472" y="193" type="line"/>
      <point x="221" y="996" type="line"/>
    </contour>
  </outline>
</glyph>
<glyph name="y" format="2">
  <advance width="1143"/>
  <unicode hex="0079"/>
  <outline>
    <contour>
      <point x="351" y="-379" type="line"/>
      <point x="492" y="-379" type="line"/>
      <point x="1054" y="996" type="line"/>
      <point x="896" y="996" type="line"/>
      <point x="570" y="172" type="line"/>
      <point x="217" y="996" type="line"/>
      <point x="57" y="996" type="line"/>
      <point x="498" y="0" type="line"/>
    </contour>
  </outline>
</glyph>
<glyph name="z" format="2">
  <advance width="991"/>
  <unicode hex="007A"/>
  <outline>
    <contour>
      <point x="102" y="113" type="line"/>
      <point x="102" y="0" type="line"/>
      <point x="890" y="0" type="line"/>
      <point x="890" y="135" type="line"/>
      <point x="295" y="135" type="line"/>
      <point x="886" y="882" type="line"/>
      <point x="886" y="996" type="line"/>
      <point x="115" y="996" type="line"/>
      <point x="115" y="861" type="line"/>
      <point x="691" y="861" type="line"/>
    </contour>
  </outline>
</glyph>
<glyph name="braceleft" format="2">
  <advance width="758"/>
  <unicode hex="007B"/>
  <outline>
    <contour>
      <point x="254" y="578" type="qcurve"/>
      <point x="328" y="609"/>
      <point x="365" y="658" type="qcurve"/>
      <point x="398" y="713"/>
      <point x="400" y="797" type="qcurve"/>
      <point x="398" y="1142" type="line"/>
      <point x="398" y="1222"/>
      <point x="418" y="1263" type="qcurve"/>
      <point x="441" y="1306"/>
      <point x="496" y="1330" type="qcurve"/>
      <point x="554" y="1357"/>
      <point x="672" y="1374" type="qcurve"/>
      <point x="660" y="1476" type="line"/>
      <point x="512" y="1460"/>
      <point x="426" y="1421" type="qcurve"/>
      <point x="340" y="1386"/>
      <point x="305" y="1318" type="qcurve"/>
      <point x="273" y="1255"/>
      <point x="273" y="1150" type="qcurve"/>
      <point x="273" y="814" type="line"/>
      <point x="273" y="718"/>
      <point x="228" y="672" type="qcurve"/>
      <point x="187" y="631"/>
      <point x="84" y="631" type="qcurve"/>
      <point x="84" y="525" type="line"/>
      <point x="187" y="525"/>
      <point x="228" y="484" type="qcurve"/>
      <point x="273" y="439"/>
      <point x="273" y="342" type="qcurve"/>
      <point x="273" y="6" type="line"/>
      <point x="273" y="-98"/>
      <point x="305" y="-162" type="qcurve"/>
      <point x="340" y="-230"/>
      <point x="426" y="-264" type="qcurve"/>
      <point x="512" y="-303"/>
      <point x="660" y="-320" type="qcurve"/>
      <point x="672" y="-215" type="line"/>
      <point x="554" y="-201"/>
      <point x="496" y="-174" type="qcurve"/>
      <point x="441" y="-150"/>
      <point x="418" y="-107" type="qcurve"/>
      <point x="398" y="-66"/>
      <point x="398" y="14" type="qcurve"/>
      <point x="400" y="359" type="line"/>
      <point x="398" y="443"/>
      <point x="365" y="498" type="qcurve"/>
      <point x="332" y="549"/>
    </contour>
  </outline>
</glyph>
<glyph name="bar" format="2">
  <advance width="535"/>
  <unicode hex="007C"/>
  <outline>
    <contour>
      <point x="211" y="1433" type="line"/>
      <point x="211" y="-141" type="line"/>
      <point x="326" y="-141" type="line"/>
      <point x="326" y="1433" type="line"/>
    </contour>
  </outline>
</glyph>
<glyph name="braceright" format="2">
  <advance width="758"/>
  <unicode hex="007D"/>
  <outline>
    <contour>
      <point x="504" y="578" type="qcurve"/>
      <point x="430" y="547"/>
      <point x="394" y="498" type="qcurve"/>
      <point x="361" y="443"/>
      <point x="359" y="359" type="qcurve"/>
      <point x="361" y="14" type="line"/>
      <point x="361" y="-66"/>
      <point x="340" y="-107" type="qcurve"/>
      <point x="318" y="-150"/>
      <point x="262" y="-174" type="qcurve"/>
      <point x="205" y="-201"/>
      <point x="86" y="-217" type="qcurve"/>
      <point x="98" y="-320" type="line"/>
      <point x="246" y="-303"/>
      <point x="332" y="-264" type="qcurve"/>
      <point x="418" y="-230"/>
      <point x="453" y="-162" type="qcurve"/>
      <point x="486" y="-98"/>
      <point x="486" y="6" type="qcurve"/>
      <point x="486" y="342" type="line"/>
      <point x="486" y="439"/>
      <point x="531" y="484" type="qcurve"/>
      <point x="572" y="525"/>
      <point x="674" y="525" type="qcurve"/>
      <point x="674" y="631" type="line"/>
      <point x="572" y="631"/>
      <point x="531" y="672" type="qcurve"/>
      <point x="486" y="718"/>
      <point x="486" y="814" type="qcurve"/>
      <point x="486" y="1150" type="line"/>
      <point x="486" y="1255"/>
      <point x="453" y="1318" type="qcurve"/>
      <point x="418" y="1386"/>
      <point x="332" y="1421" type="qcurve"/>
      <point x="246" y="1460"/>
      <point x="98" y="1476" type="qcurve"/>
      <point x="86" y="1371" type="line"/>
      <point x="205" y="1357"/>
      <point x="262" y="1330" type="qcurve"/>
      <point x="318" y="1306"/>
      <point x="340" y="1263" type="qcurve"/>
      <point x="361" y="1222"/>
      <point x="361" y="1142" type="qcurve"/>
      <point x="359" y="797" type="line"/>
      <point x="361" y="713"/>
      <point x="394" y="658" type="qcurve"/>
      <point x="426" y="607"/>
    </contour>
  </outline>
</glyph>
<glyph name="asciitilde" format="2">
  <advance width="858"/>
  <unicode hex="007E"/>
  <outline>
    <contour>
      <point x="554" y="578" type="qcurve"/>
      <point x="707" y="578"/>
      <point x="738" y="808" type="qcurve"/>
      <point x="650" y="822" type="line"/>
      <point x="640" y="752"/>
      <point x="615" y="722" type="qcurve"/>
      <point x="592" y="689"/>
      <point x="554" y="689" type="qcurve"/>
      <point x="529" y="689"/>
      <point x="506" y="703" type="qcurve"/>
      <point x="486" y="718"/>
      <point x="453" y="746" type="qcurve"/>
      <point x="406" y="783"/>
      <point x="373" y="800" type="qcurve"/>
      <point x="344" y="818"/>
      <point x="303" y="818" type="qcurve"/>
      <point x="152" y="818"/>
      <point x="119" y="588" type="qcurve"/>
      <point x="209" y="574" type="line"/>
      <point x="221" y="644"/>
      <point x="244" y="674" type="qcurve"/>
      <point x="266" y="705"/>
      <point x="303" y="705" type="qcurve"/>
      <point x="332" y="705"/>
      <point x="351" y="691" type="qcurve"/>
      <point x="375" y="681"/>
      <point x="406" y="650" type="qcurve"/>
      <point x="455" y="615"/>
      <point x="484" y="597" type="qcurve"/>
      <point x="512" y="578"/>
    </contour>
  </outline>
</glyph>
<glyph name="exclamdown" format="2">
  <advance width="524"/>
  <unicode hex="00A1"/>
  <outline>
    <contour>
      <point x="260" y="1021" type="qcurve"/>
      <point x="217" y="1021"/>
      <point x="187" y="990" type="qcurve"/>
      <point x="156" y="959"/>
      <point x="158" y="914" type="qcurve"/>
      <point x="158" y="873"/>
      <point x="189" y="843" type="qcurve"/>
      <point x="219" y="812"/>
      <point x="260" y="812" type="qcurve"/>
      <point x="303" y="812"/>
      <point x="334" y="843" type="qcurve"/>
      <point x="365" y="873"/>
      <point x="367" y="914" type="qcurve"/>
      <point x="365" y="959"/>
      <point x="334" y="990" type="qcurve"/>
      <point x="303" y="1021"/>
    </contour>
    <contour>
      <point x="346" y="-328" type="line"/>
      <point x="310" y="625" type="line"/>
      <point x="209" y="625" type="line"/>
      <point x="170" y="-328" type="line"/>
    </contour>
  </outline>
</glyph>
<glyph name="cent" format="2">
  <advance width="1044"/>
  <unicode hex="00A2"/>
  <outline>
    <contour>
      <point x="970" y="129" type="qcurve"/>
      <point x="937" y="160"/>
      <point x="900" y="197"/>
      <point x="869" y="228" type="qcurve"/>
      <point x="783" y="133"/>
      <point x="660" y="109" type="qcurve"/>
      <point x="660" y="886" type="line"/>
      <point x="781" y="869"/>
      <point x="865" y="775" type="qcurve"/>
      <point x="964" y="873" type="line"/>
      <point x="902" y="935"/>
      <point x="824" y="972" type="qcurve"/>
      <point x="746" y="1013"/>
      <point x="660" y="1019" type="qcurve"/>
      <point x="660" y="1136" type="line"/>
      <point x="508" y="1136" type="line"/>
      <point x="508" y="1011" type="line"/>
      <point x="394" y="988"/>
      <point x="295" y="912" type="qcurve"/>
      <point x="201" y="836"/>
      <point x="146" y="728" type="qcurve"/>
      <point x="92" y="619"/>
      <point x="94" y="498" type="qcurve"/>
      <point x="94" y="377"/>
      <point x="148" y="269" type="qcurve"/>
      <point x="205" y="160"/>
      <point x="297" y="86" type="qcurve"/>
      <point x="394" y="12"/>
      <point x="508" y="-14" type="qcurve"/>
      <point x="508" y="-141" type="line"/>
      <point x="660" y="-141" type="line"/>
      <point x="660" y="-20" type="line"/>
      <point x="750" y="-8"/>
      <point x="828" y="27" type="qcurve"/>
      <point x="906" y="66"/>
    </contour>
    <contour>
      <point x="246" y="498" type="qcurve"/>
      <point x="244" y="629"/>
      <point x="320" y="734" type="qcurve"/>
      <point x="396" y="840"/>
      <point x="508" y="875" type="qcurve"/>
      <point x="508" y="121" type="line"/>
      <point x="396" y="160"/>
      <point x="320" y="264" type="qcurve"/>
      <point x="244" y="369"/>
    </contour>
  </outline>
</glyph>
<glyph name="yen" format="2">
  <advance width="1395"/>
  <unicode hex="00A5"/>
  <outline>
    <contour>
      <point x="843" y="690" type="line"/>
      <point x="1364" y="1456" type="line"/>
      <point x="1181" y="1456" type="line"/>
      <point x="699" y="734" type="line"/>
      <point x="219" y="1456" type="line"/>
      <point x="33" y="1456" type="line"/>
      <point x="554" y="690" type="line"/>
      <point x="177" y="690" type="line"/>
      <point x="177" y="559" type="line"/>
      <point x="618" y="559" type="line"/>
      <point x="618" y="374" type="line"/>
      <point x="177" y="374" type="line"/>
      <point x="177" y="245" type="line"/>
      <point x="618" y="245" type="line"/>
      <point x="618" y="0" type="line"/>
      <point x="778" y="0" type="line"/>
      <point x="778" y="245" type="line"/>
      <point x="1221" y="245" type="line"/>
      <point x="1221" y="374" type="line"/>
      <point x="778" y="374" type="line"/>
      <point x="778" y="559" type="line"/>
      <point x="1221" y="559" type="line"/>
      <point x="1221" y="690" type="line"/>
    </contour>
  </outline>
</glyph>
<glyph name="guillemotleft" format="2">
  <advance width="1006"/>
  <unicode hex="00AB"/>
  <outline>
    <contour>
      <point x="86" y="484" type="line"/>
      <point x="396" y="98" type="line"/>
      <point x="525" y="133" type="line"/>
      <point x="242" y="486" type="line"/>
      <point x="525" y="834" type="line"/>
      <point x="396" y="865" type="line"/>
    </contour>
    <contour>
      <point x="467" y="484" type="line"/>
      <point x="777" y="98" type="line"/>
      <point x="906" y="133" type="line"/>
      <point x="623" y="486" type="line"/>
      <point x="906" y="834" type="line"/>
      <point x="777" y="865" type="line"/>
    </contour>
  </outline>
</glyph>
<glyph name="macron" format="2">
  <advance width="840"/>
  <unicode hex="00AF"/>
  <outline>
    <contour>
      <point x="121" y="1253" type="line"/>
      <point x="121" y="1146" type="line"/>
      <point x="720" y="1146" type="line"/>
      <point x="720" y="1253" type="line"/>
    </contour>
  </outline>
</glyph>
<glyph name="paragraph" format="2">
  <advance width="1276"/>
  <unicode hex="00B6"/>
  <outline>
    <contour>
      <point x="566" y="637" type="qcurve"/>
      <point x="566" y="-109" type="line"/>
      <point x="685" y="-109" type="line"/>
      <point x="685" y="1350" type="line"/>
      <point x="950" y="1350" type="line"/>
      <point x="950" y="-109" type="line"/>
      <point x="1066" y="-109" type="line"/>
      <point x="1066" y="1456" type="line"/>
      <point x="528" y="1456" type="line"/>
      <point x="396" y="1456"/>
      <point x="293" y="1402" type="qcurve"/>
      <point x="190" y="1353"/>
      <point x="130" y="1258" type="qcurve"/>
      <point x="72" y="1166"/>
      <point x="72" y="1045" type="qcurve"/>
      <point x="72" y="924"/>
      <point x="132" y="834" type="qcurve"/>
      <point x="195" y="741"/>
      <point x="304" y="688" type="qcurve"/>
      <point x="415" y="639"/>
    </contour>
  </outline>
</glyph>
<glyph name="cedilla" format="2">
  <advance width="602"/>
  <unicode hex="00B8"/>
  <unicode hex="0327"/>
  <outline>
    <contour>
      <point x="346" y="-88" type="qcurve"/>
      <point x="334" y="-86"/>
      <point x="326" y="-90" type="qcurve"/>
      <point x="371" y="20" type="line"/>
      <point x="273" y="20" type="line"/>
      <point x="209" y="-129" type="line"/>
      <point x="240" y="-162" type="line"/>
      <point x="269" y="-139"/>
      <point x="303" y="-139" type="qcurve"/>
      <point x="340" y="-139"/>
      <point x="361" y="-160" type="qcurve"/>
      <point x="381" y="-176"/>
      <point x="379" y="-207" type="qcurve"/>
      <point x="381" y="-238"/>
      <point x="353" y="-260" type="qcurve"/>
      <point x="326" y="-281"/>
      <point x="285" y="-281" type="qcurve"/>
      <point x="215" y="-279"/>
      <point x="158" y="-236" type="qcurve"/>
      <point x="121" y="-316" type="line"/>
      <point x="152" y="-338"/>
      <point x="199" y="-355" type="qcurve"/>
      <point x="246" y="-369"/>
      <point x="291" y="-369" type="qcurve"/>
      <point x="373" y="-369"/>
      <point x="426" y="-326" type="qcurve"/>
      <point x="482" y="-283"/>
      <point x="482" y="-213" type="qcurve"/>
      <point x="484" y="-156"/>
      <point x="443" y="-121" type="qcurve"/>
      <point x="406" y="-86"/>
    </contour>
  </outline>
</glyph>
<glyph name="questiondown" format="2">
  <advance width="977"/>
  <unicode hex="00BF"/>
  <outline>
    <contour>
      <point x="545" y="1021" type="qcurve"/>
      <point x="504" y="1021"/>
      <point x="474" y="990" type="qcurve"/>
      <point x="443" y="959"/>
      <point x="445" y="914" type="qcurve"/>
      <point x="445" y="873"/>
      <point x="476" y="843" type="qcurve"/>
      <point x="504" y="812"/>
      <point x="545" y="812" type="qcurve"/>
      <point x="590" y="812"/>
      <point x="621" y="843" type="qcurve"/>
      <point x="652" y="873"/>
      <point x="652" y="914" type="qcurve"/>
      <point x="652" y="959"/>
      <point x="621" y="990" type="qcurve"/>
      <point x="590" y="1021"/>
    </contour>
    <contour>
      <point x="623" y="264" type="qcurve"/>
      <point x="623" y="625" type="line"/>
      <point x="472" y="625" type="line"/>
      <point x="472" y="377" type="line"/>
      <point x="361" y="353"/>
      <point x="271" y="295" type="qcurve"/>
      <point x="184" y="242"/>
      <point x="133" y="164" type="qcurve"/>
      <point x="86" y="86"/>
      <point x="86" y="2" type="qcurve"/>
      <point x="86" y="-94"/>
      <point x="135" y="-176" type="qcurve"/>
      <point x="189" y="-258"/>
      <point x="279" y="-303" type="qcurve"/>
      <point x="369" y="-348"/>
      <point x="488" y="-351" type="qcurve"/>
      <point x="750" y="-348"/>
      <point x="925" y="-129" type="qcurve"/>
      <point x="828" y="-31" type="line"/>
      <point x="758" y="-117"/>
      <point x="676" y="-166" type="qcurve"/>
      <point x="599" y="-213"/>
      <point x="496" y="-213" type="qcurve"/>
      <point x="420" y="-213"/>
      <point x="361" y="-180" type="qcurve"/>
      <point x="303" y="-150"/>
      <point x="269" y="-98" type="qcurve"/>
      <point x="238" y="-41"/>
      <point x="238" y="16" type="qcurve"/>
      <point x="238" y="80"/>
      <point x="289" y="131" type="qcurve"/>
      <point x="340" y="187"/>
      <point x="424" y="219" type="qcurve"/>
      <point x="512" y="254"/>
    </contour>
  </outline>
</glyph>
<glyph name="Adieresis" format="2">
  <advance width="1352"/>
  <unicode hex="00C4"/>
  <outline>
    <contour>
      <point x="596" y="1456" type="line"/>
      <point x="63" y="0" type="line"/>
      <point x="225" y="0" type="line"/>
      <point x="378" y="418" type="line"/>
      <point x="977" y="418" type="line"/>
      <point x="1127" y="0" type="line"/>
      <point x="1288" y="0" type="line"/>
      <point x="760" y="1456" type="line"/>
    </contour>
    <contour>
      <point x="678" y="1234" type="line"/>
      <point x="926" y="558" type="line"/>
      <point x="429" y="558" type="line"/>
    </contour>
    <contour>
      <point x="487" y="1736" type="qcurve"/>
      <point x="450" y="1736"/>
      <point x="399" y="1683"/>
      <point x="399" y="1646" type="qcurve"/>
      <point x="399" y="1609"/>
      <point x="450" y="1558"/>
      <point x="487" y="1558" type="qcurve"/>
      <point x="524" y="1558"/>
      <point x="577" y="1609"/>
      <point x="577" y="1646" type="qcurve"/>
      <point x="577" y="1683"/>
      <point x="524" y="1736"/>
    </contour>
    <contour>
      <point x="858" y="1736" type="qcurve"/>
      <point x="821" y="1736"/>
      <point x="772" y="1683"/>
      <point x="772" y="1648" type="qcurve"/>
      <point x="772" y="1611"/>
      <point x="821" y="1558"/>
      <point x="858" y="1558" type="qcurve"/>
      <point x="895" y="1558"/>
      <point x="948" y="1611"/>
      <point x="948" y="1648" type="qcurve"/>
      <point x="948" y="1683"/>
      <point x="895" y="1736"/>
    </contour>
  </outline>
</glyph>
<glyph name="Aring" format="2">
  <advance width="1352"/>
  <unicode hex="00C5"/>
  <outline>
    <contour>
      <point x="596" y="1456" type="line"/>
      <point x="63" y="0" type="line"/>
      <point x="225" y="0" type="line"/>
      <point x="378" y="418" type="line"/>
      <point x="977" y="418" type="line"/>
      <point x="1127" y="0" type="line"/>
      <point x="1288" y="0" type="line"/>
      <point x="760" y="1456" type="line"/>
    </contour>
    <contour>
      <point x="678" y="1234" type="line"/>
      <point x="926" y="558" type="line"/>
      <point x="429" y="558" type="line"/>
    </contour>
    <contour>
      <point x="673" y="1558" type="qcurve"/>
      <point x="760" y="1558"/>
      <point x="815" y="1615" type="qcurve"/>
      <point x="872" y="1673"/>
      <point x="872" y="1757" type="qcurve"/>
      <point x="872" y="1841"/>
      <point x="815" y="1896" type="qcurve"/>
      <point x="760" y="1956"/>
      <point x="673" y="1956" type="qcurve"/>
      <point x="591" y="1956"/>
      <point x="532" y="1896" type="qcurve"/>
      <point x="475" y="1841"/>
      <point x="475" y="1757" type="qcurve"/>
      <point x="475" y="1673"/>
      <point x="532" y="1615" type="qcurve"/>
      <point x="591" y="1558"/>
    </contour>
    <contour>
      <point x="673" y="1644" type="qcurve"/>
      <point x="628" y="1644"/>
      <point x="593" y="1677" type="qcurve"/>
      <point x="561" y="1710"/>
      <point x="561" y="1757" type="qcurve"/>
      <point x="563" y="1804"/>
      <point x="596" y="1839" type="qcurve"/>
      <point x="628" y="1870"/>
      <point x="673" y="1870" type="qcurve"/>
      <point x="721" y="1870"/>
      <point x="755" y="1837" type="qcurve"/>
      <point x="788" y="1804"/>
      <point x="788" y="1757" type="qcurve"/>
      <point x="788" y="1710"/>
      <point x="753" y="1677" type="qcurve"/>
      <point x="719" y="1644"/>
    </contour>
  </outline>
</glyph>
<glyph name="Ccedilla" format="2">
  <advance width="1421"/>
  <unicode hex="00C7"/>
  <outline>
    <contour>
      <point x="845" y="1478" type="qcurve"/>
      <point x="648" y="1480"/>
      <point x="476" y="1376" type="qcurve"/>
      <point x="308" y="1273"/>
      <point x="203" y="1101" type="qcurve"/>
      <point x="98" y="931"/>
      <point x="98" y="728" type="qcurve"/>
      <point x="98" y="527"/>
      <point x="203" y="355" type="qcurve"/>
      <point x="305" y="184"/>
      <point x="478" y="80" type="qcurve"/>
      <point x="648" y="-23"/>
      <point x="845" y="-23" type="qcurve"/>
      <point x="1046" y="-20"/>
      <point x="1214" y="82" type="qcurve"/>
      <point x="1300" y="135"/>
      <point x="1365" y="201" type="qcurve"/>
      <point x="1259" y="308" type="line"/>
      <point x="1205" y="254"/>
      <point x="1136" y="213" type="qcurve"/>
      <point x="998" y="127"/>
      <point x="845" y="129" type="qcurve"/>
      <point x="689" y="127"/>
      <point x="549" y="213" type="qcurve"/>
      <point x="480" y="256"/>
      <point x="375" y="363"/>
      <point x="332" y="433" type="qcurve"/>
      <point x="250" y="574"/>
      <point x="254" y="728" type="qcurve"/>
      <point x="254" y="886"/>
      <point x="334" y="1029" type="qcurve"/>
      <point x="375" y="1101"/>
      <point x="482" y="1203"/>
      <point x="551" y="1246" type="qcurve"/>
      <point x="691" y="1328"/>
      <point x="845" y="1326" type="qcurve"/>
      <point x="1000" y="1328"/>
      <point x="1138" y="1244" type="qcurve"/>
      <point x="1205" y="1201"/>
      <point x="1261" y="1148" type="qcurve"/>
      <point x="1367" y="1255" type="line"/>
      <point x="1298" y="1324"/>
      <point x="1212" y="1378" type="qcurve"/>
      <point x="1046" y="1480"/>
    </contour>
    <contour>
      <point x="779" y="-234" type="qcurve"/>
      <point x="767" y="-232"/>
      <point x="758" y="-236" type="qcurve"/>
      <point x="804" y="-125" type="line"/>
      <point x="705" y="-125" type="line"/>
      <point x="642" y="-275" type="line"/>
      <point x="672" y="-308" type="line"/>
      <point x="701" y="-285"/>
      <point x="736" y="-285" type="qcurve"/>
      <point x="773" y="-285"/>
      <point x="793" y="-305" type="qcurve"/>
      <point x="814" y="-322"/>
      <point x="812" y="-353" type="qcurve"/>
      <point x="814" y="-383"/>
      <point x="785" y="-406" type="qcurve"/>
      <point x="758" y="-426"/>
      <point x="718" y="-426" type="qcurve"/>
      <point x="648" y="-424"/>
      <point x="590" y="-381" type="qcurve"/>
      <point x="554" y="-461" type="line"/>
      <point x="584" y="-484"/>
      <point x="631" y="-500" type="qcurve"/>
      <point x="679" y="-515"/>
      <point x="724" y="-515" type="qcurve"/>
      <point x="806" y="-515"/>
      <point x="859" y="-472" type="qcurve"/>
      <point x="914" y="-428"/>
      <point x="914" y="-359" type="qcurve"/>
      <point x="916" y="-301"/>
      <point x="875" y="-266" type="qcurve"/>
      <point x="838" y="-232"/>
    </contour>
  </outline>
</glyph>
<glyph name="Egrave" format="2">
  <advance width="1208"/>
  <unicode hex="00C8"/>
  <outline>
    <contour>
      <point x="303" y="1312" type="line"/>
      <point x="1103" y="1312" type="line"/>
      <point x="1103" y="1456" type="line"/>
      <point x="152" y="1456" type="line"/>
      <point x="152" y="0" type="line"/>
      <point x="1103" y="0" type="line"/>
      <point x="1103" y="141" type="line"/>
      <point x="303" y="141" type="line"/>
      <point x="303" y="670" type="line"/>
      <point x="1025" y="670" type="line"/>
      <point x="1025" y="812" type="line"/>
      <point x="303" y="812" type="line"/>
    </contour>
    <contour>
      <point x="435" y="1800" type="line"/>
      <point x="709" y="1558" type="line"/>
      <point x="820" y="1558" type="line"/>
      <point x="588" y="1835" type="line"/>
    </contour>
  </outline>
</glyph>
<glyph name="Edieresis" format="2">
  <advance width="1208"/>
  <unicode hex="00CB"/>
  <outline>
    <contour>
      <point x="303" y="1312" type="line"/>
      <point x="1103" y="1312" type="line"/>
      <point x="1103" y="1456" type="line"/>
      <point x="152" y="1456" type="line"/>
      <point x="152" y="0" type="line"/>
      <point x="1103" y="0" type="line"/>
      <point x="1103" y="141" type="line"/>
      <point x="303" y="141" type="line"/>
      <point x="303" y="670" type="line"/>
      <point x="1025" y="670" type="line"/>
      <point x="1025" y="812" type="line"/>
      <point x="303" y="812" type="line"/>
    </contour>
    <contour>
      <point x="441" y="1736" type="qcurve"/>
      <point x="404" y="1736"/>
      <point x="353" y="1683"/>
      <point x="353" y="1646" type="qcurve"/>
      <point x="353" y="1609"/>
      <point x="404" y="1558"/>
      <point x="441" y="1558" type="qcurve"/>
      <point x="478" y="1558"/>
      <point x="531" y="1609"/>
      <point x="531" y="1646" type="qcurve"/>
      <point x="531" y="1683"/>
      <point x="478" y="1736"/>
    </contour>
    <contour>
      <point x="812" y="1736" type="qcurve"/>
      <point x="775" y="1736"/>
      <point x="726" y="1683"/>
      <point x="726" y="1648" type="qcurve"/>
      <point x="726" y="1611"/>
      <point x="775" y="1558"/>
      <point x="812" y="1558" type="qcurve"/>
      <point x="849" y="1558"/>
      <point x="902" y="1611"/>
      <point x="902" y="1648" type="qcurve"/>
      <point x="902" y="1683"/>
      <point x="849" y="1736"/>
    </contour>
  </outline>
</glyph>
<glyph name="Iacute" format="2">
  <advance width="455"/>
  <unicode hex="00CD"/>
  <outline>
    <contour>
      <point x="152" y="1456" type="line"/>
      <point x="152" y="0" type="line"/>
      <point x="301" y="0" type="line"/>
      <point x="301" y="1456" type="line"/>
    </contour>
    <contour>
      <point x="266" y="1835" type="line"/>
      <point x="33" y="1558" type="line"/>
      <point x="146" y="1558" type="line"/>
      <point x="418" y="1800" type="line"/>
    </contour>
  </outline>
</glyph>
<glyph name="Icircumflex" format="2">
  <advance width="455"/>
  <unicode hex="00CE"/>
  <outline>
    <contour>
      <point x="152" y="1456" type="line"/>
      <point x="152" y="0" type="line"/>
      <point x="301" y="0" type="line"/>
      <point x="301" y="1456" type="line"/>
    </contour>
    <contour>
      <point x="156" y="1822" type="line"/>
      <point x="-37" y="1558" type="line"/>
      <point x="74" y="1558" type="line"/>
      <point x="223" y="1722" type="line"/>
      <point x="375" y="1558" type="line"/>
      <point x="488" y="1558" type="line"/>
      <point x="291" y="1822" type="line"/>
    </contour>
  </outline>
</glyph>
<glyph name="Idieresis" format="2">
  <advance width="455"/>
  <unicode hex="00CF"/>
  <outline>
    <contour>
      <point x="152" y="1456" type="line"/>
      <point x="152" y="0" type="line"/>
      <point x="301" y="0" type="line"/>
      <point x="301" y="1456" type="line"/>
    </contour>
    <contour>
      <point x="39" y="1736" type="qcurve"/>
      <point x="2" y="1736"/>
      <point x="-49" y="1683"/>
      <point x="-49" y="1646" type="qcurve"/>
      <point x="-49" y="1609"/>
      <point x="2" y="1558"/>
      <point x="39" y="1558" type="qcurve"/>
      <point x="76" y="1558"/>
      <point x="129" y="1609"/>
      <point x="129" y="1646" type="qcurve"/>
      <point x="129" y="1683"/>
      <point x="76" y="1736"/>
    </contour>
    <contour>
      <point x="410" y="1736" type="qcurve"/>
      <point x="373" y="1736"/>
      <point x="324" y="1683"/>
      <point x="324" y="1648" type="qcurve"/>
      <point x="324" y="1611"/>
      <point x="373" y="1558"/>
      <point x="410" y="1558" type="qcurve"/>
      <point x="447" y="1558"/>
      <point x="500" y="1611"/>
      <point x="500" y="1648" type="qcurve"/>
      <point x="500" y="1683"/>
      <point x="447" y="1736"/>
    </contour>
  </outline>
</glyph>
<glyph name="Ntilde" format="2">
  <advance width="1565"/>
  <unicode hex="00D1"/>
  <outline>
    <contour>
      <point x="180" y="1456" type="line"/>
      <point x="180" y="0" type="line"/>
      <point x="332" y="0" type="line"/>
      <point x="332" y="1210" type="line"/>
      <point x="1234" y="0" type="line"/>
      <point x="1384" y="0" type="line"/>
      <point x="1384" y="1456" type="line"/>
      <point x="1234" y="1456" type="line"/>
      <point x="1234" y="248" type="line"/>
      <point x="332" y="1456" type="line"/>
    </contour>
    <contour>
      <point x="908" y="1562" type="qcurve"/>
      <point x="1062" y="1564"/>
      <point x="1093" y="1792" type="qcurve"/>
      <point x="1004" y="1804" type="line"/>
      <point x="992" y="1736"/>
      <point x="970" y="1706" type="qcurve"/>
      <point x="947" y="1675"/>
      <point x="908" y="1675" type="qcurve"/>
      <point x="886" y="1675"/>
      <point x="861" y="1687" type="qcurve"/>
      <point x="840" y="1699"/>
      <point x="808" y="1728" type="qcurve"/>
      <point x="761" y="1765"/>
      <point x="728" y="1784" type="qcurve"/>
      <point x="697" y="1802"/>
      <point x="658" y="1800" type="qcurve"/>
      <point x="504" y="1800"/>
      <point x="474" y="1570" type="qcurve"/>
      <point x="562" y="1558" type="line"/>
      <point x="574" y="1628"/>
      <point x="599" y="1658" type="qcurve"/>
      <point x="623" y="1689"/>
      <point x="658" y="1689" type="qcurve"/>
      <point x="685" y="1691"/>
      <point x="705" y="1677" type="qcurve"/>
      <point x="730" y="1665"/>
      <point x="758" y="1634" type="qcurve"/>
      <point x="808" y="1599"/>
      <point x="836" y="1578" type="qcurve"/>
      <point x="867" y="1560"/>
    </contour>
  </outline>
</glyph>
<glyph name="Ocircumflex" format="2">
  <advance width="1702"/>
  <unicode hex="00D4"/>
  <outline>
    <contour>
      <point x="845" y="-23" type="qcurve"/>
      <point x="1046" y="-20"/>
      <point x="1214" y="82" type="qcurve"/>
      <point x="1384" y="187"/>
      <point x="1484" y="355" type="qcurve"/>
      <point x="1587" y="527"/>
      <point x="1585" y="728" type="qcurve"/>
      <point x="1587" y="933"/>
      <point x="1484" y="1103" type="qcurve"/>
      <point x="1380" y="1275"/>
      <point x="1212" y="1378" type="qcurve"/>
      <point x="1046" y="1480"/>
      <point x="845" y="1478" type="qcurve"/>
      <point x="648" y="1480"/>
      <point x="476" y="1376" type="qcurve"/>
      <point x="308" y="1273"/>
      <point x="203" y="1101" type="qcurve"/>
      <point x="98" y="931"/>
      <point x="98" y="728" type="qcurve"/>
      <point x="98" y="527"/>
      <point x="203" y="355" type="qcurve"/>
      <point x="305" y="184"/>
      <point x="478" y="80" type="qcurve"/>
      <point x="648" y="-23"/>
    </contour>
    <contour>
      <point x="845" y="129" type="qcurve"/>
      <point x="689" y="127"/>
      <point x="549" y="213" type="qcurve"/>
      <point x="480" y="256"/>
      <point x="375" y="363"/>
      <point x="332" y="433" type="qcurve"/>
      <point x="250" y="574"/>
      <point x="254" y="728" type="qcurve"/>
      <point x="254" y="886"/>
      <point x="334" y="1029" type="qcurve"/>
      <point x="375" y="1101"/>
      <point x="482" y="1203"/>
      <point x="551" y="1246" type="qcurve"/>
      <point x="691" y="1328"/>
      <point x="845" y="1326" type="qcurve"/>
      <point x="998" y="1326"/>
      <point x="1138" y="1244" type="qcurve"/>
      <point x="1275" y="1164"/>
      <point x="1353" y="1025" type="qcurve"/>
      <point x="1433" y="882"/>
      <point x="1433" y="728" type="qcurve"/>
      <point x="1435" y="574"/>
      <point x="1353" y="433" type="qcurve"/>
      <point x="1275" y="295"/>
      <point x="1136" y="213" type="qcurve"/>
      <point x="996" y="131"/>
    </contour>
    <contour>
      <point x="773" y="1847" type="line"/>
      <point x="580" y="1583" type="line"/>
      <point x="691" y="1583" type="line"/>
      <point x="840" y="1747" type="line"/>
      <point x="992" y="1583" type="line"/>
      <point x="1105" y="1583" type="line"/>
      <point x="908" y="1847" type="line"/>
    </contour>
  </outline>
</glyph>
<glyph name="Otilde" format="2">
  <advance width="1702"/>
  <unicode hex="00D5"/>
  <outline>
    <contour>
      <point x="845" y="-23" type="qcurve"/>
      <point x="1046" y="-20"/>
      <point x="1214" y="82" type="qcurve"/>
      <point x="1384" y="187"/>
      <point x="1484" y="355" type="qcurve"/>
      <point x="1587" y="527"/>
      <point x="1585" y="728" type="qcurve"/>
      <point x="1587" y="933"/>
      <point x="1484" y="1103" type="qcurve"/>
      <point x="1380" y="1275"/>
      <point x="1212" y="1378" type="qcurve"/>
      <point x="1046" y="1480"/>
      <point x="845" y="1478" type="qcurve"/>
      <point x="648" y="1480"/>
      <point x="476" y="1376" type="qcurve"/>
      <point x="308" y="1273"/>
      <point x="203" y="1101" type="qcurve"/>
      <point x="98" y="931"/>
      <point x="98" y="728" type="qcurve"/>
      <point x="98" y="527"/>
      <point x="203" y="355" type="qcurve"/>
      <point x="305" y="184"/>
      <point x="478" y="80" type="qcurve"/>
      <point x="648" y="-23"/>
    </contour>
    <contour>
      <point x="845" y="129" type="qcurve"/>
      <point x="689" y="127"/>
      <point x="549" y="213" type="qcurve"/>
      <point x="480" y="256"/>
      <point x="375" y="363"/>
      <point x="332" y="433" type="qcurve"/>
      <point x="250" y="574"/>
      <point x="254" y="728" type="qcurve"/>
      <point x="254" y="886"/>
      <point x="334" y="1029" type="qcurve"/>
      <point x="375" y="1101"/>
      <point x="482" y="1203"/>
      <point x="551" y="1246" type="qcurve"/>
      <point x="691" y="1328"/>
      <point x="845" y="1326" type="qcurve"/>
      <point x="998" y="1326"/>
      <point x="1138" y="1244" type="qcurve"/>
      <point x="1275" y="1164"/>
      <point x="1353" y="1025" type="qcurve"/>
      <point x="1433" y="882"/>
      <point x="1433" y="728" type="qcurve"/>
      <point x="1435" y="574"/>
      <point x="1353" y="433" type="qcurve"/>
      <point x="1275" y="295"/>
      <point x="1136" y="213" type="qcurve"/>
      <point x="996" y="131"/>
    </contour>
    <contour>
      <point x="968" y="1587" type="qcurve"/>
      <point x="1121" y="1589"/>
      <point x="1152" y="1816" type="qcurve"/>
      <point x="1064" y="1829" type="line"/>
      <point x="1052" y="1761"/>
      <point x="1029" y="1730" type="qcurve"/>
      <point x="1007" y="1699"/>
      <point x="968" y="1699" type="qcurve"/>
      <point x="945" y="1699"/>
      <point x="920" y="1712" type="qcurve"/>
      <point x="900" y="1724"/>
      <point x="867" y="1753" type="qcurve"/>
      <point x="820" y="1790"/>
      <point x="787" y="1808" type="qcurve"/>
      <point x="756" y="1827"/>
      <point x="718" y="1824" type="qcurve"/>
      <point x="564" y="1824"/>
      <point x="533" y="1595" type="qcurve"/>
      <point x="621" y="1583" type="line"/>
      <point x="633" y="1652"/>
      <point x="658" y="1683" type="qcurve"/>
      <point x="683" y="1714"/>
      <point x="718" y="1714" type="qcurve"/>
      <point x="744" y="1716"/>
      <point x="765" y="1702" type="qcurve"/>
      <point x="789" y="1689"/>
      <point x="818" y="1658" type="qcurve"/>
      <point x="867" y="1624"/>
      <point x="896" y="1603" type="qcurve"/>
      <point x="927" y="1585"/>
    </contour>
  </outline>
</glyph>
<glyph name="Ucircumflex" format="2">
  <advance width="1438"/>
  <unicode hex="00DB"/>
  <outline>
    <contour>
      <point x="720" y="-23" type="qcurve"/>
      <point x="877" y="-23"/>
      <point x="1007" y="51" type="qcurve"/>
      <point x="1136" y="127"/>
      <point x="1203" y="254" type="qcurve"/>
      <point x="1275" y="387"/>
      <point x="1271" y="549" type="qcurve"/>
      <point x="1271" y="1456" type="line"/>
      <point x="1121" y="1456" type="line"/>
      <point x="1121" y="549" type="line"/>
      <point x="1123" y="424"/>
      <point x="1070" y="324" type="qcurve"/>
      <point x="1017" y="226"/>
      <point x="925" y="170" type="qcurve"/>
      <point x="834" y="115"/>
      <point x="720" y="113" type="qcurve"/>
      <point x="603" y="115"/>
      <point x="510" y="170" type="qcurve"/>
      <point x="420" y="228"/>
      <point x="369" y="326" type="qcurve"/>
      <point x="316" y="426"/>
      <point x="316" y="549" type="qcurve"/>
      <point x="316" y="1456" type="line"/>
      <point x="166" y="1456" type="line"/>
      <point x="166" y="549" type="line"/>
      <point x="168" y="387"/>
      <point x="238" y="254" type="qcurve"/>
      <point x="308" y="127"/>
      <point x="435" y="51" type="qcurve"/>
      <point x="564" y="-23"/>
    </contour>
    <contour>
      <point x="650" y="1822" type="line"/>
      <point x="457" y="1558" type="line"/>
      <point x="568" y="1558" type="line"/>
      <point x="718" y="1722" type="line"/>
      <point x="869" y="1558" type="line"/>
      <point x="982" y="1558" type="line"/>
      <point x="785" y="1822" type="line"/>
    </contour>
  </outline>
</glyph>
<glyph name="Udieresis" format="2">
  <advance width="1438"/>
  <unicode hex="00DC"/>
  <outline>
    <contour>
      <point x="720" y="-23" type="qcurve"/>
      <point x="877" y="-23"/>
      <point x="1007" y="51" type="qcurve"/>
      <point x="1136" y="127"/>
      <point x="1203" y="254" type="qcurve"/>
      <point x="1275" y="387"/>
      <point x="1271" y="549" type="qcurve"/>
      <point x="1271" y="1456" type="line"/>
      <point x="1121" y="1456" type="line"/>
      <point x="1121" y="549" type="line"/>
      <point x="1123" y="424"/>
      <point x="1070" y="324" type="qcurve"/>
      <point x="1017" y="226"/>
      <point x="925" y="170" type="qcurve"/>
      <point x="834" y="115"/>
      <point x="720" y="113" type="qcurve"/>
      <point x="603" y="115"/>
      <point x="510" y="170" type="qcurve"/>
      <point x="420" y="228"/>
      <point x="369" y="326" type="qcurve"/>
      <point x="316" y="426"/>
      <point x="316" y="549" type="qcurve"/>
      <point x="316" y="1456" type="line"/>
      <point x="166" y="1456" type="line"/>
      <point x="166" y="549" type="line"/>
      <point x="168" y="387"/>
      <point x="238" y="254" type="qcurve"/>
      <point x="308" y="127"/>
      <point x="435" y="51" type="qcurve"/>
      <point x="564" y="-23"/>
    </contour>
    <contour>
      <point x="533" y="1736" type="qcurve"/>
      <point x="496" y="1736"/>
      <point x="445" y="1683"/>
      <point x="445" y="1646" type="qcurve"/>
      <point x="445" y="1609"/>
      <point x="496" y="1558"/>
      <point x="533" y="1558" type="qcurve"/>
      <point x="570" y="1558"/>
      <point x="623" y="1609"/>
      <point x="623" y="1646" type="qcurve"/>
      <point x="623" y="1683"/>
      <point x="570" y="1736"/>
    </contour>
    <contour>
      <point x="904" y="1736" type="qcurve"/>
      <point x="867" y="1736"/>
      <point x="818" y="1683"/>
      <point x="818" y="1648" type="qcurve"/>
      <point x="818" y="1611"/>
      <point x="867" y="1558"/>
      <point x="904" y="1558" type="qcurve"/>
      <point x="941" y="1558"/>
      <point x="994" y="1611"/>
      <point x="994" y="1648" type="qcurve"/>
      <point x="994" y="1683"/>
      <point x="941" y="1736"/>
    </contour>
  </outline>
</glyph>
<glyph name="Thorn" format="2">
  <advance width="1241"/>
  <unicode hex="00DE"/>
  <outline>
    <contour>
      <point x="152" y="1324" type="line"/>
      <point x="152" y="0" type="line"/>
      <point x="301" y="0" type="line"/>
      <point x="301" y="244" type="line"/>
      <point x="689" y="244" type="line"/>
      <point x="828" y="242"/>
      <point x="937" y="295" type="qcurve"/>
      <point x="1050" y="351"/>
      <point x="1113" y="449" type="qcurve"/>
      <point x="1181" y="545"/>
      <point x="1179" y="668" type="qcurve"/>
      <point x="1179" y="789"/>
      <point x="1111" y="886" type="qcurve"/>
      <point x="1050" y="984"/>
      <point x="937" y="1037" type="qcurve"/>
      <point x="828" y="1091"/>
      <point x="689" y="1091" type="qcurve"/>
      <point x="305" y="1091" type="line"/>
      <point x="305" y="1324" type="line"/>
    </contour>
    <contour>
      <point x="664" y="385" type="qcurve"/>
      <point x="301" y="385" type="line"/>
      <point x="301" y="949" type="line"/>
      <point x="664" y="949" type="line"/>
      <point x="828" y="951"/>
      <point x="927" y="873" type="qcurve"/>
      <point x="1029" y="800"/>
      <point x="1027" y="668" type="qcurve"/>
      <point x="1027" y="537"/>
      <point x="925" y="461" type="qcurve"/>
      <point x="828" y="385"/>
    </contour>
  </outline>
</glyph>
<glyph name="atilde" format="2">
  <advance width="1229"/>
  <unicode hex="00E3"/>
  <outline>
    <contour>
      <point x="590" y="105" type="qcurve"/>
      <point x="496" y="107"/>
      <point x="416" y="156" type="qcurve"/>
      <point x="340" y="207"/>
      <point x="297" y="295" type="qcurve"/>
      <point x="256" y="385"/>
      <point x="256" y="498" type="qcurve"/>
      <point x="256" y="615"/>
      <point x="297" y="701" type="qcurve"/>
      <point x="340" y="791"/>
      <point x="418" y="840" type="qcurve"/>
      <point x="496" y="892"/>
      <point x="590" y="890" type="qcurve"/>
      <point x="687" y="892"/>
      <point x="763" y="840" type="qcurve"/>
      <point x="840" y="791"/>
      <point x="882" y="701" type="qcurve"/>
      <point x="925" y="615"/>
      <point x="925" y="498" type="qcurve"/>
      <point x="925" y="385"/>
      <point x="882" y="293" type="qcurve"/>
      <point x="840" y="205"/>
      <point x="763" y="156" type="qcurve"/>
      <point x="687" y="107"/>
    </contour>
    <contour>
      <point x="1070" y="996" type="line"/>
      <point x="925" y="996" type="line"/>
      <point x="925" y="810" type="line"/>
      <point x="867" y="910"/>
      <point x="681" y="1021"/>
      <point x="564" y="1021" type="qcurve"/>
      <point x="435" y="1021"/>
      <point x="328" y="953" type="qcurve"/>
      <point x="226" y="888"/>
      <point x="164" y="767" type="qcurve"/>
      <point x="105" y="648"/>
      <point x="102" y="498" type="qcurve"/>
      <point x="105" y="353"/>
      <point x="164" y="230" type="qcurve"/>
      <point x="226" y="111"/>
      <point x="330" y="43" type="qcurve"/>
      <point x="435" y="-25"/>
      <point x="564" y="-23" type="qcurve"/>
      <point x="683" y="-23"/>
      <point x="869" y="90"/>
      <point x="925" y="187" type="qcurve"/>
      <point x="925" y="0" type="line"/>
      <point x="1070" y="0" type="line"/>
    </contour>
    <contour>
      <point x="711" y="1128" type="qcurve"/>
      <point x="865" y="1130"/>
      <point x="896" y="1357" type="qcurve"/>
      <point x="808" y="1369" type="line"/>
      <point x="795" y="1302"/>
      <point x="773" y="1271" type="qcurve"/>
      <point x="750" y="1240"/>
      <point x="711" y="1240" type="qcurve"/>
      <point x="689" y="1240"/>
      <point x="664" y="1253" type="qcurve"/>
      <point x="644" y="1265"/>
      <point x="611" y="1294" type="qcurve"/>
      <point x="564" y="1330"/>
      <point x="531" y="1349" type="qcurve"/>
      <point x="500" y="1367"/>
      <point x="461" y="1365" type="qcurve"/>
      <point x="308" y="1365"/>
      <point x="277" y="1136" type="qcurve"/>
      <point x="365" y="1123" type="line"/>
      <point x="377" y="1193"/>
      <point x="402" y="1224" type="qcurve"/>
      <point x="426" y="1255"/>
      <point x="461" y="1255" type="qcurve"/>
      <point x="488" y="1257"/>
      <point x="508" y="1242" type="qcurve"/>
      <point x="533" y="1230"/>
      <point x="562" y="1199" type="qcurve"/>
      <point x="611" y="1164"/>
      <point x="640" y="1144" type="qcurve"/>
      <point x="670" y="1125"/>
    </contour>
  </outline>
</glyph>
<glyph name="aring" format="2">
  <advance width="1229"/>
  <unicode hex="00E5"/>
  <outline>
    <contour>
      <point x="590" y="105" type="qcurve"/>
      <point x="496" y="107"/>
      <point x="416" y="156" type="qcurve"/>
      <point x="340" y="207"/>
      <point x="297" y="295" type="qcurve"/>
      <point x="256" y="385"/>
      <point x="256" y="498" type="qcurve"/>
      <point x="256" y="615"/>
      <point x="297" y="701" type="qcurve"/>
      <point x="340" y="791"/>
      <point x="418" y="840" type="qcurve"/>
      <point x="496" y="892"/>
      <point x="590" y="890" type="qcurve"/>
      <point x="687" y="892"/>
      <point x="763" y="840" type="qcurve"/>
      <point x="840" y="791"/>
      <point x="882" y="701" type="qcurve"/>
      <point x="925" y="615"/>
      <point x="925" y="498" type="qcurve"/>
      <point x="925" y="385"/>
      <point x="882" y="293" type="qcurve"/>
      <point x="840" y="205"/>
      <point x="763" y="156" type="qcurve"/>
      <point x="687" y="107"/>
    </contour>
    <contour>
      <point x="1070" y="996" type="line"/>
      <point x="925" y="996" type="line"/>
      <point x="925" y="810" type="line"/>
      <point x="867" y="910"/>
      <point x="681" y="1021"/>
      <point x="564" y="1021" type="qcurve"/>
      <point x="435" y="1021"/>
      <point x="328" y="953" type="qcurve"/>
      <point x="226" y="888"/>
      <point x="164" y="767" type="qcurve"/>
      <point x="105" y="648"/>
      <point x="102" y="498" type="qcurve"/>
      <point x="105" y="353"/>
      <point x="164" y="230" type="qcurve"/>
      <point x="226" y="111"/>
      <point x="330" y="43" type="qcurve"/>
      <point x="435" y="-25"/>
      <point x="564" y="-23" type="qcurve"/>
      <point x="683" y="-23"/>
      <point x="869" y="90"/>
      <point x="925" y="187" type="qcurve"/>
      <point x="925" y="0" type="line"/>
      <point x="1070" y="0" type="line"/>
    </contour>
    <contour>
      <point x="586" y="1123" type="qcurve"/>
      <point x="672" y="1123"/>
      <point x="728" y="1181" type="qcurve"/>
      <point x="785" y="1238"/>
      <point x="785" y="1322" type="qcurve"/>
      <point x="785" y="1406"/>
      <point x="728" y="1462" type="qcurve"/>
      <point x="672" y="1521"/>
      <point x="586" y="1521" type="qcurve"/>
      <point x="504" y="1521"/>
      <point x="445" y="1462" type="qcurve"/>
      <point x="387" y="1406"/>
      <point x="387" y="1322" type="qcurve"/>
      <point x="387" y="1238"/>
      <point x="445" y="1181" type="qcurve"/>
      <point x="504" y="1123"/>
    </contour>
    <contour>
      <point x="586" y="1210" type="qcurve"/>
      <point x="541" y="1210"/>
      <point x="506" y="1242" type="qcurve"/>
      <point x="474" y="1275"/>
      <point x="474" y="1322" type="qcurve"/>
      <point x="476" y="1369"/>
      <point x="508" y="1404" type="qcurve"/>
      <point x="541" y="1435"/>
      <point x="586" y="1435" type="qcurve"/>
      <point x="633" y="1435"/>
      <point x="668" y="1402" type="qcurve"/>
      <point x="701" y="1369"/>
      <point x="701" y="1322" type="qcurve"/>
      <point x="701" y="1275"/>
      <point x="666" y="1242" type="qcurve"/>
      <point x="631" y="1210"/>
    </contour>
  </outline>
</glyph>
<glyph name="ae" format="2">
  <advance width="1864"/>
  <unicode hex="00E6"/>
  <outline>
    <contour>
      <point x="1314" y="105" type="qcurve"/>
      <point x="1168" y="107"/>
      <point x="1070" y="201" type="qcurve"/>
      <point x="976" y="295"/>
      <point x="959" y="445" type="qcurve"/>
      <point x="1775" y="445" type="line"/>
      <point x="1777" y="709"/>
      <point x="1650" y="865" type="qcurve"/>
      <point x="1525" y="1021"/>
      <point x="1304" y="1021" type="qcurve"/>
      <point x="1187" y="1021"/>
      <point x="1082" y="966" type="qcurve"/>
      <point x="980" y="914"/>
      <point x="912" y="820" type="qcurve"/>
      <point x="869" y="914"/>
      <point x="775" y="968" type="qcurve"/>
      <point x="685" y="1021"/>
      <point x="551" y="1021" type="qcurve"/>
      <point x="385" y="1021"/>
      <point x="193" y="922" type="qcurve"/>
      <point x="252" y="806" type="line"/>
      <point x="336" y="849"/>
      <point x="406" y="873" type="qcurve"/>
      <point x="476" y="898"/>
      <point x="541" y="896" type="qcurve"/>
      <point x="689" y="898"/>
      <point x="750" y="812" type="qcurve"/>
      <point x="814" y="728"/>
      <point x="812" y="607" type="qcurve"/>
      <point x="812" y="570" type="line"/>
      <point x="638" y="627"/>
      <point x="488" y="627" type="qcurve"/>
      <point x="383" y="627"/>
      <point x="291" y="584" type="qcurve"/>
      <point x="201" y="545"/>
      <point x="148" y="467" type="qcurve"/>
      <point x="96" y="390"/>
      <point x="98" y="293" type="qcurve"/>
      <point x="98" y="146"/>
      <point x="199" y="59" type="qcurve"/>
      <point x="303" y="-25"/>
      <point x="482" y="-23" type="qcurve"/>
      <point x="615" y="-25"/>
      <point x="722" y="41" type="qcurve"/>
      <point x="834" y="105"/>
      <point x="898" y="207" type="qcurve"/>
      <point x="968" y="102"/>
      <point x="1078" y="37" type="qcurve"/>
      <point x="1191" y="-25"/>
      <point x="1316" y="-23" type="qcurve"/>
      <point x="1425" y="-20"/>
      <point x="1540" y="20" type="qcurve"/>
      <point x="1654" y="62"/>
      <point x="1718" y="131" type="qcurve"/>
      <point x="1630" y="226" type="line"/>
      <point x="1585" y="174"/>
      <point x="1492" y="139" type="qcurve"/>
      <point x="1402" y="107"/>
    </contour>
    <contour>
      <point x="1308" y="890" type="qcurve"/>
      <point x="1456" y="890"/>
      <point x="1535" y="802" type="qcurve"/>
      <point x="1620" y="718"/>
      <point x="1634" y="572" type="qcurve"/>
      <point x="961" y="572" type="line"/>
      <point x="982" y="718"/>
      <point x="1076" y="804" type="qcurve"/>
      <point x="1173" y="892"/>
    </contour>
    <contour>
      <point x="504" y="102" type="qcurve"/>
      <point x="379" y="102"/>
      <point x="308" y="156" type="qcurve"/>
      <point x="238" y="209"/>
      <point x="238" y="299" type="qcurve"/>
      <point x="238" y="390"/>
      <point x="318" y="447" type="qcurve"/>
      <point x="398" y="504"/>
      <point x="510" y="504" type="qcurve"/>
      <point x="664" y="504"/>
      <point x="812" y="465" type="qcurve"/>
      <point x="812" y="392" type="line"/>
      <point x="812" y="316"/>
      <point x="769" y="250" type="qcurve"/>
      <point x="730" y="184"/>
      <point x="656" y="141" type="qcurve"/>
      <point x="586" y="102"/>
    </contour>
  </outline>
</glyph>
<glyph name="ccedilla" format="2">
  <advance width="1044"/>
  <unicode hex="00E7"/>
  <outline>
    <contour>
      <point x="609" y="-23" type="qcurve"/>
      <point x="713" y="-23"/>
      <point x="806" y="18" type="qcurve"/>
      <point x="900" y="59"/>
      <point x="970" y="129" type="qcurve"/>
      <point x="869" y="228" type="line"/>
      <point x="818" y="168"/>
      <point x="750" y="135" type="qcurve"/>
      <point x="685" y="105"/>
      <point x="609" y="105" type="qcurve"/>
      <point x="512" y="107"/>
      <point x="426" y="160" type="qcurve"/>
      <point x="342" y="213"/>
      <point x="291" y="303" type="qcurve"/>
      <point x="244" y="394"/>
      <point x="246" y="498" type="qcurve"/>
      <point x="246" y="603"/>
      <point x="293" y="693" type="qcurve"/>
      <point x="344" y="785"/>
      <point x="428" y="838" type="qcurve"/>
      <point x="512" y="892"/>
      <point x="609" y="890" type="qcurve"/>
      <point x="685" y="890"/>
      <point x="748" y="861" type="qcurve"/>
      <point x="816" y="830"/>
      <point x="865" y="775" type="qcurve"/>
      <point x="964" y="873" type="line"/>
      <point x="894" y="943"/>
      <point x="800" y="982" type="qcurve"/>
      <point x="709" y="1021"/>
      <point x="609" y="1021" type="qcurve"/>
      <point x="472" y="1021"/>
      <point x="353" y="949" type="qcurve"/>
      <point x="234" y="882"/>
      <point x="162" y="758" type="qcurve"/>
      <point x="94" y="640"/>
      <point x="94" y="498" type="qcurve"/>
      <point x="94" y="361"/>
      <point x="164" y="240" type="qcurve"/>
      <point x="236" y="119"/>
      <point x="353" y="49" type="qcurve"/>
      <point x="472" y="-20"/>
    </contour>
    <contour>
      <point x="578" y="-234" type="qcurve"/>
      <point x="566" y="-232"/>
      <point x="558" y="-236" type="qcurve"/>
      <point x="603" y="-125" type="line"/>
      <point x="504" y="-125" type="line"/>
      <point x="441" y="-275" type="line"/>
      <point x="472" y="-308" type="line"/>
      <point x="500" y="-285"/>
      <point x="535" y="-285" type="qcurve"/>
      <point x="572" y="-285"/>
      <point x="592" y="-305" type="qcurve"/>
      <point x="613" y="-322"/>
      <point x="611" y="-353" type="qcurve"/>
      <point x="613" y="-383"/>
      <point x="584" y="-406" type="qcurve"/>
      <point x="558" y="-426"/>
      <point x="517" y="-426" type="qcurve"/>
      <point x="447" y="-424"/>
      <point x="390" y="-381" type="qcurve"/>
      <point x="353" y="-461" type="line"/>
      <point x="383" y="-484"/>
      <point x="430" y="-500" type="qcurve"/>
      <point x="478" y="-515"/>
      <point x="523" y="-515" type="qcurve"/>
      <point x="605" y="-515"/>
      <point x="658" y="-472" type="qcurve"/>
      <point x="713" y="-428"/>
      <point x="713" y="-359" type="qcurve"/>
      <point x="715" y="-301"/>
      <point x="674" y="-266" type="qcurve"/>
      <point x="638" y="-232"/>
    </contour>
  </outline>
</glyph>
<glyph name="eacute" format="2">
  <advance width="1147"/>
  <unicode hex="00E9"/>
  <outline>
    <contour>
      <point x="597" y="105" type="qcurve"/>
      <point x="451" y="107"/>
      <point x="353" y="201" type="qcurve"/>
      <point x="258" y="295"/>
      <point x="242" y="445" type="qcurve"/>
      <point x="1058" y="445" type="line"/>
      <point x="1058" y="709"/>
      <point x="931" y="865" type="qcurve"/>
      <point x="808" y="1021"/>
      <point x="584" y="1021" type="qcurve"/>
      <point x="451" y="1021"/>
      <point x="336" y="953" type="qcurve"/>
      <point x="226" y="886"/>
      <point x="158" y="765" type="qcurve"/>
      <point x="92" y="648"/>
      <point x="94" y="500" type="qcurve"/>
      <point x="94" y="353"/>
      <point x="164" y="232" type="qcurve"/>
      <point x="234" y="111"/>
      <point x="348" y="45" type="qcurve"/>
      <point x="463" y="-23"/>
      <point x="599" y="-23" type="qcurve"/>
      <point x="707" y="-20"/>
      <point x="822" y="20" type="qcurve"/>
      <point x="935" y="62"/>
      <point x="998" y="131" type="qcurve"/>
      <point x="910" y="226" type="line"/>
      <point x="865" y="174"/>
      <point x="773" y="139" type="qcurve"/>
      <point x="685" y="107"/>
    </contour>
    <contour>
      <point x="590" y="890" type="qcurve"/>
      <point x="736" y="890"/>
      <point x="816" y="802" type="qcurve"/>
      <point x="900" y="718"/>
      <point x="914" y="572" type="qcurve"/>
      <point x="244" y="572" type="line"/>
      <point x="264" y="718"/>
      <point x="359" y="804" type="qcurve"/>
      <point x="455" y="892"/>
    </contour>
    <contour>
      <point x="617" y="1400" type="line"/>
      <point x="383" y="1123" type="line"/>
      <point x="496" y="1123" type="line"/>
      <point x="769" y="1365" type="line"/>
    </contour>
  </outline>
</glyph>
<glyph name="eth" format="2">
  <advance width="1208"/>
  <unicode hex="00F0"/>
  <outline>
    <contour>
      <point x="752" y="1173" type="qcurve"/>
      <point x="890" y="1236"/>
      <point x="888" y="1234" type="qcurve"/>
      <point x="836" y="1353" type="line"/>
      <point x="646" y="1267" type="line"/>
      <point x="586" y="1322"/>
      <point x="504" y="1382" type="qcurve"/>
      <point x="359" y="1320" type="line"/>
      <point x="410" y="1287"/>
      <point x="515" y="1210" type="qcurve"/>
      <point x="338" y="1132" type="line"/>
      <point x="392" y="1013" type="line"/>
      <point x="627" y="1115" type="line"/>
      <point x="808" y="959"/>
      <point x="886" y="804" type="qcurve"/>
      <point x="754" y="959"/>
      <point x="566" y="959" type="qcurve"/>
      <point x="437" y="961"/>
      <point x="332" y="898" type="qcurve"/>
      <point x="230" y="836"/>
      <point x="174" y="726" type="qcurve"/>
      <point x="115" y="619"/>
      <point x="115" y="480" type="qcurve"/>
      <point x="115" y="334"/>
      <point x="178" y="219" type="qcurve"/>
      <point x="242" y="107"/>
      <point x="353" y="41" type="qcurve"/>
      <point x="465" y="-25"/>
      <point x="607" y="-23" type="qcurve"/>
      <point x="750" y="-23"/>
      <point x="861" y="47" type="qcurve"/>
      <point x="974" y="117"/>
      <point x="1033" y="240" type="qcurve"/>
      <point x="1095" y="365"/>
      <point x="1093" y="519" type="qcurve"/>
      <point x="1095" y="705"/>
      <point x="1009" y="857" type="qcurve"/>
      <point x="922" y="1013"/>
    </contour>
    <contour>
      <point x="607" y="107" type="qcurve"/>
      <point x="510" y="109"/>
      <point x="430" y="156" type="qcurve"/>
      <point x="353" y="205"/>
      <point x="308" y="289" type="qcurve"/>
      <point x="266" y="373"/>
      <point x="266" y="478" type="qcurve"/>
      <point x="266" y="582"/>
      <point x="308" y="662" type="qcurve"/>
      <point x="351" y="746"/>
      <point x="428" y="789" type="qcurve"/>
      <point x="508" y="834"/>
      <point x="603" y="834" type="qcurve"/>
      <point x="705" y="834"/>
      <point x="781" y="785" type="qcurve"/>
      <point x="861" y="740"/>
      <point x="900" y="654" type="qcurve"/>
      <point x="943" y="574"/>
      <point x="941" y="474" type="qcurve"/>
      <point x="941" y="369"/>
      <point x="898" y="285" type="qcurve"/>
      <point x="857" y="201"/>
      <point x="779" y="154" type="qcurve"/>
      <point x="703" y="107"/>
    </contour>
  </outline>
</glyph>
<glyph name="ntilde" format="2">
  <advance width="1141"/>
  <unicode hex="00F1"/>
  <outline>
    <contour>
      <point x="620" y="1021" type="qcurve"/>
      <point x="516" y="1021"/>
      <point x="425" y="968" type="qcurve"/>
      <point x="335" y="916"/>
      <point x="292" y="836" type="qcurve"/>
      <point x="292" y="996" type="line"/>
      <point x="147" y="996" type="line"/>
      <point x="147" y="0" type="line"/>
      <point x="292" y="0" type="line"/>
      <point x="292" y="636" type="line"/>
      <point x="292" y="705"/>
      <point x="333" y="761" type="qcurve"/>
      <point x="376" y="824"/>
      <point x="448" y="857" type="qcurve"/>
      <point x="520" y="890"/>
      <point x="602" y="890" type="qcurve"/>
      <point x="712" y="892"/>
      <point x="780" y="814" type="qcurve"/>
      <point x="850" y="738"/>
      <point x="850" y="615" type="qcurve"/>
      <point x="850" y="0" type="line"/>
      <point x="993" y="0" type="line"/>
      <point x="993" y="636" type="line"/>
      <point x="995" y="750"/>
      <point x="946" y="836" type="qcurve"/>
      <point x="901" y="925"/>
      <point x="813" y="972" type="qcurve"/>
      <point x="729" y="1023"/>
    </contour>
    <contour>
      <point x="696" y="1130" type="qcurve"/>
      <point x="850" y="1132"/>
      <point x="881" y="1359" type="qcurve"/>
      <point x="792" y="1371" type="line"/>
      <point x="780" y="1304"/>
      <point x="757" y="1273" type="qcurve"/>
      <point x="735" y="1242"/>
      <point x="696" y="1242" type="qcurve"/>
      <point x="673" y="1242"/>
      <point x="649" y="1255" type="qcurve"/>
      <point x="628" y="1267"/>
      <point x="596" y="1296" type="qcurve"/>
      <point x="548" y="1332"/>
      <point x="516" y="1351" type="qcurve"/>
      <point x="485" y="1369"/>
      <point x="446" y="1367" type="qcurve"/>
      <point x="292" y="1367"/>
      <point x="261" y="1138" type="qcurve"/>
      <point x="350" y="1125" type="line"/>
      <point x="362" y="1195"/>
      <point x="386" y="1226" type="qcurve"/>
      <point x="411" y="1257"/>
      <point x="446" y="1257" type="qcurve"/>
      <point x="473" y="1259"/>
      <point x="493" y="1244" type="qcurve"/>
      <point x="518" y="1232"/>
      <point x="546" y="1201" type="qcurve"/>
      <point x="596" y="1166"/>
      <point x="624" y="1146" type="qcurve"/>
      <point x="655" y="1128"/>
    </contour>
  </outline>
</glyph>
<glyph name="otilde" format="2">
  <advance width="1217"/>
  <unicode hex="00F5"/>
  <outline>
    <contour>
      <point x="609" y="-23" type="qcurve"/>
      <point x="750" y="-20"/>
      <point x="867" y="49" type="qcurve"/>
      <point x="988" y="121"/>
      <point x="1056" y="242" type="qcurve"/>
      <point x="1093" y="303"/>
      <point x="1123" y="426"/>
      <point x="1123" y="498" type="qcurve"/>
      <point x="1125" y="640"/>
      <point x="1054" y="758" type="qcurve"/>
      <point x="986" y="882"/>
      <point x="865" y="949" type="qcurve"/>
      <point x="748" y="1021"/>
      <point x="609" y="1021" type="qcurve"/>
      <point x="472" y="1021"/>
      <point x="353" y="949" type="qcurve"/>
      <point x="234" y="882"/>
      <point x="162" y="758" type="qcurve"/>
      <point x="94" y="640"/>
      <point x="94" y="498" type="qcurve"/>
      <point x="94" y="361"/>
      <point x="164" y="240" type="qcurve"/>
      <point x="236" y="119"/>
      <point x="353" y="49" type="qcurve"/>
      <point x="472" y="-20"/>
    </contour>
    <contour>
      <point x="609" y="105" type="qcurve"/>
      <point x="512" y="107"/>
      <point x="426" y="160" type="qcurve"/>
      <point x="342" y="213"/>
      <point x="291" y="303" type="qcurve"/>
      <point x="244" y="394"/>
      <point x="246" y="498" type="qcurve"/>
      <point x="246" y="603"/>
      <point x="293" y="693" type="qcurve"/>
      <point x="344" y="785"/>
      <point x="428" y="838" type="qcurve"/>
      <point x="512" y="892"/>
      <point x="609" y="890" type="qcurve"/>
      <point x="705" y="890"/>
      <point x="791" y="836" type="qcurve"/>
      <point x="875" y="783"/>
      <point x="922" y="693" type="qcurve"/>
      <point x="974" y="603"/>
      <point x="972" y="498" type="qcurve"/>
      <point x="972" y="394"/>
      <point x="920" y="301" type="qcurve"/>
      <point x="873" y="213"/>
      <point x="789" y="160" type="qcurve"/>
      <point x="705" y="107"/>
    </contour>
    <contour>
      <point x="736" y="1128" type="qcurve"/>
      <point x="890" y="1130"/>
      <point x="920" y="1357" type="qcurve"/>
      <point x="832" y="1369" type="line"/>
      <point x="820" y="1302"/>
      <point x="797" y="1271" type="qcurve"/>
      <point x="775" y="1240"/>
      <point x="736" y="1240" type="qcurve"/>
      <point x="713" y="1240"/>
      <point x="689" y="1253" type="qcurve"/>
      <point x="668" y="1265"/>
      <point x="636" y="1294" type="qcurve"/>
      <point x="588" y="1330"/>
      <point x="556" y="1349" type="qcurve"/>
      <point x="525" y="1367"/>
      <point x="486" y="1365" type="qcurve"/>
      <point x="332" y="1365"/>
      <point x="301" y="1136" type="qcurve"/>
      <point x="390" y="1123" type="line"/>
      <point x="402" y="1193"/>
      <point x="426" y="1224" type="qcurve"/>
      <point x="451" y="1255"/>
      <point x="486" y="1255" type="qcurve"/>
      <point x="512" y="1257"/>
      <point x="533" y="1242" type="qcurve"/>
      <point x="558" y="1230"/>
      <point x="586" y="1199" type="qcurve"/>
      <point x="636" y="1164"/>
      <point x="664" y="1144" type="qcurve"/>
      <point x="695" y="1125"/>
    </contour>
  </outline>
</glyph>
<glyph name="divide" format="2">
  <advance width="1143"/>
  <unicode hex="00F7"/>
  <outline>
    <contour>
      <point x="574" y="853" type="qcurve"/>
      <point x="617" y="853"/>
      <point x="648" y="882" type="qcurve"/>
      <point x="676" y="914"/>
      <point x="676" y="957" type="qcurve"/>
      <point x="676" y="1000"/>
      <point x="646" y="1031" type="qcurve"/>
      <point x="615" y="1062"/>
      <point x="574" y="1060" type="qcurve"/>
      <point x="529" y="1062"/>
      <point x="498" y="1031" type="qcurve"/>
      <point x="467" y="1000"/>
      <point x="469" y="957" type="qcurve"/>
      <point x="467" y="914"/>
      <point x="498" y="882" type="qcurve"/>
      <point x="529" y="853"/>
    </contour>
    <contour>
      <point x="129" y="715" type="line"/>
      <point x="129" y="572" type="line"/>
      <point x="1015" y="572" type="line"/>
      <point x="1015" y="715" type="line"/>
    </contour>
    <contour>
      <point x="574" y="228" type="qcurve"/>
      <point x="617" y="228"/>
      <point x="648" y="258" type="qcurve"/>
      <point x="676" y="289"/>
      <point x="676" y="332" type="qcurve"/>
      <point x="676" y="373"/>
      <point x="646" y="406" type="qcurve"/>
      <point x="615" y="437"/>
      <point x="574" y="437" type="qcurve"/>
      <point x="529" y="437"/>
      <point x="498" y="406" type="qcurve"/>
      <point x="467" y="373"/>
      <point x="469" y="332" type="qcurve"/>
      <point x="467" y="289"/>
      <point x="498" y="258" type="qcurve"/>
      <point x="529" y="228"/>
    </contour>
  </outline>
</glyph>
<glyph name="oslash" format="2">
  <advance width="1217"/>
  <unicode hex="00F8"/>
  <outline>
    <contour>
      <point x="990" y="847" type="qcurve"/>
      <point x="1119" y="996"/>
      <point x="1117" y="996" type="qcurve"/>
      <point x="955" y="996" type="line"/>
      <point x="896" y="929" type="line"/>
      <point x="761" y="1021"/>
      <point x="609" y="1021" type="qcurve"/>
      <point x="472" y="1021"/>
      <point x="353" y="949" type="qcurve"/>
      <point x="234" y="882"/>
      <point x="162" y="758" type="qcurve"/>
      <point x="94" y="640"/>
      <point x="94" y="498" type="qcurve"/>
      <point x="94" y="400"/>
      <point x="129" y="308" type="qcurve"/>
      <point x="166" y="217"/>
      <point x="232" y="148" type="qcurve"/>
      <point x="102" y="0" type="line"/>
      <point x="269" y="0" type="line"/>
      <point x="324" y="66" type="line"/>
      <point x="459" y="-20"/>
      <point x="609" y="-23" type="qcurve"/>
      <point x="750" y="-20"/>
      <point x="867" y="49" type="qcurve"/>
      <point x="988" y="121"/>
      <point x="1056" y="242" type="qcurve"/>
      <point x="1093" y="303"/>
      <point x="1123" y="426"/>
      <point x="1123" y="498" type="qcurve"/>
      <point x="1123" y="599"/>
      <point x="1086" y="685" type="qcurve"/>
      <point x="1054" y="775"/>
    </contour>
    <contour>
      <point x="246" y="498" type="qcurve"/>
      <point x="246" y="603"/>
      <point x="293" y="693" type="qcurve"/>
      <point x="344" y="785"/>
      <point x="428" y="838" type="qcurve"/>
      <point x="512" y="892"/>
      <point x="609" y="890" type="qcurve"/>
      <point x="713" y="892"/>
      <point x="808" y="826" type="qcurve"/>
      <point x="324" y="258" type="line"/>
      <point x="246" y="361"/>
    </contour>
    <contour>
      <point x="609" y="105" type="qcurve"/>
      <point x="504" y="105"/>
      <point x="412" y="170" type="qcurve"/>
      <point x="896" y="736" type="line"/>
      <point x="972" y="627"/>
      <point x="972" y="498" type="qcurve"/>
      <point x="972" y="394"/>
      <point x="920" y="301" type="qcurve"/>
      <point x="873" y="213"/>
      <point x="789" y="160" type="qcurve"/>
      <point x="705" y="107"/>
    </contour>
  </outline>
</glyph>
<glyph name="ucircumflex" format="2">
  <advance width="1141"/>
  <unicode hex="00FB"/>
  <outline>
    <contour>
      <point x="520" y="-25" type="qcurve"/>
      <point x="624" y="-25"/>
      <point x="714" y="29" type="qcurve"/>
      <point x="805" y="80"/>
      <point x="848" y="160" type="qcurve"/>
      <point x="848" y="0" type="line"/>
      <point x="993" y="0" type="line"/>
      <point x="993" y="996" type="line"/>
      <point x="848" y="996" type="line"/>
      <point x="848" y="361" type="line"/>
      <point x="848" y="291"/>
      <point x="807" y="236" type="qcurve"/>
      <point x="764" y="172"/>
      <point x="692" y="139" type="qcurve"/>
      <point x="620" y="107"/>
      <point x="538" y="107" type="qcurve"/>
      <point x="427" y="105"/>
      <point x="360" y="182" type="qcurve"/>
      <point x="290" y="258"/>
      <point x="290" y="381" type="qcurve"/>
      <point x="290" y="996" type="line"/>
      <point x="147" y="996" type="line"/>
      <point x="147" y="361" type="line"/>
      <point x="145" y="246"/>
      <point x="194" y="160" type="qcurve"/>
      <point x="239" y="72"/>
      <point x="327" y="25" type="qcurve"/>
      <point x="411" y="-27"/>
    </contour>
    <contour>
      <point x="503" y="1363" type="line"/>
      <point x="311" y="1099" type="line"/>
      <point x="421" y="1099" type="line"/>
      <point x="571" y="1263" type="line"/>
      <point x="723" y="1099" type="line"/>
      <point x="835" y="1099" type="line"/>
      <point x="639" y="1363" type="line"/>
    </contour>
  </outline>
</glyph>
<glyph name="udieresis" format="2">
  <advance width="1141"/>
  <unicode hex="00FC"/>
  <outline>
    <contour>
      <point x="386" y="1277" type="qcurve"/>
      <point x="350" y="1277"/>
      <point x="298" y="1224"/>
      <point x="298" y="1187" type="qcurve"/>
      <point x="298" y="1150"/>
      <point x="350" y="1099"/>
      <point x="386" y="1099" type="qcurve"/>
      <point x="423" y="1099"/>
      <point x="477" y="1150"/>
      <point x="477" y="1187" type="qcurve"/>
      <point x="477" y="1224"/>
      <point x="423" y="1277"/>
    </contour>
    <contour>
      <point x="757" y="1277" type="qcurve"/>
      <point x="721" y="1277"/>
      <point x="671" y="1224"/>
      <point x="671" y="1189" type="qcurve"/>
      <point x="671" y="1152"/>
      <point x="721" y="1099"/>
      <point x="757" y="1099" type="qcurve"/>
      <point x="794" y="1099"/>
      <point x="848" y="1152"/>
      <point x="848" y="1189" type="qcurve"/>
      <point x="848" y="1224"/>
      <point x="794" y="1277"/>
    </contour>
    <contour>
      <point x="520" y="-25" type="qcurve"/>
      <point x="624" y="-25"/>
      <point x="714" y="29" type="qcurve"/>
      <point x="805" y="80"/>
      <point x="848" y="160" type="qcurve"/>
      <point x="848" y="0" type="line"/>
      <point x="993" y="0" type="line"/>
      <point x="993" y="996" type="line"/>
      <point x="848" y="996" type="line"/>
      <point x="848" y="361" type="line"/>
      <point x="848" y="291"/>
      <point x="807" y="236" type="qcurve"/>
      <point x="764" y="172"/>
      <point x="692" y="139" type="qcurve"/>
      <point x="620" y="107"/>
      <point x="538" y="107" type="qcurve"/>
      <point x="427" y="105"/>
      <point x="360" y="182" type="qcurve"/>
      <point x="290" y="258"/>
      <point x="290" y="381" type="qcurve"/>
      <point x="290" y="996" type="line"/>
      <point x="147" y="996" type="line"/>
      <point x="147" y="361" type="line"/>
      <point x="145" y="246"/>
      <point x="194" y="160" type="qcurve"/>
      <point x="239" y="72"/>
      <point x="327" y="25" type="qcurve"/>
      <point x="411" y="-27"/>
    </contour>
  </outline>
</glyph>
<glyph name="yacute" format="2">
  <advance width="1143"/>
  <unicode hex="00FD"/>
  <outline>
    <contour>
      <point x="351" y="-379" type="line"/>
      <point x="492" y="-379" type="line"/>
      <point x="1054" y="996" type="line"/>
      <point x="896" y="996" type="line"/>
      <point x="570" y="172" type="line"/>
      <point x="217" y="996" type="line"/>
      <point x="57" y="996" type="line"/>
      <point x="498" y="0" type="line"/>
    </contour>
    <contour>
      <point x="597" y="1376" type="line"/>
      <point x="363" y="1099" type="line"/>
      <point x="476" y="1099" type="line"/>
      <point x="748" y="1341" type="line"/>
    </contour>
  </outline>
</glyph>
<glyph name="thorn" format="2">
  <advance width="1229"/>
  <unicode hex="00FE"/>
  <outline>
    <contour>
      <point x="668" y="1021" type="qcurve"/>
      <point x="549" y="1021"/>
      <point x="455" y="964" type="qcurve"/>
      <point x="361" y="910"/>
      <point x="303" y="810" type="qcurve"/>
      <point x="303" y="1347" type="line"/>
      <point x="160" y="1347" type="line"/>
      <point x="160" y="-332" type="line"/>
      <point x="303" y="-332" type="line"/>
      <point x="303" y="187" type="line"/>
      <point x="363" y="88"/>
      <point x="457" y="31" type="qcurve"/>
      <point x="551" y="-25"/>
      <point x="668" y="-23" type="qcurve"/>
      <point x="800" y="-23"/>
      <point x="902" y="45" type="qcurve"/>
      <point x="1009" y="113"/>
      <point x="1066" y="230" type="qcurve"/>
      <point x="1128" y="353"/>
      <point x="1125" y="498" type="qcurve"/>
      <point x="1128" y="648"/>
      <point x="1066" y="769" type="qcurve"/>
      <point x="1009" y="890"/>
      <point x="900" y="955" type="qcurve"/>
      <point x="797" y="1023"/>
    </contour>
    <contour>
      <point x="642" y="105" type="qcurve"/>
      <point x="547" y="107"/>
      <point x="467" y="156" type="qcurve"/>
      <point x="390" y="207"/>
      <point x="346" y="295" type="qcurve"/>
      <point x="303" y="385"/>
      <point x="303" y="498" type="qcurve"/>
      <point x="303" y="615"/>
      <point x="346" y="701" type="qcurve"/>
      <point x="390" y="791"/>
      <point x="467" y="840" type="qcurve"/>
      <point x="547" y="892"/>
      <point x="642" y="890" type="qcurve"/>
      <point x="738" y="892"/>
      <point x="814" y="840" type="qcurve"/>
      <point x="892" y="791"/>
      <point x="931" y="701" type="qcurve"/>
      <point x="974" y="615"/>
      <point x="974" y="498" type="qcurve"/>
      <point x="974" y="385"/>
      <point x="931" y="293" type="qcurve"/>
      <point x="890" y="205"/>
      <point x="812" y="156" type="qcurve"/>
      <point x="738" y="107"/>
    </contour>
  </outline>
</glyph>
<glyph name="ydieresis" format="2">
  <advance width="1143"/>
  <unicode hex="00FF"/>
  <outline>
    <contour>
      <point x="351" y="-379" type="line"/>
      <point x="492" y="-379" type="line"/>
      <point x="1054" y="996" type="line"/>
      <point x="896" y="996" type="line"/>
      <point x="570" y="172" type="line"/>
      <point x="217" y="996" type="line"/>
      <point x="57" y="996" type="line"/>
      <point x="498" y="0" type="line"/>
    </contour>
    <contour>
      <point x="369" y="1277" type="qcurve"/>
      <point x="332" y="1277"/>
      <point x="281" y="1224"/>
      <point x="281" y="1187" type="qcurve"/>
      <point x="281" y="1150"/>
      <point x="332" y="1099"/>
      <point x="369" y="1099" type="qcurve"/>
      <point x="406" y="1099"/>
      <point x="459" y="1150"/>
      <point x="459" y="1187" type="qcurve"/>
      <point x="459" y="1224"/>
      <point x="406" y="1277"/>
    </contour>
    <contour>
      <point x="740" y="1277" type="qcurve"/>
      <point x="703" y="1277"/>
      <point x="654" y="1224"/>
      <point x="654" y="1189" type="qcurve"/>
      <point x="654" y="1152"/>
      <point x="703" y="1099"/>
      <point x="740" y="1099" type="qcurve"/>
      <point x="777" y="1099"/>
      <point x="830" y="1152"/>
      <point x="830" y="1189" type="qcurve"/>
      <point x="830" y="1224"/>
      <point x="777" y="1277"/>
    </contour>
  </outline>
</glyph>
<glyph name="abreve" format="2">
  <advance width="1229"/>
  <unicode hex="0103"/>
  <outline>
    <contour>
      <point x="590" y="105" type="qcurve"/>
      <point x="496" y="107"/>
      <point x="416" y="156" type="qcurve"/>
      <point x="340" y="207"/>
      <point x="297" y="295" type="qcurve"/>
      <point x="256" y="385"/>
      <point x="256" y="498" type="qcurve"/>
      <point x="256" y="615"/>
      <point x="297" y="701" type="qcurve"/>
      <point x="340" y="791"/>
      <point x="418" y="840" type="qcurve"/>
      <point x="496" y="892"/>
      <point x="590" y="890" type="qcurve"/>
      <point x="687" y="892"/>
      <point x="763" y="840" type="qcurve"/>
      <point x="840" y="791"/>
      <point x="882" y="701" type="qcurve"/>
      <point x="925" y="615"/>
      <point x="925" y="498" type="qcurve"/>
      <point x="925" y="385"/>
      <point x="882" y="293" type="qcurve"/>
      <point x="840" y="205"/>
      <point x="763" y="156" type="qcurve"/>
      <point x="687" y="107"/>
    </contour>
    <contour>
      <point x="1070" y="996" type="line"/>
      <point x="925" y="996" type="line"/>
      <point x="925" y="810" type="line"/>
      <point x="867" y="910"/>
      <point x="681" y="1021"/>
      <point x="564" y="1021" type="qcurve"/>
      <point x="435" y="1021"/>
      <point x="328" y="953" type="qcurve"/>
      <point x="226" y="888"/>
      <point x="164" y="767" type="qcurve"/>
      <point x="105" y="648"/>
      <point x="102" y="498" type="qcurve"/>
      <point x="105" y="353"/>
      <point x="164" y="230" type="qcurve"/>
      <point x="226" y="111"/>
      <point x="330" y="43" type="qcurve"/>
      <point x="435" y="-25"/>
      <point x="564" y="-23" type="qcurve"/>
      <point x="683" y="-23"/>
      <point x="869" y="90"/>
      <point x="925" y="187" type="qcurve"/>
      <point x="925" y="0" type="line"/>
      <point x="1070" y="0" type="line"/>
    </contour>
    <contour>
      <point x="588" y="1123" type="qcurve"/>
      <point x="668" y="1123"/>
      <point x="740" y="1154" type="qcurve"/>
      <point x="816" y="1185"/>
      <point x="867" y="1240" type="qcurve"/>
      <point x="779" y="1330" type="line"/>
      <point x="742" y="1294"/>
      <point x="687" y="1269" type="qcurve"/>
      <point x="638" y="1248"/>
      <point x="588" y="1248" type="qcurve"/>
      <point x="537" y="1248"/>
      <point x="484" y="1269" type="qcurve"/>
      <point x="435" y="1294"/>
      <point x="398" y="1330" type="qcurve"/>
      <point x="305" y="1240" type="line"/>
      <point x="365" y="1183"/>
      <point x="439" y="1152" type="qcurve"/>
      <point x="512" y="1123"/>
    </contour>
  </outline>
</glyph>
<glyph name="Aogonek" format="2">
  <advance width="1352"/>
  <unicode hex="0104"/>
  <outline>
    <contour>
      <point x="596" y="1456" type="line"/>
      <point x="63" y="0" type="line"/>
      <point x="225" y="0" type="line"/>
      <point x="378" y="418" type="line"/>
      <point x="977" y="418" type="line"/>
      <point x="1127" y="0" type="line"/>
      <point x="1288" y="0" type="line"/>
      <point x="760" y="1456" type="line"/>
    </contour>
    <contour>
      <point x="678" y="1234" type="line"/>
      <point x="926" y="558" type="line"/>
      <point x="429" y="558" type="line"/>
    </contour>
    <contour>
      <point x="700" y="-472" type="qcurve"/>
      <point x="794" y="-472"/>
      <point x="860" y="-418" type="qcurve"/>
      <point x="801" y="-322" type="line"/>
      <point x="768" y="-357"/>
      <point x="708" y="-359" type="qcurve"/>
      <point x="655" y="-361"/>
      <point x="626" y="-330" type="qcurve"/>
      <point x="598" y="-299"/>
      <point x="598" y="-248" type="qcurve"/>
      <point x="598" y="-201"/>
      <point x="630" y="-170" type="qcurve"/>
      <point x="663" y="-139"/>
      <point x="708" y="-139" type="qcurve"/>
      <point x="591" y="-102" type="line"/>
      <point x="548" y="-121"/>
      <point x="518" y="-166" type="qcurve"/>
      <point x="487" y="-211"/>
      <point x="489" y="-266" type="qcurve"/>
      <point x="489" y="-361"/>
      <point x="546" y="-420" type="qcurve"/>
      <point x="606" y="-474"/>
    </contour>
  </outline>
</glyph>
<glyph name="aogonek" format="2">
  <advance width="1229"/>
  <unicode hex="0105"/>
  <outline>
    <contour>
      <point x="590" y="105" type="qcurve"/>
      <point x="496" y="107"/>
      <point x="416" y="156" type="qcurve"/>
      <point x="340" y="207"/>
      <point x="297" y="295" type="qcurve"/>
      <point x="256" y="385"/>
      <point x="256" y="498" type="qcurve"/>
      <point x="256" y="615"/>
      <point x="297" y="701" type="qcurve"/>
      <point x="340" y="791"/>
      <point x="418" y="840" type="qcurve"/>
      <point x="496" y="892"/>
      <point x="590" y="890" type="qcurve"/>
      <point x="687" y="892"/>
      <point x="763" y="840" type="qcurve"/>
      <point x="840" y="791"/>
      <point x="882" y="701" type="qcurve"/>
      <point x="925" y="615"/>
      <point x="925" y="498" type="qcurve"/>
      <point x="925" y="385"/>
      <point x="882" y="293" type="qcurve"/>
      <point x="840" y="205"/>
      <point x="763" y="156" type="qcurve"/>
      <point x="687" y="107"/>
    </contour>
    <contour>
      <point x="1070" y="996" type="line"/>
      <point x="925" y="996" type="line"/>
      <point x="925" y="810" type="line"/>
      <point x="867" y="910"/>
      <point x="681" y="1021"/>
      <point x="564" y="1021" type="qcurve"/>
      <point x="435" y="1021"/>
      <point x="328" y="953" type="qcurve"/>
      <point x="226" y="888"/>
      <point x="164" y="767" type="qcurve"/>
      <point x="105" y="648"/>
      <point x="102" y="498" type="qcurve"/>
      <point x="105" y="353"/>
      <point x="164" y="230" type="qcurve"/>
      <point x="226" y="111"/>
      <point x="330" y="43" type="qcurve"/>
      <point x="435" y="-25"/>
      <point x="564" y="-23" type="qcurve"/>
      <point x="683" y="-23"/>
      <point x="869" y="90"/>
      <point x="925" y="187" type="qcurve"/>
      <point x="925" y="0" type="line"/>
      <point x="1070" y="0" type="line"/>
    </contour>
    <contour>
      <point x="613" y="-496" type="qcurve"/>
      <point x="707" y="-496"/>
      <point x="773" y="-443" type="qcurve"/>
      <point x="713" y="-346" type="line"/>
      <point x="681" y="-381"/>
      <point x="621" y="-383" type="qcurve"/>
      <point x="568" y="-385"/>
      <point x="539" y="-355" type="qcurve"/>
      <point x="510" y="-324"/>
      <point x="510" y="-273" type="qcurve"/>
      <point x="510" y="-226"/>
      <point x="543" y="-195" type="qcurve"/>
      <point x="576" y="-164"/>
      <point x="621" y="-164" type="qcurve"/>
      <point x="504" y="-127" type="line"/>
      <point x="461" y="-146"/>
      <point x="430" y="-191" type="qcurve"/>
      <point x="400" y="-236"/>
      <point x="402" y="-291" type="qcurve"/>
      <point x="402" y="-385"/>
      <point x="459" y="-445" type="qcurve"/>
      <point x="519" y="-498"/>
    </contour>
  </outline>
</glyph>
<glyph name="cacute" format="2">
  <advance width="1044"/>
  <unicode hex="0107"/>
  <outline>
    <contour>
      <point x="609" y="-23" type="qcurve"/>
      <point x="713" y="-23"/>
      <point x="806" y="18" type="qcurve"/>
      <point x="900" y="59"/>
      <point x="970" y="129" type="qcurve"/>
      <point x="869" y="228" type="line"/>
      <point x="818" y="168"/>
      <point x="750" y="135" type="qcurve"/>
      <point x="685" y="105"/>
      <point x="609" y="105" type="qcurve"/>
      <point x="512" y="107"/>
      <point x="426" y="160" type="qcurve"/>
      <point x="342" y="213"/>
      <point x="291" y="303" type="qcurve"/>
      <point x="244" y="394"/>
      <point x="246" y="498" type="qcurve"/>
      <point x="246" y="603"/>
      <point x="293" y="693" type="qcurve"/>
      <point x="344" y="785"/>
      <point x="428" y="838" type="qcurve"/>
      <point x="512" y="892"/>
      <point x="609" y="890" type="qcurve"/>
      <point x="685" y="890"/>
      <point x="748" y="861" type="qcurve"/>
      <point x="816" y="830"/>
      <point x="865" y="775" type="qcurve"/>
      <point x="964" y="873" type="line"/>
      <point x="894" y="943"/>
      <point x="800" y="982" type="qcurve"/>
      <point x="709" y="1021"/>
      <point x="609" y="1021" type="qcurve"/>
      <point x="472" y="1021"/>
      <point x="353" y="949" type="qcurve"/>
      <point x="234" y="882"/>
      <point x="162" y="758" type="qcurve"/>
      <point x="94" y="640"/>
      <point x="94" y="498" type="qcurve"/>
      <point x="94" y="361"/>
      <point x="164" y="240" type="qcurve"/>
      <point x="236" y="119"/>
      <point x="353" y="49" type="qcurve"/>
      <point x="472" y="-20"/>
    </contour>
    <contour>
      <point x="574" y="1400" type="line"/>
      <point x="340" y="1123" type="line"/>
      <point x="453" y="1123" type="line"/>
      <point x="726" y="1365" type="line"/>
    </contour>
  </outline>
</glyph>
<glyph name="Ccircumflex" format="2">
  <advance width="1421"/>
  <unicode hex="0108"/>
  <outline>
    <contour>
      <point x="845" y="1478" type="qcurve"/>
      <point x="648" y="1480"/>
      <point x="476" y="1376" type="qcurve"/>
      <point x="308" y="1273"/>
      <point x="203" y="1101" type="qcurve"/>
      <point x="98" y="931"/>
      <point x="98" y="728" type="qcurve"/>
      <point x="98" y="527"/>
      <point x="203" y="355" type="qcurve"/>
      <point x="305" y="184"/>
      <point x="478" y="80" type="qcurve"/>
      <point x="648" y="-23"/>
      <point x="845" y="-23" type="qcurve"/>
      <point x="1046" y="-20"/>
      <point x="1214" y="82" type="qcurve"/>
      <point x="1300" y="135"/>
      <point x="1365" y="201" type="qcurve"/>
      <point x="1259" y="308" type="line"/>
      <point x="1205" y="254"/>
      <point x="1136" y="213" type="qcurve"/>
      <point x="998" y="127"/>
      <point x="845" y="129" type="qcurve"/>
      <point x="689" y="127"/>
      <point x="549" y="213" type="qcurve"/>
      <point x="480" y="256"/>
      <point x="375" y="363"/>
      <point x="332" y="433" type="qcurve"/>
      <point x="250" y="574"/>
      <point x="254" y="728" type="qcurve"/>
      <point x="254" y="886"/>
      <point x="334" y="1029" type="qcurve"/>
      <point x="375" y="1101"/>
      <point x="482" y="1203"/>
      <point x="551" y="1246" type="qcurve"/>
      <point x="691" y="1328"/>
      <point x="845" y="1326" type="qcurve"/>
      <point x="1000" y="1328"/>
      <point x="1138" y="1244" type="qcurve"/>
      <point x="1205" y="1201"/>
      <point x="1261" y="1148" type="qcurve"/>
      <point x="1367" y="1255" type="line"/>
      <point x="1298" y="1324"/>
      <point x="1212" y="1378" type="qcurve"/>
      <point x="1046" y="1480"/>
    </contour>
    <contour>
      <point x="664" y="1847" type="line"/>
      <point x="472" y="1583" type="line"/>
      <point x="582" y="1583" type="line"/>
      <point x="732" y="1747" type="line"/>
      <point x="884" y="1583" type="line"/>
      <point x="996" y="1583" type="line"/>
      <point x="800" y="1847" type="line"/>
    </contour>
  </outline>
</glyph>
<glyph name="Dcaron" format="2">
  <advance width="1466"/>
  <unicode hex="010E"/>
  <outline>
    <contour>
      <point x="180" y="1456" type="line"/>
      <point x="180" y="0" type="line"/>
      <point x="629" y="0" type="line"/>
      <point x="836" y="0"/>
      <point x="1000" y="94" type="qcurve"/>
      <point x="1164" y="189"/>
      <point x="1255" y="355" type="qcurve"/>
      <point x="1345" y="521"/>
      <point x="1345" y="728" type="qcurve"/>
      <point x="1345" y="939"/>
      <point x="1255" y="1105" type="qcurve"/>
      <point x="1162" y="1271"/>
      <point x="998" y="1363" type="qcurve"/>
      <point x="836" y="1456"/>
      <point x="629" y="1456" type="qcurve"/>
    </contour>
    <contour>
      <point x="629" y="135" type="qcurve"/>
      <point x="332" y="135" type="line"/>
      <point x="332" y="1318" type="line"/>
      <point x="629" y="1318" type="line"/>
      <point x="791" y="1320"/>
      <point x="920" y="1244" type="qcurve"/>
      <point x="1050" y="1168"/>
      <point x="1121" y="1033" type="qcurve"/>
      <point x="1197" y="898"/>
      <point x="1193" y="728" type="qcurve"/>
      <point x="1195" y="562"/>
      <point x="1119" y="422" type="qcurve"/>
      <point x="1048" y="291"/>
      <point x="918" y="213" type="qcurve"/>
      <point x="791" y="135"/>
    </contour>
    <contour>
      <point x="500" y="1822" type="line"/>
      <point x="693" y="1558" type="line"/>
      <point x="828" y="1558" type="line"/>
      <point x="1025" y="1822" type="line"/>
      <point x="912" y="1822" type="line"/>
      <point x="761" y="1656" type="line"/>
      <point x="611" y="1822" type="line"/>
    </contour>
  </outline>
</glyph>
<glyph name="dcaron" format="2">
  <advance width="1229"/>
  <unicode hex="010F"/>
  <outline>
    <contour>
      <point x="590" y="105" type="qcurve"/>
      <point x="496" y="107"/>
      <point x="416" y="156" type="qcurve"/>
      <point x="340" y="207"/>
      <point x="297" y="295" type="qcurve"/>
      <point x="256" y="385"/>
      <point x="256" y="498" type="qcurve"/>
      <point x="256" y="615"/>
      <point x="297" y="701" type="qcurve"/>
      <point x="340" y="791"/>
      <point x="418" y="840" type="qcurve"/>
      <point x="496" y="892"/>
      <point x="590" y="890" type="qcurve"/>
      <point x="687" y="892"/>
      <point x="763" y="840" type="qcurve"/>
      <point x="840" y="791"/>
      <point x="882" y="701" type="qcurve"/>
      <point x="925" y="615"/>
      <point x="925" y="498" type="qcurve"/>
      <point x="925" y="385"/>
      <point x="882" y="293" type="qcurve"/>
      <point x="840" y="205"/>
      <point x="763" y="156" type="qcurve"/>
      <point x="687" y="107"/>
    </contour>
    <contour>
      <point x="1070" y="996" type="line"/>
      <point x="925" y="996" type="line"/>
      <point x="925" y="810" type="line"/>
      <point x="867" y="910"/>
      <point x="681" y="1021"/>
      <point x="564" y="1021" type="qcurve"/>
      <point x="435" y="1021"/>
      <point x="328" y="953" type="qcurve"/>
      <point x="226" y="888"/>
      <point x="164" y="767" type="qcurve"/>
      <point x="105" y="648"/>
      <point x="102" y="498" type="qcurve"/>
      <point x="105" y="353"/>
      <point x="164" y="230" type="qcurve"/>
      <point x="226" y="111"/>
      <point x="330" y="43" type="qcurve"/>
      <point x="435" y="-25"/>
      <point x="564" y="-23" type="qcurve"/>
      <point x="683" y="-23"/>
      <point x="869" y="90"/>
      <point x="925" y="187" type="qcurve"/>
      <point x="925" y="0" type="line"/>
      <point x="1070" y="0" type="line"/>
    </contour>
    <contour>
      <point x="1070" y="1456" type="line"/>
      <point x="925" y="1456" type="line"/>
      <point x="925" y="996" type="line"/>
      <point x="1070" y="996" type="line"/>
    </contour>
    <contour>
      <point x="324" y="1822" type="line"/>
      <point x="517" y="1558" type="line"/>
      <point x="652" y="1558" type="line"/>
      <point x="849" y="1822" type="line"/>
      <point x="736" y="1822" type="line"/>
      <point x="584" y="1656" type="line"/>
      <point x="435" y="1822" type="line"/>
    </contour>
  </outline>
</glyph>
<glyph name="Ebreve" format="2">
  <advance width="1208"/>
  <unicode hex="0114"/>
  <outline>
    <contour>
      <point x="303" y="1312" type="line"/>
      <point x="1103" y="1312" type="line"/>
      <point x="1103" y="1456" type="line"/>
      <point x="152" y="1456" type="line"/>
      <point x="152" y="0" type="line"/>
      <point x="1103" y="0" type="line"/>
      <point x="1103" y="141" type="line"/>
      <point x="303" y="141" type="line"/>
      <point x="303" y="670" type="line"/>
      <point x="1025" y="670" type="line"/>
      <point x="1025" y="812" type="line"/>
      <point x="303" y="812" type="line"/>
    </contour>
    <contour>
      <point x="629" y="1558" type="qcurve"/>
      <point x="709" y="1558"/>
      <point x="781" y="1589" type="qcurve"/>
      <point x="857" y="1620"/>
      <point x="908" y="1675" type="qcurve"/>
      <point x="820" y="1765" type="line"/>
      <point x="783" y="1728"/>
      <point x="728" y="1704" type="qcurve"/>
      <point x="679" y="1683"/>
      <point x="629" y="1683" type="qcurve"/>
      <point x="578" y="1683"/>
      <point x="525" y="1704" type="qcurve"/>
      <point x="476" y="1728"/>
      <point x="439" y="1765" type="qcurve"/>
      <point x="346" y="1675" type="line"/>
      <point x="406" y="1617"/>
      <point x="480" y="1587" type="qcurve"/>
      <point x="554" y="1558"/>
    </contour>
  </outline>
</glyph>
<glyph name="ebreve" format="2">
  <advance width="1147"/>
  <unicode hex="0115"/>
  <outline>
    <contour>
      <point x="597" y="105" type="qcurve"/>
      <point x="451" y="107"/>
      <point x="353" y="201" type="qcurve"/>
      <point x="258" y="295"/>
      <point x="242" y="445" type="qcurve"/>
      <point x="1058" y="445" type="line"/>
      <point x="1058" y="709"/>
      <point x="931" y="865" type="qcurve"/>
      <point x="808" y="1021"/>
      <point x="584" y="1021" type="qcurve"/>
      <point x="451" y="1021"/>
      <point x="336" y="953" type="qcurve"/>
      <point x="226" y="886"/>
      <point x="158" y="765" type="qcurve"/>
      <point x="92" y="648"/>
      <point x="94" y="500" type="qcurve"/>
      <point x="94" y="353"/>
      <point x="164" y="232" type="qcurve"/>
      <point x="234" y="111"/>
      <point x="348" y="45" type="qcurve"/>
      <point x="463" y="-23"/>
      <point x="599" y="-23" type="qcurve"/>
      <point x="707" y="-20"/>
      <point x="822" y="20" type="qcurve"/>
      <point x="935" y="62"/>
      <point x="998" y="131" type="qcurve"/>
      <point x="910" y="226" type="line"/>
      <point x="865" y="174"/>
      <point x="773" y="139" type="qcurve"/>
      <point x="685" y="107"/>
    </contour>
    <contour>
      <point x="590" y="890" type="qcurve"/>
      <point x="736" y="890"/>
      <point x="816" y="802" type="qcurve"/>
      <point x="900" y="718"/>
      <point x="914" y="572" type="qcurve"/>
      <point x="244" y="572" type="line"/>
      <point x="264" y="718"/>
      <point x="359" y="804" type="qcurve"/>
      <point x="455" y="892"/>
    </contour>
    <contour>
      <point x="578" y="1123" type="qcurve"/>
      <point x="658" y="1123"/>
      <point x="730" y="1154" type="qcurve"/>
      <point x="806" y="1185"/>
      <point x="857" y="1240" type="qcurve"/>
      <point x="769" y="1330" type="line"/>
      <point x="732" y="1294"/>
      <point x="676" y="1269" type="qcurve"/>
      <point x="627" y="1248"/>
      <point x="578" y="1248" type="qcurve"/>
      <point x="527" y="1248"/>
      <point x="474" y="1269" type="qcurve"/>
      <point x="424" y="1294"/>
      <point x="387" y="1330" type="qcurve"/>
      <point x="295" y="1240" type="line"/>
      <point x="355" y="1183"/>
      <point x="428" y="1152" type="qcurve"/>
      <point x="502" y="1123"/>
    </contour>
  </outline>
</glyph>
<glyph name="Eogonek" format="2">
  <advance width="1208"/>
  <unicode hex="0118"/>
  <outline>
    <contour>
      <point x="303" y="1312" type="line"/>
      <point x="1103" y="1312" type="line"/>
      <point x="1103" y="1456" type="line"/>
      <point x="152" y="1456" type="line"/>
      <point x="152" y="0" type="line"/>
      <point x="1103" y="0" type="line"/>
      <point x="1103" y="141" type="line"/>
      <point x="303" y="141" type="line"/>
      <point x="303" y="670" type="line"/>
      <point x="1025" y="670" type="line"/>
      <point x="1025" y="812" type="line"/>
      <point x="303" y="812" type="line"/>
    </contour>
    <contour>
      <point x="654" y="-472" type="qcurve"/>
      <point x="748" y="-472"/>
      <point x="814" y="-418" type="qcurve"/>
      <point x="754" y="-322" type="line"/>
      <point x="722" y="-357"/>
      <point x="662" y="-359" type="qcurve"/>
      <point x="609" y="-361"/>
      <point x="580" y="-330" type="qcurve"/>
      <point x="551" y="-299"/>
      <point x="551" y="-248" type="qcurve"/>
      <point x="551" y="-201"/>
      <point x="584" y="-170" type="qcurve"/>
      <point x="617" y="-139"/>
      <point x="662" y="-139" type="qcurve"/>
      <point x="545" y="-102" type="line"/>
      <point x="502" y="-121"/>
      <point x="472" y="-166" type="qcurve"/>
      <point x="441" y="-211"/>
      <point x="443" y="-266" type="qcurve"/>
      <point x="443" y="-361"/>
      <point x="500" y="-420" type="qcurve"/>
      <point x="560" y="-474"/>
    </contour>
  </outline>
</glyph>
<glyph name="eogonek" format="2">
  <advance width="1147"/>
  <unicode hex="0119"/>
  <outline>
    <contour>
      <point x="597" y="105" type="qcurve"/>
      <point x="451" y="107"/>
      <point x="353" y="201" type="qcurve"/>
      <point x="258" y="295"/>
      <point x="242" y="445" type="qcurve"/>
      <point x="1058" y="445" type="line"/>
      <point x="1058" y="709"/>
      <point x="931" y="865" type="qcurve"/>
      <point x="808" y="1021"/>
      <point x="584" y="1021" type="qcurve"/>
      <point x="451" y="1021"/>
      <point x="336" y="953" type="qcurve"/>
      <point x="226" y="886"/>
      <point x="158" y="765" type="qcurve"/>
      <point x="92" y="648"/>
      <point x="94" y="500" type="qcurve"/>
      <point x="94" y="353"/>
      <point x="164" y="232" type="qcurve"/>
      <point x="234" y="111"/>
      <point x="348" y="45" type="qcurve"/>
      <point x="463" y="-23"/>
      <point x="599" y="-23" type="qcurve"/>
      <point x="707" y="-20"/>
      <point x="822" y="20" type="qcurve"/>
      <point x="935" y="62"/>
      <point x="998" y="131" type="qcurve"/>
      <point x="910" y="226" type="line"/>
      <point x="865" y="174"/>
      <point x="773" y="139" type="qcurve"/>
      <point x="685" y="107"/>
    </contour>
    <contour>
      <point x="590" y="890" type="qcurve"/>
      <point x="736" y="890"/>
      <point x="816" y="802" type="qcurve"/>
      <point x="900" y="718"/>
      <point x="914" y="572" type="qcurve"/>
      <point x="244" y="572" type="line"/>
      <point x="264" y="718"/>
      <point x="359" y="804" type="qcurve"/>
      <point x="455" y="892"/>
    </contour>
    <contour>
      <point x="603" y="-494" type="qcurve"/>
      <point x="697" y="-494"/>
      <point x="763" y="-441" type="qcurve"/>
      <point x="703" y="-344" type="line"/>
      <point x="670" y="-379"/>
      <point x="611" y="-381" type="qcurve"/>
      <point x="558" y="-383"/>
      <point x="529" y="-353" type="qcurve"/>
      <point x="500" y="-322"/>
      <point x="500" y="-271" type="qcurve"/>
      <point x="500" y="-223"/>
      <point x="533" y="-193" type="qcurve"/>
      <point x="566" y="-162"/>
      <point x="611" y="-162" type="qcurve"/>
      <point x="494" y="-125" type="line"/>
      <point x="451" y="-144"/>
      <point x="420" y="-189" type="qcurve"/>
      <point x="390" y="-234"/>
      <point x="392" y="-289" type="qcurve"/>
      <point x="392" y="-383"/>
      <point x="449" y="-443" type="qcurve"/>
      <point x="508" y="-496"/>
    </contour>
  </outline>
</glyph>
<glyph name="Gbreve" format="2">
  <advance width="1634"/>
  <unicode hex="011E"/>
  <outline>
    <contour>
      <point x="98" y="726" type="qcurve"/>
      <point x="98" y="566"/>
      <point x="221" y="289"/>
      <point x="426" y="90"/>
      <point x="689" y="-23"/>
      <point x="824" y="-23" type="qcurve"/>
      <point x="1021" y="-23"/>
      <point x="1294" y="121"/>
      <point x="1466" y="324"/>
      <point x="1544" y="545"/>
      <point x="1544" y="623" type="qcurve"/>
      <point x="1544" y="726" type="line"/>
      <point x="855" y="726" type="line"/>
      <point x="855" y="584" type="line"/>
      <point x="1402" y="584" type="line"/>
      <point x="1402" y="547"/>
      <point x="1341" y="392"/>
      <point x="1205" y="238"/>
      <point x="984" y="123"/>
      <point x="824" y="123" type="qcurve"/>
      <point x="689" y="123"/>
      <point x="476" y="232"/>
      <point x="328" y="404"/>
      <point x="254" y="621"/>
      <point x="254" y="726" type="qcurve"/>
      <point x="254" y="857"/>
      <point x="348" y="1080"/>
      <point x="510" y="1242"/>
      <point x="730" y="1337"/>
      <point x="855" y="1337" type="qcurve"/>
      <point x="953" y="1337"/>
      <point x="1125" y="1275"/>
      <point x="1253" y="1201"/>
      <point x="1326" y="1140" type="qcurve"/>
      <point x="1404" y="1236" type="line"/>
      <point x="1326" y="1310"/>
      <point x="1183" y="1400"/>
      <point x="980" y="1478"/>
      <point x="853" y="1478" type="qcurve"/>
      <point x="713" y="1478"/>
      <point x="443" y="1371"/>
      <point x="230" y="1175"/>
      <point x="98" y="898"/>
    </contour>
    <contour>
      <point x="822" y="1581" type="qcurve"/>
      <point x="902" y="1581"/>
      <point x="974" y="1611" type="qcurve"/>
      <point x="1050" y="1642"/>
      <point x="1101" y="1697" type="qcurve"/>
      <point x="1013" y="1788" type="line"/>
      <point x="976" y="1751"/>
      <point x="920" y="1726" type="qcurve"/>
      <point x="871" y="1706"/>
      <point x="822" y="1706" type="qcurve"/>
      <point x="771" y="1706"/>
      <point x="718" y="1726" type="qcurve"/>
      <point x="668" y="1751"/>
      <point x="631" y="1788" type="qcurve"/>
      <point x="539" y="1697" type="line"/>
      <point x="599" y="1640"/>
      <point x="672" y="1609" type="qcurve"/>
      <point x="746" y="1581"/>
    </contour>
  </outline>
</glyph>
<glyph name="Gcedilla" format="2">
  <advance width="1634"/>
  <unicode hex="0122"/>
  <outline>
    <contour>
      <point x="98" y="726" type="qcurve"/>
      <point x="98" y="566"/>
      <point x="221" y="289"/>
      <point x="426" y="90"/>
      <point x="689" y="-23"/>
      <point x="824" y="-23" type="qcurve"/>
      <point x="1021" y="-23"/>
      <point x="1294" y="121"/>
      <point x="1466" y="324"/>
      <point x="1544" y="545"/>
      <point x="1544" y="623" type="qcurve"/>
      <point x="1544" y="726" type="line"/>
      <point x="855" y="726" type="line"/>
      <point x="855" y="584" type="line"/>
      <point x="1402" y="584" type="line"/>
      <point x="1402" y="547"/>
      <point x="1341" y="392"/>
      <point x="1205" y="238"/>
      <point x="984" y="123"/>
      <point x="824" y="123" type="qcurve"/>
      <point x="689" y="123"/>
      <point x="476" y="232"/>
      <point x="328" y="404"/>
      <point x="254" y="621"/>
      <point x="254" y="726" type="qcurve"/>
      <point x="254" y="857"/>
      <point x="348" y="1080"/>
      <point x="510" y="1242"/>
      <point x="730" y="1337"/>
      <point x="855" y="1337" type="qcurve"/>
      <point x="953" y="1337"/>
      <point x="1125" y="1275"/>
      <point x="1253" y="1201"/>
      <point x="1326" y="1140" type="qcurve"/>
      <point x="1404" y="1236" type="line"/>
      <point x="1326" y="1310"/>
      <point x="1183" y="1400"/>
      <point x="980" y="1478"/>
      <point x="853" y="1478" type="qcurve"/>
      <point x="713" y="1478"/>
      <point x="443" y="1371"/>
      <point x="230" y="1175"/>
      <point x="98" y="898"/>
    </contour>
    <contour>
      <point x="865" y="-234" type="qcurve"/>
      <point x="853" y="-232"/>
      <point x="845" y="-236" type="qcurve"/>
      <point x="890" y="-125" type="line"/>
      <point x="791" y="-125" type="line"/>
      <point x="728" y="-275" type="line"/>
      <point x="758" y="-308" type="line"/>
      <point x="787" y="-285"/>
      <point x="822" y="-285" type="qcurve"/>
      <point x="859" y="-285"/>
      <point x="879" y="-305" type="qcurve"/>
      <point x="900" y="-322"/>
      <point x="898" y="-353" type="qcurve"/>
      <point x="900" y="-383"/>
      <point x="871" y="-406" type="qcurve"/>
      <point x="845" y="-426"/>
      <point x="804" y="-426" type="qcurve"/>
      <point x="734" y="-424"/>
      <point x="676" y="-381" type="qcurve"/>
      <point x="640" y="-461" type="line"/>
      <point x="670" y="-484"/>
      <point x="718" y="-500" type="qcurve"/>
      <point x="765" y="-515"/>
      <point x="810" y="-515" type="qcurve"/>
      <point x="892" y="-515"/>
      <point x="945" y="-472" type="qcurve"/>
      <point x="1000" y="-428"/>
      <point x="1000" y="-359" type="qcurve"/>
      <point x="1002" y="-301"/>
      <point x="961" y="-266" type="qcurve"/>
      <point x="925" y="-232"/>
    </contour>
  </outline>
</glyph>
<glyph name="gcedilla" format="2">
  <advance width="1229"/>
  <unicode hex="0123"/>
  <outline>
    <contour>
      <point x="937" y="0" type="line"/>
      <point x="937" y="-86"/>
      <point x="843" y="-193" type="qcurve"/>
      <point x="746" y="-275"/>
      <point x="574" y="-275" type="qcurve"/>
      <point x="482" y="-275"/>
      <point x="396" y="-244" type="qcurve"/>
      <point x="312" y="-213"/>
      <point x="254" y="-156" type="qcurve"/>
      <point x="191" y="-271" type="line"/>
      <point x="260" y="-328"/>
      <point x="367" y="-367" type="qcurve"/>
      <point x="476" y="-402"/>
      <point x="592" y="-404" type="qcurve"/>
      <point x="738" y="-402"/>
      <point x="849" y="-346" type="qcurve"/>
      <point x="959" y="-289"/>
      <point x="1021" y="-191" type="qcurve"/>
      <point x="1082" y="-102"/>
      <point x="1082" y="0" type="qcurve"/>
    </contour>
    <contour>
      <point x="603" y="105" type="qcurve"/>
      <point x="508" y="107"/>
      <point x="428" y="156" type="qcurve"/>
      <point x="353" y="207"/>
      <point x="310" y="295" type="qcurve"/>
      <point x="269" y="385"/>
      <point x="269" y="498" type="qcurve"/>
      <point x="269" y="615"/>
      <point x="310" y="701" type="qcurve"/>
      <point x="353" y="791"/>
      <point x="430" y="840" type="qcurve"/>
      <point x="508" y="892"/>
      <point x="603" y="890" type="qcurve"/>
      <point x="699" y="892"/>
      <point x="775" y="840" type="qcurve"/>
      <point x="853" y="791"/>
      <point x="894" y="701" type="qcurve"/>
      <point x="937" y="615"/>
      <point x="937" y="498" type="qcurve"/>
      <point x="937" y="385"/>
      <point x="894" y="293" type="qcurve"/>
      <point x="853" y="205"/>
      <point x="775" y="156" type="qcurve"/>
      <point x="699" y="107"/>
    </contour>
    <contour>
      <point x="1082" y="996" type="line"/>
      <point x="937" y="996" type="line"/>
      <point x="937" y="810" type="line"/>
      <point x="879" y="910"/>
      <point x="693" y="1021"/>
      <point x="576" y="1021" type="qcurve"/>
      <point x="447" y="1021"/>
      <point x="340" y="953" type="qcurve"/>
      <point x="238" y="888"/>
      <point x="176" y="767" type="qcurve"/>
      <point x="117" y="648"/>
      <point x="115" y="498" type="qcurve"/>
      <point x="117" y="353"/>
      <point x="176" y="230" type="qcurve"/>
      <point x="238" y="111"/>
      <point x="342" y="43" type="qcurve"/>
      <point x="447" y="-25"/>
      <point x="576" y="-23" type="qcurve"/>
      <point x="695" y="-23"/>
      <point x="882" y="90"/>
      <point x="937" y="187" type="qcurve"/>
      <point x="937" y="0" type="line"/>
      <point x="1082" y="0" type="line"/>
    </contour>
    <contour>
      <point x="644" y="-615" type="qcurve"/>
      <point x="631" y="-613"/>
      <point x="623" y="-617" type="qcurve"/>
      <point x="668" y="-506" type="line"/>
      <point x="570" y="-506" type="line"/>
      <point x="506" y="-656" type="line"/>
      <point x="537" y="-689" type="line"/>
      <point x="566" y="-666"/>
      <point x="601" y="-666" type="qcurve"/>
      <point x="638" y="-666"/>
      <point x="658" y="-687" type="qcurve"/>
      <point x="679" y="-703"/>
      <point x="676" y="-734" type="qcurve"/>
      <point x="679" y="-765"/>
      <point x="650" y="-787" type="qcurve"/>
      <point x="623" y="-808"/>
      <point x="582" y="-808" type="qcurve"/>
      <point x="512" y="-806"/>
      <point x="455" y="-763" type="qcurve"/>
      <point x="418" y="-843" type="line"/>
      <point x="449" y="-865"/>
      <point x="496" y="-882" type="qcurve"/>
      <point x="543" y="-896"/>
      <point x="588" y="-896" type="qcurve"/>
      <point x="670" y="-896"/>
      <point x="724" y="-853" type="qcurve"/>
      <point x="779" y="-810"/>
      <point x="779" y="-740" type="qcurve"/>
      <point x="781" y="-683"/>
      <point x="740" y="-648" type="qcurve"/>
      <point x="703" y="-613"/>
    </contour>
  </outline>
</glyph>
<glyph name="Itilde" format="2">
  <advance width="455"/>
  <unicode hex="0128"/>
  <outline>
    <contour>
      <point x="152" y="1456" type="line"/>
      <point x="152" y="0" type="line"/>
      <point x="301" y="0" type="line"/>
      <point x="301" y="1456" type="line"/>
    </contour>
    <contour>
      <point x="351" y="1562" type="qcurve"/>
      <point x="504" y="1564"/>
      <point x="535" y="1792" type="qcurve"/>
      <point x="447" y="1804" type="line"/>
      <point x="435" y="1736"/>
      <point x="412" y="1706" type="qcurve"/>
      <point x="390" y="1675"/>
      <point x="351" y="1675" type="qcurve"/>
      <point x="328" y="1675"/>
      <point x="303" y="1687" type="qcurve"/>
      <point x="283" y="1699"/>
      <point x="250" y="1728" type="qcurve"/>
      <point x="203" y="1765"/>
      <point x="170" y="1784" type="qcurve"/>
      <point x="139" y="1802"/>
      <point x="100" y="1800" type="qcurve"/>
      <point x="-53" y="1800"/>
      <point x="-84" y="1570" type="qcurve"/>
      <point x="4" y="1558" type="line"/>
      <point x="16" y="1628"/>
      <point x="41" y="1658" type="qcurve"/>
      <point x="66" y="1689"/>
      <point x="100" y="1689" type="qcurve"/>
      <point x="127" y="1691"/>
      <point x="148" y="1677" type="qcurve"/>
      <point x="172" y="1665"/>
      <point x="201" y="1634" type="qcurve"/>
      <point x="250" y="1599"/>
      <point x="279" y="1578" type="qcurve"/>
      <point x="310" y="1560"/>
    </contour>
  </outline>
</glyph>
<glyph name="Iogonek" format="2">
  <advance width="455"/>
  <unicode hex="012E"/>
  <outline>
    <contour>
      <point x="152" y="1456" type="line"/>
      <point x="152" y="0" type="line"/>
      <point x="301" y="0" type="line"/>
      <point x="301" y="1456" type="line"/>
    </contour>
    <contour>
      <point x="252" y="-472" type="qcurve"/>
      <point x="346" y="-472"/>
      <point x="412" y="-418" type="qcurve"/>
      <point x="353" y="-322" type="line"/>
      <point x="320" y="-357"/>
      <point x="260" y="-359" type="qcurve"/>
      <point x="207" y="-361"/>
      <point x="178" y="-330" type="qcurve"/>
      <point x="150" y="-299"/>
      <point x="150" y="-248" type="qcurve"/>
      <point x="150" y="-201"/>
      <point x="182" y="-170" type="qcurve"/>
      <point x="215" y="-139"/>
      <point x="260" y="-139" type="qcurve"/>
      <point x="144" y="-102" type="line"/>
      <point x="100" y="-121"/>
      <point x="70" y="-166" type="qcurve"/>
      <point x="39" y="-211"/>
      <point x="41" y="-266" type="qcurve"/>
      <point x="41" y="-361"/>
      <point x="98" y="-420" type="qcurve"/>
      <point x="158" y="-474"/>
    </contour>
  </outline>
</glyph>
<glyph name="Kcedilla" format="2">
  <advance width="1270"/>
  <unicode hex="0136"/>
  <outline>
    <contour>
      <point x="176" y="1456" type="line"/>
      <point x="176" y="0" type="line"/>
      <point x="328" y="0" type="line"/>
      <point x="328" y="728" type="line"/>
      <point x="1058" y="0" type="line"/>
      <point x="1255" y="0" type="line"/>
      <point x="504" y="748" type="line"/>
      <point x="1216" y="1456" type="line"/>
      <point x="1019" y="1456" type="line"/>
      <point x="328" y="767" type="line"/>
      <point x="328" y="1456" type="line"/>
    </contour>
    <contour>
      <point x="761" y="-211" type="qcurve"/>
      <point x="748" y="-209"/>
      <point x="740" y="-213" type="qcurve"/>
      <point x="785" y="-102" type="line"/>
      <point x="687" y="-102" type="line"/>
      <point x="623" y="-252" type="line"/>
      <point x="654" y="-285" type="line"/>
      <point x="683" y="-262"/>
      <point x="718" y="-262" type="qcurve"/>
      <point x="754" y="-262"/>
      <point x="775" y="-283" type="qcurve"/>
      <point x="795" y="-299"/>
      <point x="793" y="-330" type="qcurve"/>
      <point x="795" y="-361"/>
      <point x="767" y="-383" type="qcurve"/>
      <point x="740" y="-404"/>
      <point x="699" y="-404" type="qcurve"/>
      <point x="629" y="-402"/>
      <point x="572" y="-359" type="qcurve"/>
      <point x="535" y="-439" type="line"/>
      <point x="566" y="-461"/>
      <point x="613" y="-478" type="qcurve"/>
      <point x="660" y="-492"/>
      <point x="705" y="-492" type="qcurve"/>
      <point x="787" y="-492"/>
      <point x="840" y="-449" type="qcurve"/>
      <point x="896" y="-406"/>
      <point x="896" y="-336" type="qcurve"/>
      <point x="898" y="-279"/>
      <point x="857" y="-244" type="qcurve"/>
      <point x="820" y="-209"/>
    </contour>
  </outline>
</glyph>
<glyph name="kcedilla" format="2">
  <advance width="1026"/>
  <unicode hex="0137"/>
  <outline>
    <contour>
      <point x="141" y="1456" type="line"/>
      <point x="141" y="0" type="line"/>
      <point x="289" y="0" type="line"/>
      <point x="289" y="492" type="line"/>
      <point x="783" y="0" type="line"/>
      <point x="986" y="0" type="line"/>
      <point x="472" y="512" type="line"/>
      <point x="955" y="996" type="line"/>
      <point x="752" y="996" type="line"/>
      <point x="289" y="531" type="line"/>
      <point x="289" y="1456" type="line"/>
    </contour>
    <contour>
      <point x="609" y="-211" type="qcurve"/>
      <point x="597" y="-209"/>
      <point x="588" y="-213" type="qcurve"/>
      <point x="633" y="-102" type="line"/>
      <point x="535" y="-102" type="line"/>
      <point x="472" y="-252" type="line"/>
      <point x="502" y="-285" type="line"/>
      <point x="531" y="-262"/>
      <point x="566" y="-262" type="qcurve"/>
      <point x="603" y="-262"/>
      <point x="623" y="-283" type="qcurve"/>
      <point x="644" y="-299"/>
      <point x="642" y="-330" type="qcurve"/>
      <point x="644" y="-361"/>
      <point x="615" y="-383" type="qcurve"/>
      <point x="588" y="-404"/>
      <point x="547" y="-404" type="qcurve"/>
      <point x="478" y="-402"/>
      <point x="420" y="-359" type="qcurve"/>
      <point x="383" y="-439" type="line"/>
      <point x="414" y="-461"/>
      <point x="461" y="-478" type="qcurve"/>
      <point x="508" y="-492"/>
      <point x="554" y="-492" type="qcurve"/>
      <point x="636" y="-492"/>
      <point x="689" y="-449" type="qcurve"/>
      <point x="744" y="-406"/>
      <point x="744" y="-336" type="qcurve"/>
      <point x="746" y="-279"/>
      <point x="705" y="-244" type="qcurve"/>
      <point x="668" y="-209"/>
    </contour>
  </outline>
</glyph>
<glyph name="lacute" format="2">
  <advance width="438"/>
  <unicode hex="013A"/>
  <outline>
    <contour>
      <point x="146" y="1456" type="line"/>
      <point x="146" y="0" type="line"/>
      <point x="291" y="0" type="line"/>
      <point x="291" y="1456" type="line"/>
    </contour>
    <contour>
      <point x="260" y="1835" type="line"/>
      <point x="27" y="1558" type="line"/>
      <point x="139" y="1558" type="line"/>
      <point x="412" y="1800" type="line"/>
    </contour>
  </outline>
</glyph>
<glyph name="Lcedilla" format="2">
  <advance width="1069"/>
  <unicode hex="013B"/>
  <outline>
    <contour>
      <point x="1004" y="141" type="line"/>
      <point x="283" y="141" type="line"/>
      <point x="283" y="1456" type="line"/>
      <point x="131" y="1456" type="line"/>
      <point x="131" y="0" type="line"/>
      <point x="1004" y="0" type="line"/>
    </contour>
    <contour>
      <point x="613" y="-211" type="qcurve"/>
      <point x="601" y="-209"/>
      <point x="592" y="-213" type="qcurve"/>
      <point x="638" y="-102" type="line"/>
      <point x="539" y="-102" type="line"/>
      <point x="476" y="-252" type="line"/>
      <point x="506" y="-285" type="line"/>
      <point x="535" y="-262"/>
      <point x="570" y="-262" type="qcurve"/>
      <point x="607" y="-262"/>
      <point x="627" y="-283" type="qcurve"/>
      <point x="648" y="-299"/>
      <point x="646" y="-330" type="qcurve"/>
      <point x="648" y="-361"/>
      <point x="619" y="-383" type="qcurve"/>
      <point x="592" y="-404"/>
      <point x="551" y="-404" type="qcurve"/>
      <point x="482" y="-402"/>
      <point x="424" y="-359" type="qcurve"/>
      <point x="387" y="-439" type="line"/>
      <point x="418" y="-461"/>
      <point x="465" y="-478" type="qcurve"/>
      <point x="512" y="-492"/>
      <point x="558" y="-492" type="qcurve"/>
      <point x="640" y="-492"/>
      <point x="693" y="-449" type="qcurve"/>
      <point x="748" y="-406"/>
      <point x="748" y="-336" type="qcurve"/>
      <point x="750" y="-279"/>
      <point x="709" y="-244" type="qcurve"/>
      <point x="672" y="-209"/>
    </contour>
  </outline>
</glyph>
<glyph name="lcedilla" format="2">
  <advance width="438"/>
  <unicode hex="013C"/>
  <outline>
    <contour>
      <point x="146" y="1456" type="line"/>
      <point x="146" y="0" type="line"/>
      <point x="291" y="0" type="line"/>
      <point x="291" y="1456" type="line"/>
    </contour>
    <contour>
      <point x="264" y="-211" type="qcurve"/>
      <point x="252" y="-209"/>
      <point x="244" y="-213" type="qcurve"/>
      <point x="289" y="-102" type="line"/>
      <point x="191" y="-102" type="line"/>
      <point x="127" y="-252" type="line"/>
      <point x="158" y="-285" type="line"/>
      <point x="187" y="-262"/>
      <point x="221" y="-262" type="qcurve"/>
      <point x="258" y="-262"/>
      <point x="279" y="-283" type="qcurve"/>
      <point x="299" y="-299"/>
      <point x="297" y="-330" type="qcurve"/>
      <point x="299" y="-361"/>
      <point x="271" y="-383" type="qcurve"/>
      <point x="244" y="-404"/>
      <point x="203" y="-404" type="qcurve"/>
      <point x="133" y="-402"/>
      <point x="76" y="-359" type="qcurve"/>
      <point x="39" y="-439" type="line"/>
      <point x="70" y="-461"/>
      <point x="117" y="-478" type="qcurve"/>
      <point x="164" y="-492"/>
      <point x="209" y="-492" type="qcurve"/>
      <point x="291" y="-492"/>
      <point x="344" y="-449" type="qcurve"/>
      <point x="400" y="-406"/>
      <point x="400" y="-336" type="qcurve"/>
      <point x="402" y="-279"/>
      <point x="361" y="-244" type="qcurve"/>
      <point x="324" y="-209"/>
    </contour>
  </outline>
</glyph>
<glyph name="Lcaron" format="2">
  <advance width="1069"/>
  <unicode hex="013D"/>
  <outline>
    <contour>
      <point x="1004" y="141" type="line"/>
      <point x="283" y="141" type="line"/>
      <point x="283" y="1456" type="line"/>
      <point x="131" y="1456" type="line"/>
      <point x="131" y="0" type="line"/>
      <point x="1004" y="0" type="line"/>
    </contour>
    <contour>
      <point x="305" y="1822" type="line"/>
      <point x="498" y="1558" type="line"/>
      <point x="633" y="1558" type="line"/>
      <point x="830" y="1822" type="line"/>
      <point x="718" y="1822" type="line"/>
      <point x="566" y="1656" type="line"/>
      <point x="416" y="1822" type="line"/>
    </contour>
  </outline>
</glyph>
<glyph name="Nacute" format="2">
  <advance width="1565"/>
  <unicode hex="0143"/>
  <outline>
    <contour>
      <point x="180" y="1456" type="line"/>
      <point x="180" y="0" type="line"/>
      <point x="332" y="0" type="line"/>
      <point x="332" y="1210" type="line"/>
      <point x="1234" y="0" type="line"/>
      <point x="1384" y="0" type="line"/>
      <point x="1384" y="1456" type="line"/>
      <point x="1234" y="1456" type="line"/>
      <point x="1234" y="248" type="line"/>
      <point x="332" y="1456" type="line"/>
    </contour>
    <contour>
      <point x="824" y="1835" type="line"/>
      <point x="590" y="1558" type="line"/>
      <point x="703" y="1558" type="line"/>
      <point x="976" y="1800" type="line"/>
    </contour>
  </outline>
</glyph>
<glyph name="nacute" format="2">
  <advance width="1141"/>
  <unicode hex="0144"/>
  <outline>
    <contour>
      <point x="620" y="1021" type="qcurve"/>
      <point x="516" y="1021"/>
      <point x="425" y="968" type="qcurve"/>
      <point x="335" y="916"/>
      <point x="292" y="836" type="qcurve"/>
      <point x="292" y="996" type="line"/>
      <point x="147" y="996" type="line"/>
      <point x="147" y="0" type="line"/>
      <point x="292" y="0" type="line"/>
      <point x="292" y="636" type="line"/>
      <point x="292" y="705"/>
      <point x="333" y="761" type="qcurve"/>
      <point x="376" y="824"/>
      <point x="448" y="857" type="qcurve"/>
      <point x="520" y="890"/>
      <point x="602" y="890" type="qcurve"/>
      <point x="712" y="892"/>
      <point x="780" y="814" type="qcurve"/>
      <point x="850" y="738"/>
      <point x="850" y="615" type="qcurve"/>
      <point x="850" y="0" type="line"/>
      <point x="993" y="0" type="line"/>
      <point x="993" y="636" type="line"/>
      <point x="995" y="750"/>
      <point x="946" y="836" type="qcurve"/>
      <point x="901" y="925"/>
      <point x="813" y="972" type="qcurve"/>
      <point x="729" y="1023"/>
    </contour>
    <contour>
      <point x="612" y="1402" type="line"/>
      <point x="378" y="1125" type="line"/>
      <point x="491" y="1125" type="line"/>
      <point x="764" y="1367" type="line"/>
    </contour>
  </outline>
</glyph>
<glyph name="Ncedilla" format="2">
  <advance width="1565"/>
  <unicode hex="0145"/>
  <outline>
    <contour>
      <point x="180" y="1456" type="line"/>
      <point x="180" y="0" type="line"/>
      <point x="332" y="0" type="line"/>
      <point x="332" y="1210" type="line"/>
      <point x="1234" y="0" type="line"/>
      <point x="1384" y="0" type="line"/>
      <point x="1384" y="1456" type="line"/>
      <point x="1234" y="1456" type="line"/>
      <point x="1234" y="248" type="line"/>
      <point x="332" y="1456" type="line"/>
    </contour>
    <contour>
      <point x="828" y="-211" type="qcurve"/>
      <point x="816" y="-209"/>
      <point x="808" y="-213" type="qcurve"/>
      <point x="853" y="-102" type="line"/>
      <point x="754" y="-102" type="line"/>
      <point x="691" y="-252" type="line"/>
      <point x="722" y="-285" type="line"/>
      <point x="750" y="-262"/>
      <point x="785" y="-262" type="qcurve"/>
      <point x="822" y="-262"/>
      <point x="843" y="-283" type="qcurve"/>
      <point x="863" y="-299"/>
      <point x="861" y="-330" type="qcurve"/>
      <point x="863" y="-361"/>
      <point x="834" y="-383" type="qcurve"/>
      <point x="808" y="-404"/>
      <point x="767" y="-404" type="qcurve"/>
      <point x="697" y="-402"/>
      <point x="640" y="-359" type="qcurve"/>
      <point x="603" y="-439" type="line"/>
      <point x="633" y="-461"/>
      <point x="681" y="-478" type="qcurve"/>
      <point x="728" y="-492"/>
      <point x="773" y="-492" type="qcurve"/>
      <point x="855" y="-492"/>
      <point x="908" y="-449" type="qcurve"/>
      <point x="964" y="-406"/>
      <point x="964" y="-336" type="qcurve"/>
      <point x="966" y="-279"/>
      <point x="925" y="-244" type="qcurve"/>
      <point x="888" y="-209"/>
    </contour>
  </outline>
</glyph>
<glyph name="ncedilla" format="2">
  <advance width="1141"/>
  <unicode hex="0146"/>
  <outline>
    <contour>
      <point x="620" y="1021" type="qcurve"/>
      <point x="516" y="1021"/>
      <point x="425" y="968" type="qcurve"/>
      <point x="335" y="916"/>
      <point x="292" y="836" type="qcurve"/>
      <point x="292" y="996" type="line"/>
      <point x="147" y="996" type="line"/>
      <point x="147" y="0" type="line"/>
      <point x="292" y="0" type="line"/>
      <point x="292" y="636" type="line"/>
      <point x="292" y="705"/>
      <point x="333" y="761" type="qcurve"/>
      <point x="376" y="824"/>
      <point x="448" y="857" type="qcurve"/>
      <point x="520" y="890"/>
      <point x="602" y="890" type="qcurve"/>
      <point x="712" y="892"/>
      <point x="780" y="814" type="qcurve"/>
      <point x="850" y="738"/>
      <point x="850" y="615" type="qcurve"/>
      <point x="850" y="0" type="line"/>
      <point x="993" y="0" type="line"/>
      <point x="993" y="636" type="line"/>
      <point x="995" y="750"/>
      <point x="946" y="836" type="qcurve"/>
      <point x="901" y="925"/>
      <point x="813" y="972" type="qcurve"/>
      <point x="729" y="1023"/>
    </contour>
    <contour>
      <point x="616" y="-211" type="qcurve"/>
      <point x="604" y="-209"/>
      <point x="596" y="-213" type="qcurve"/>
      <point x="641" y="-102" type="line"/>
      <point x="542" y="-102" type="line"/>
      <point x="479" y="-252" type="line"/>
      <point x="509" y="-285" type="line"/>
      <point x="538" y="-262"/>
      <point x="573" y="-262" type="qcurve"/>
      <point x="610" y="-262"/>
      <point x="630" y="-283" type="qcurve"/>
      <point x="651" y="-299"/>
      <point x="649" y="-330" type="qcurve"/>
      <point x="651" y="-361"/>
      <point x="622" y="-383" type="qcurve"/>
      <point x="596" y="-404"/>
      <point x="555" y="-404" type="qcurve"/>
      <point x="485" y="-402"/>
      <point x="427" y="-359" type="qcurve"/>
      <point x="391" y="-439" type="line"/>
      <point x="421" y="-461"/>
      <point x="468" y="-478" type="qcurve"/>
      <point x="516" y="-492"/>
      <point x="561" y="-492" type="qcurve"/>
      <point x="643" y="-492"/>
      <point x="696" y="-449" type="qcurve"/>
      <point x="751" y="-406"/>
      <point x="751" y="-336" type="qcurve"/>
      <point x="753" y="-279"/>
      <point x="712" y="-244" type="qcurve"/>
      <point x="675" y="-209"/>
    </contour>
  </outline>
</glyph>
<glyph name="Ncaron" format="2">
  <advance width="1565"/>
  <unicode hex="0147"/>
  <outline>
    <contour>
      <point x="180" y="1456" type="line"/>
      <point x="180" y="0" type="line"/>
      <point x="332" y="0" type="line"/>
      <point x="332" y="1210" type="line"/>
      <point x="1234" y="0" type="line"/>
      <point x="1384" y="0" type="line"/>
      <point x="1384" y="1456" type="line"/>
      <point x="1234" y="1456" type="line"/>
      <point x="1234" y="248" type="line"/>
      <point x="332" y="1456" type="line"/>
    </contour>
    <contour>
      <point x="521" y="1822" type="line"/>
      <point x="713" y="1558" type="line"/>
      <point x="849" y="1558" type="line"/>
      <point x="1046" y="1822" type="line"/>
      <point x="933" y="1822" type="line"/>
      <point x="781" y="1656" type="line"/>
      <point x="631" y="1822" type="line"/>
    </contour>
  </outline>
</glyph>
<glyph name="Obreve" format="2">
  <advance width="1702"/>
  <unicode hex="014E"/>
  <outline>
    <contour>
      <point x="845" y="-23" type="qcurve"/>
      <point x="1046" y="-20"/>
      <point x="1214" y="82" type="qcurve"/>
      <point x="1384" y="187"/>
      <point x="1484" y="355" type="qcurve"/>
      <point x="1587" y="527"/>
      <point x="1585" y="728" type="qcurve"/>
      <point x="1587" y="933"/>
      <point x="1484" y="1103" type="qcurve"/>
      <point x="1380" y="1275"/>
      <point x="1212" y="1378" type="qcurve"/>
      <point x="1046" y="1480"/>
      <point x="845" y="1478" type="qcurve"/>
      <point x="648" y="1480"/>
      <point x="476" y="1376" type="qcurve"/>
      <point x="308" y="1273"/>
      <point x="203" y="1101" type="qcurve"/>
      <point x="98" y="931"/>
      <point x="98" y="728" type="qcurve"/>
      <point x="98" y="527"/>
      <point x="203" y="355" type="qcurve"/>
      <point x="305" y="184"/>
      <point x="478" y="80" type="qcurve"/>
      <point x="648" y="-23"/>
    </contour>
    <contour>
      <point x="845" y="129" type="qcurve"/>
      <point x="689" y="127"/>
      <point x="549" y="213" type="qcurve"/>
      <point x="480" y="256"/>
      <point x="375" y="363"/>
      <point x="332" y="433" type="qcurve"/>
      <point x="250" y="574"/>
      <point x="254" y="728" type="qcurve"/>
      <point x="254" y="886"/>
      <point x="334" y="1029" type="qcurve"/>
      <point x="375" y="1101"/>
      <point x="482" y="1203"/>
      <point x="551" y="1246" type="qcurve"/>
      <point x="691" y="1328"/>
      <point x="845" y="1326" type="qcurve"/>
      <point x="998" y="1326"/>
      <point x="1138" y="1244" type="qcurve"/>
      <point x="1275" y="1164"/>
      <point x="1353" y="1025" type="qcurve"/>
      <point x="1433" y="882"/>
      <point x="1433" y="728" type="qcurve"/>
      <point x="1435" y="574"/>
      <point x="1353" y="433" type="qcurve"/>
      <point x="1275" y="295"/>
      <point x="1136" y="213" type="qcurve"/>
      <point x="996" y="131"/>
    </contour>
    <contour>
      <point x="845" y="1583" type="qcurve"/>
      <point x="925" y="1583"/>
      <point x="996" y="1613" type="qcurve"/>
      <point x="1072" y="1644"/>
      <point x="1123" y="1699" type="qcurve"/>
      <point x="1035" y="1790" type="line"/>
      <point x="998" y="1753"/>
      <point x="943" y="1728" type="qcurve"/>
      <point x="894" y="1708"/>
      <point x="845" y="1708" type="qcurve"/>
      <point x="793" y="1708"/>
      <point x="740" y="1728" type="qcurve"/>
      <point x="691" y="1753"/>
      <point x="654" y="1790" type="qcurve"/>
      <point x="562" y="1699" type="line"/>
      <point x="621" y="1642"/>
      <point x="695" y="1611" type="qcurve"/>
      <point x="769" y="1583"/>
    </contour>
  </outline>
</glyph>
<glyph name="odblacute" format="2">
  <advance width="1217"/>
  <unicode hex="0151"/>
  <outline>
    <contour>
      <point x="609" y="-23" type="qcurve"/>
      <point x="750" y="-20"/>
      <point x="867" y="49" type="qcurve"/>
      <point x="988" y="121"/>
      <point x="1056" y="242" type="qcurve"/>
      <point x="1093" y="303"/>
      <point x="1123" y="426"/>
      <point x="1123" y="498" type="qcurve"/>
      <point x="1125" y="640"/>
      <point x="1054" y="758" type="qcurve"/>
      <point x="986" y="882"/>
      <point x="865" y="949" type="qcurve"/>
      <point x="748" y="1021"/>
      <point x="609" y="1021" type="qcurve"/>
      <point x="472" y="1021"/>
      <point x="353" y="949" type="qcurve"/>
      <point x="234" y="882"/>
      <point x="162" y="758" type="qcurve"/>
      <point x="94" y="640"/>
      <point x="94" y="498" type="qcurve"/>
      <point x="94" y="361"/>
      <point x="164" y="240" type="qcurve"/>
      <point x="236" y="119"/>
      <point x="353" y="49" type="qcurve"/>
      <point x="472" y="-20"/>
    </contour>
    <contour>
      <point x="609" y="105" type="qcurve"/>
      <point x="512" y="107"/>
      <point x="426" y="160" type="qcurve"/>
      <point x="342" y="213"/>
      <point x="291" y="303" type="qcurve"/>
      <point x="244" y="394"/>
      <point x="246" y="498" type="qcurve"/>
      <point x="246" y="603"/>
      <point x="293" y="693" type="qcurve"/>
      <point x="344" y="785"/>
      <point x="428" y="838" type="qcurve"/>
      <point x="512" y="892"/>
      <point x="609" y="890" type="qcurve"/>
      <point x="705" y="890"/>
      <point x="791" y="836" type="qcurve"/>
      <point x="875" y="783"/>
      <point x="922" y="693" type="qcurve"/>
      <point x="974" y="603"/>
      <point x="972" y="498" type="qcurve"/>
      <point x="972" y="394"/>
      <point x="920" y="301" type="qcurve"/>
      <point x="873" y="213"/>
      <point x="789" y="160" type="qcurve"/>
      <point x="705" y="107"/>
    </contour>
    <contour>
      <point x="459" y="1402" type="line"/>
      <point x="226" y="1123" type="line"/>
      <point x="338" y="1123" type="line"/>
      <point x="611" y="1367" type="line"/>
    </contour>
    <contour>
      <point x="845" y="1398" type="line"/>
      <point x="611" y="1123" type="line"/>
      <point x="724" y="1123" type="line"/>
      <point x="996" y="1363" type="line"/>
    </contour>
  </outline>
</glyph>
<glyph name="OE" format="2">
  <advance width="2200"/>
  <unicode hex="0152"/>
  <outline>
    <contour>
      <point x="1197" y="1310" type="line"/>
      <point x="2083" y="1310" type="line"/>
      <point x="2083" y="1456" type="line"/>
      <point x="865" y="1456" type="line"/>
      <point x="666" y="1456"/>
      <point x="496" y="1353" type="qcurve"/>
      <point x="324" y="1250"/>
      <point x="219" y="1080" type="qcurve"/>
      <point x="115" y="908"/>
      <point x="115" y="707" type="qcurve"/>
      <point x="117" y="508"/>
      <point x="219" y="344" type="qcurve"/>
      <point x="324" y="184"/>
      <point x="496" y="92" type="qcurve"/>
      <point x="666" y="0"/>
      <point x="865" y="0" type="qcurve"/>
      <point x="2083" y="0" type="line"/>
      <point x="2085" y="144" type="line"/>
      <point x="1197" y="144" type="line"/>
      <point x="1197" y="668" type="line"/>
      <point x="1997" y="668" type="line"/>
      <point x="1999" y="812" type="line"/>
      <point x="1197" y="812" type="line"/>
    </contour>
    <contour>
      <point x="1041" y="135" type="line"/>
      <point x="865" y="137" type="line"/>
      <point x="703" y="139"/>
      <point x="568" y="213" type="qcurve"/>
      <point x="430" y="287"/>
      <point x="353" y="414" type="qcurve"/>
      <point x="275" y="543"/>
      <point x="275" y="707" type="qcurve"/>
      <point x="277" y="869"/>
      <point x="355" y="1011" type="qcurve"/>
      <point x="398" y="1080"/>
      <point x="504" y="1189"/>
      <point x="572" y="1232" type="qcurve"/>
      <point x="707" y="1318"/>
      <point x="865" y="1316" type="qcurve"/>
      <point x="1041" y="1316" type="line"/>
    </contour>
  </outline>
</glyph>
<glyph name="oe" format="2">
  <advance width="2025"/>
  <unicode hex="0153"/>
  <outline>
    <contour>
      <point x="1476" y="105" type="qcurve"/>
      <point x="1330" y="107"/>
      <point x="1234" y="201" type="qcurve"/>
      <point x="1138" y="295"/>
      <point x="1121" y="445" type="qcurve"/>
      <point x="1937" y="445" type="line"/>
      <point x="1939" y="709"/>
      <point x="1812" y="865" type="qcurve"/>
      <point x="1687" y="1021"/>
      <point x="1464" y="1021" type="qcurve"/>
      <point x="1337" y="1021"/>
      <point x="1224" y="953" type="qcurve"/>
      <point x="1113" y="888"/>
      <point x="1046" y="773" type="qcurve"/>
      <point x="976" y="886"/>
      <point x="859" y="953" type="qcurve"/>
      <point x="742" y="1021"/>
      <point x="609" y="1021" type="qcurve"/>
      <point x="472" y="1021"/>
      <point x="353" y="949" type="qcurve"/>
      <point x="234" y="882"/>
      <point x="162" y="758" type="qcurve"/>
      <point x="94" y="640"/>
      <point x="94" y="498" type="qcurve"/>
      <point x="94" y="361"/>
      <point x="164" y="240" type="qcurve"/>
      <point x="236" y="119"/>
      <point x="353" y="49" type="qcurve"/>
      <point x="472" y="-20"/>
      <point x="609" y="-23" type="qcurve"/>
      <point x="744" y="-23"/>
      <point x="861" y="47" type="qcurve"/>
      <point x="980" y="115"/>
      <point x="1048" y="228" type="qcurve"/>
      <point x="1115" y="113"/>
      <point x="1230" y="45" type="qcurve"/>
      <point x="1345" y="-23"/>
      <point x="1478" y="-23" type="qcurve"/>
      <point x="1587" y="-20"/>
      <point x="1702" y="20" type="qcurve"/>
      <point x="1816" y="62"/>
      <point x="1880" y="131" type="qcurve"/>
      <point x="1792" y="226" type="line"/>
      <point x="1747" y="174"/>
      <point x="1654" y="139" type="qcurve"/>
      <point x="1566" y="107"/>
    </contour>
    <contour>
      <point x="609" y="105" type="qcurve"/>
      <point x="512" y="107"/>
      <point x="426" y="160" type="qcurve"/>
      <point x="342" y="213"/>
      <point x="291" y="303" type="qcurve"/>
      <point x="244" y="394"/>
      <point x="246" y="498" type="qcurve"/>
      <point x="246" y="603"/>
      <point x="293" y="693" type="qcurve"/>
      <point x="344" y="785"/>
      <point x="428" y="838" type="qcurve"/>
      <point x="512" y="892"/>
      <point x="609" y="890" type="qcurve"/>
      <point x="705" y="890"/>
      <point x="791" y="836" type="qcurve"/>
      <point x="875" y="783"/>
      <point x="922" y="693" type="qcurve"/>
      <point x="974" y="603"/>
      <point x="972" y="498" type="qcurve"/>
      <point x="972" y="394"/>
      <point x="920" y="301" type="qcurve"/>
      <point x="873" y="213"/>
      <point x="789" y="160" type="qcurve"/>
      <point x="705" y="107"/>
    </contour>
    <contour>
      <point x="1470" y="890" type="qcurve"/>
      <point x="1615" y="890"/>
      <point x="1695" y="802" type="qcurve"/>
      <point x="1779" y="718"/>
      <point x="1796" y="572" type="qcurve"/>
      <point x="1123" y="572" type="line"/>
      <point x="1144" y="718"/>
      <point x="1240" y="804" type="qcurve"/>
      <point x="1337" y="892"/>
    </contour>
  </outline>
</glyph>
<glyph name="Rcedilla" format="2">
  <advance width="1331"/>
  <unicode hex="0156"/>
  <outline>
    <contour>
      <point x="152" y="1456" type="line"/>
      <point x="152" y="0" type="line"/>
      <point x="301" y="0" type="line"/>
      <point x="301" y="607" type="line"/>
      <point x="654" y="607" type="line"/>
      <point x="1078" y="0" type="line"/>
      <point x="1253" y="0" type="line"/>
      <point x="818" y="621" type="line"/>
      <point x="978" y="656"/>
      <point x="1076" y="767" type="qcurve"/>
      <point x="1179" y="882"/>
      <point x="1179" y="1033" type="qcurve"/>
      <point x="1179" y="1156"/>
      <point x="1111" y="1253" type="qcurve"/>
      <point x="1050" y="1349"/>
      <point x="937" y="1402" type="qcurve"/>
      <point x="828" y="1456"/>
      <point x="689" y="1456" type="qcurve"/>
    </contour>
    <contour>
      <point x="301" y="1312" type="line"/>
      <point x="664" y="1312" type="line"/>
      <point x="828" y="1314"/>
      <point x="927" y="1238" type="qcurve"/>
      <point x="1029" y="1164"/>
      <point x="1027" y="1033" type="qcurve"/>
      <point x="1027" y="902"/>
      <point x="925" y="826" type="qcurve"/>
      <point x="828" y="750"/>
      <point x="664" y="750" type="qcurve"/>
      <point x="301" y="750" type="line"/>
    </contour>
    <contour>
      <point x="746" y="-211" type="qcurve"/>
      <point x="734" y="-209"/>
      <point x="726" y="-213" type="qcurve"/>
      <point x="771" y="-102" type="line"/>
      <point x="672" y="-102" type="line"/>
      <point x="609" y="-252" type="line"/>
      <point x="640" y="-285" type="line"/>
      <point x="668" y="-262"/>
      <point x="703" y="-262" type="qcurve"/>
      <point x="740" y="-262"/>
      <point x="761" y="-283" type="qcurve"/>
      <point x="781" y="-299"/>
      <point x="779" y="-330" type="qcurve"/>
      <point x="781" y="-361"/>
      <point x="752" y="-383" type="qcurve"/>
      <point x="726" y="-404"/>
      <point x="685" y="-404" type="qcurve"/>
      <point x="615" y="-402"/>
      <point x="558" y="-359" type="qcurve"/>
      <point x="521" y="-439" type="line"/>
      <point x="551" y="-461"/>
      <point x="599" y="-478" type="qcurve"/>
      <point x="646" y="-492"/>
      <point x="691" y="-492" type="qcurve"/>
      <point x="773" y="-492"/>
      <point x="826" y="-449" type="qcurve"/>
      <point x="882" y="-406"/>
      <point x="882" y="-336" type="qcurve"/>
      <point x="884" y="-279"/>
      <point x="843" y="-244" type="qcurve"/>
      <point x="806" y="-209"/>
    </contour>
  </outline>
</glyph>
<glyph name="rcedilla" format="2">
  <advance width="743"/>
  <unicode hex="0157"/>
  <outline>
    <contour>
      <point x="303" y="802" type="qcurve"/>
      <point x="303" y="996" type="line"/>
      <point x="160" y="996" type="line"/>
      <point x="160" y="0" type="line"/>
      <point x="303" y="0" type="line"/>
      <point x="303" y="558" type="line"/>
      <point x="303" y="654"/>
      <point x="355" y="730" type="qcurve"/>
      <point x="406" y="808"/>
      <point x="490" y="849" type="qcurve"/>
      <point x="578" y="890"/>
      <point x="689" y="890" type="qcurve"/>
      <point x="689" y="1021" type="line"/>
      <point x="554" y="1021"/>
      <point x="451" y="959" type="qcurve"/>
      <point x="348" y="902"/>
    </contour>
    <contour>
      <point x="469" y="-211" type="qcurve"/>
      <point x="457" y="-209"/>
      <point x="449" y="-213" type="qcurve"/>
      <point x="494" y="-102" type="line"/>
      <point x="396" y="-102" type="line"/>
      <point x="332" y="-252" type="line"/>
      <point x="363" y="-285" type="line"/>
      <point x="392" y="-262"/>
      <point x="426" y="-262" type="qcurve"/>
      <point x="463" y="-262"/>
      <point x="484" y="-283" type="qcurve"/>
      <point x="504" y="-299"/>
      <point x="502" y="-330" type="qcurve"/>
      <point x="504" y="-361"/>
      <point x="476" y="-383" type="qcurve"/>
      <point x="449" y="-404"/>
      <point x="408" y="-404" type="qcurve"/>
      <point x="338" y="-402"/>
      <point x="281" y="-359" type="qcurve"/>
      <point x="244" y="-439" type="line"/>
      <point x="275" y="-461"/>
      <point x="322" y="-478" type="qcurve"/>
      <point x="369" y="-492"/>
      <point x="414" y="-492" type="qcurve"/>
      <point x="496" y="-492"/>
      <point x="549" y="-449" type="qcurve"/>
      <point x="605" y="-406"/>
      <point x="605" y="-336" type="qcurve"/>
      <point x="607" y="-279"/>
      <point x="566" y="-244" type="qcurve"/>
      <point x="529" y="-209"/>
    </contour>
  </outline>
</glyph>
<glyph name="Rcaron" format="2">
  <advance width="1331"/>
  <unicode hex="0158"/>
  <outline>
    <contour>
      <point x="152" y="1456" type="line"/>
      <point x="152" y="0" type="line"/>
      <point x="301" y="0" type="line"/>
      <point x="301" y="607" type="line"/>
      <point x="654" y="607" type="line"/>
      <point x="1078" y="0" type="line"/>
      <point x="1253" y="0" type="line"/>
      <point x="818" y="621" type="line"/>
      <point x="978" y="656"/>
      <point x="1076" y="767" type="qcurve"/>
      <point x="1179" y="882"/>
      <point x="1179" y="1033" type="qcurve"/>
      <point x="1179" y="1156"/>
      <point x="1111" y="1253" type="qcurve"/>
      <point x="1050" y="1349"/>
      <point x="937" y="1402" type="qcurve"/>
      <point x="828" y="1456"/>
      <point x="689" y="1456" type="qcurve"/>
    </contour>
    <contour>
      <point x="301" y="1312" type="line"/>
      <point x="664" y="1312" type="line"/>
      <point x="828" y="1314"/>
      <point x="927" y="1238" type="qcurve"/>
      <point x="1029" y="1164"/>
      <point x="1027" y="1033" type="qcurve"/>
      <point x="1027" y="902"/>
      <point x="925" y="826" type="qcurve"/>
      <point x="828" y="750"/>
      <point x="664" y="750" type="qcurve"/>
      <point x="301" y="750" type="line"/>
    </contour>
    <contour>
      <point x="439" y="1822" type="line"/>
      <point x="631" y="1558" type="line"/>
      <point x="767" y="1558" type="line"/>
      <point x="964" y="1822" type="line"/>
      <point x="851" y="1822" type="line"/>
      <point x="699" y="1656" type="line"/>
      <point x="549" y="1822" type="line"/>
    </contour>
  </outline>
</glyph>
